<svg aria-hidden="true" style="position: absolute; width: 0; height: 0; overflow: hidden;" version="1.1" xmlns="http://www.w3.org/2000/svg" xmlns:xlink="http://www.w3.org/1999/xlink">
<defs>
<symbol id="icon-flower" viewBox="0 0 32 32">
<path d="M18.289 23.644c3.719-1.119 1.059-5.111 2.378-4.511 7.148 2.496 9.993-11.044 2.459-6.741-2.652 0.496 7.667-8.311-1.881-11.037-3.163 1.652-4.104 5.756-5.126 8.904-1.193-2.519-2.822-6.104-6.178-7.007-0.978-0.437-3.111-0.667-2.948 0.956-0.926 0.859-2.274 1.319-1.889 2.874 0.496 3.311 2.719 5.733 5.363 7.622-6.074-1.104-14.874 5.57-4.659 7.719 2.2 0.141 4.615 0.133 6.556-0.985-1.059 4.593 3.111 3.548 5.926 2.207zM15.852 10.348c0 0.007 0 0.007 0 0 0 0.007 0.007 0.015 0 0zM10.874 22.015c0.007 0 0.007 0 0 0 0.007 0 0 0 0 0zM17.933 13.281c-0.711 0.585-0.496 1.511-0.785 2.2-0.348 0.689-0.985 1.081-1.059 1.904-0.444 0.259-0.067-1.007-0.585-1.17-0.741-0.615-0.363-1.719-1.037-2.311-0.504-1.133 1.104 0.511 1.585 0 0.533-0.081 1.704-1.4 1.881-0.622z"></path>
<path d="M30.067 19.081c-9.111 0.319-6.304 8.659-8.452 1.785-1.296 1.585-1.326 4.304-1.926 6.2-0.452 1.156-1.874 2.267-1.793 3.578 0.778-0.77 2.259-1.8 3.022-2.948 0.726-0.956 0.919-2.563 2.422-2.489 2.526 0.126 5.178-0.659 6.119-3.252 0.089-1.030 2.696-3.481 0.607-2.874zM22.896 23.815c1.185-0.407 2.022-1.526 3.326-1.822-0.652 0.63-2.8 2.881-3.326 1.822z"></path>
</symbol>
<symbol id="icon-plume" viewBox="0 0 32 32">
<path d="M29.489 1.541c-3.2-1.222-7.644 0.541-9.933 2.437-0.2 0.319-0.563 0.556-0.941 0.519-0.007 0.007-0.007 0.015-0.007 0.030-3.719 1.896-6.304 5.289-8.704 8.785-1.311 3.244-1.407-0.504-2.874 4.185-0.363 0.904-0.467 2.178-0.659 3.548-0.37 0.867-3.133 1.022-2.030 2.074 0.548 1.178-1.622 1.511-0.2 1.785 1.044 1.385-3.074 4.252-1.926 5.926 1.452 0.333 1.578-1.363 2.089-2.304 0.741-1.563 1.756-3.756 3.259-1.733 0.556 0.096 0.97-0.496 0.407-0.837-0.037-0.333-0.022-0.659 0.089-0.837 1.126-0.4 1.348 0.289 1.267-1.326 1.281-0.37 2.644-0.489 3.97-0.667 1.111-0.43 2.304-1.067 2.956-1.615 0 0 0-0.007 0-0.007 0.319-0.437 0.578-1.111 1.141-1.333 3.459-2.741 8.319-5.444 9.119-10.067 1.548-0.6 2.274-2.422 2.681-3.874 0.007 0.007 0.007 0.015 0.015 0.022 0.415-1.407 1.385-3.267 0.281-4.711zM21.185 7.37c-4.304 3.526-7.97 7.733-11.319 12.163-4.593 5.467-0.178-1.748 1.733-3.63 0.467-1.044 11.407-11.504 9.585-8.533z"></path>
</symbol>
<symbol id="icon-sands" viewBox="0 0 32 32">
<path d="M7.889 4.244c5.741 0.030 11.17 0.044 17.044 0.015 0.23 0 0.437-0.119 0.556-0.311 0.452-0.77 0.4-2.281-0.556-2.326-5.985-0.022-11.97 0-17.956-0.007-0.363-0.030-0.696 0.23-0.689 0.6-0.067 1.467-0.141 2.022 1.6 2.030z"></path>
<path d="M25.763 28.141c-0.096-0.689-0.77-0.689-1.304-0.77-1.096 0.007-0.311-4.407-2.030-6.044-0.919-2.126-5.207-3.252-4.652-6.052 0.674-1.644 2.481-2.422 3.719-3.593v0c1.43-1.23 2.296-3.185 2.215-5.141-0.244-0.993-1.615-0.437-2.356-0.57-1.785 0.007-3.57 0.007-5.356 0.007s-3.57-0.007-5.356-0.007c-0.748 0.133-2.104-0.422-2.356 0.563-0.081 1.956 0.785 3.911 2.215 5.141v0c1.244 1.17 3.044 1.948 3.719 3.593 0.111 0.541 0.030 1.022-0.163 1.459-0.007 0.015-0.022 0.037-0.030 0.052 0.007 0 0.007 0 0.007-0.007-0.852 1.778-3.733 2.844-4.467 4.541-0.015 0.022-0.037 0.044-0.052 0.067 0.015-0.111 0.141-0.222 0.163-0.341-0.096 0.111-0.163 0.244-0.23 0.378h0.030c-0.081 0.104-0.156 0.207-0.222 0.311-0.059 0.067-0.111 0.119-0.126 0.207-0.867 1.496-0.822 3.385-1.096 5.067-0.748 0.889-2.052-0.148-1.793 1.919-0.267 1.785 1.659 1.356 2.807 1.37 2.304 0.089 4.622 0.081 6.948 0.059 2.993 0.081 5.948-0.089 8.926-0.030 1.052-0.163 0.83-1.37 0.837-2.178zM21.489 27.333c-3.593 0.022-7.178 0.022-10.77 0-1.193 0.089-0.452-1.393-0.259-2 1.148-1.074 2.089-1.807 2.756-2.304 0.689-0.437 1.348-0.852 1.785-1.267 0.578-0.585 0.511-4.978 0.363-7.356-0.030-0.185-0.111-0.356-0.274-0.467-5.57-4.089 0.748-2.948 3.089-3.059 1.363 0.207 1.659 0.919-1.244 3.059-0.156 0.111-0.244 0.281-0.274 0.467-0.148 2.378-0.215 6.77 0.363 7.356 1.541 1.222 2.741 1.807 4.533 3.57 0.148 0.563 0.896 1.867-0.067 2z"></path>
</symbol>
<symbol id="icon-goblet" viewBox="0 0 32 32">
<path d="M27.415 6.852c-7.57 0-15.141 0-22.719 0-1.289-0.059-0.563 2.889-0.393 4.215 0.615 3.778 3.822 7.919 7.644 8.215 0.378 0.985 0.119 1.607 1.015 2.385 1.526 0.911 1.881 2.822 0.704 4.022 0 0-0.007 0-0.007 0-0.067 0.081-0.178 0.133-0.311 0.133v0.030c-0.015 0-0.037 0-0.059 0-0.356 0.156-0.763 0.215-1.148 0.319 0 0.007-0.007 0.015-0.007 0.022-0.141-0.007-0.244 0.089-0.385 0.096-1.474 0.57-4.548 1.356-4.156 3.385 5.644 0 11.296 0 16.941 0 0.407-2.415-4.037-3.437-5.756-3.822v0c-0.111-0.044-0.244-0.074-0.319-0.156 0 0 0 0-0.007 0-1.178-1.2-0.815-3.111 0.704-4.022 0.896-0.778 0.637-1.4 1.015-2.385 1.667-0.119 3.289-1.052 4.57-2.311 0 0 0 0 0-0.007 1.481-1.467 2.541-3.4 2.933-5.311 0.215-1.326 1.148-4.793-0.259-4.807zM18.185 14.319c-1.141 0.37-1.267 1.681-1.548 2.696h-0.007c-0.007 0.044-0.022 0.089-0.037 0.126 0 0.007 0 0.015 0 0.022h-0.007c-0.052 0.126-0.133 0.23-0.23 0.289v0 0c-0.030 0.022-0.059 0.037-0.089 0.052v0.007c-0.17 0.059-0.37 0.052-0.541-0.030 0 0 0 0 0-0.007-1-0.6-0.459-2.296-1.481-2.941-0.815-0.489-3.044-0.496-2.667-1.644 0.8-0.652 2.311-0.43 2.844-1.311h0.007c0.585-0.659 0.652-3.348 1.83-2.837v0 0c0.659 0.674 0.63 1.859 1.022 2.711 1.407 1.511 5.978 1.17 0.904 2.867z"></path>
<path d="M28.333 2.356c0-0.007 0-0.007 0 0-8.148-0.044-16.296-0.007-24.444-0.015-2.089 0.037-2.074 3.163 0.030 3.156 0 0 0 0 0 0 8.067-0.015 16.141-0.007 24.2 0 1.941 0.007 2.119-2.896 0.215-3.141z"></path>
</symbol>
<symbol id="icon-circlet" viewBox="0 0 32 32">
<path d="M30.504 10.341c-3.504 1.585-0.8 1.185-1.585 2.63-1.074 0.778-2.185 1.437-3.281 2.119-0.696 0.43-1.341 1.156-2.237 1.037-0.289-0.052-0.422-0.244-0.711-0.281 0.015-0.104-0.007-0.089-0.089-0.067 0.015-0.081-0.007-0.096-0.089-0.089-0.096-0.067-0.156-0.207-0.237-0.23-0.304-0.281-0.57-0.778-0.859-0.941-1.4-1.933-3.030-3.83-4.119-5.748-0.681-1.022 0.77-1.733 0.933-2.541 0.015-0.059-0.007-0.126-0.044-0.17-0.356-0.437-1.363-1.83-1.815-2.548-0.089-0.141-0.244-0.17-0.363-0.17s-0.23 0.067-0.333 0.215c-0.052 0.081-1.874 2.504-1.889 2.704-0.007 0.126 0.096 0.296 0.296 0.556 2.148 1.519-0.615 3.504-1.474 5.096-3.881 5-3.444 5.274-8.77 1.556-2.511-1.578 1.978-1.319-2.889-3.496-0.215 0.289 0.059 0.578 0.148 0.852l4.37 11.415c0.022 0.059 0.607 2.030 0.844 2.289 0.244 0.267 0.504 0.563 1.696 0.97 2.585 1.141 5.444 2.43 8.2 3.148 2.57-1.363 8.97-2.407 9.867-5.193l4.807-12.185c0.363-0.933 0.422-1.504-0.378-0.926zM20.311 20.474c-0.030 0.015-0.052 0.030-0.081 0.052-0.030 0.089-0.089 0.163-0.193 0.207-0.237 0.096-0.563 0.193-0.896 0.304-0.289 0.104-0.578 0.2-0.867 0.304-0.304 0.126-0.57 0.274-0.741 0.452-0.526 0.541-0.867 1.978-1.148 2.659-0.111 0.274-0.496 0.281-0.615 0.007-0.319-0.704-0.407-1.867-1.111-2.585-0.17-0.17-0.363-0.311-0.563-0.422-0.341-0.156-0.726-0.281-1.141-0.444-0.296-0.089-0.57-0.17-0.815-0.267-0.274-0.111-0.274-0.511 0-0.622 0.689-0.281 2.067-0.63 2.556-1.156 0.496-0.541 0.807-1.904 1.096-2.585 0.119-0.267 0.496-0.274 0.615 0 0.052 0.119 0.104 0.267 0.163 0.422 0.081 0.17 0.148 0.385 0.207 0.615 0.2 0.615 0.43 1.267 0.719 1.585 0.215 0.244 0.644 0.437 1.104 0.607 0.363 0.096 0.83 0.237 0.97 0.311 0 0 0.052 0.022 0.119 0.059 0.126 0.044 0.252 0.089 0.356 0.133s0.17 0.126 0.193 0.215c0.096 0.111 0.148 0.141 0.074 0.148z"></path>
</symbol>
<symbol id="icon-puzzle" viewBox="0 0 32 32">
<path d="M27.333 14.667h-2v-5.333c0-1.48-1.2-2.667-2.667-2.667h-5.333v-2c0-1.841-1.492-3.333-3.333-3.333v0c-1.841 0-3.333 1.492-3.333 3.333v0 2h-5.333c-1.473 0-2.667 1.194-2.667 2.667v0 5.067h2c2 0 3.6 1.6 3.6 3.6s-1.6 3.6-3.6 3.6h-2v5.067c0 1.473 1.194 2.667 2.667 2.667v0h5.067v-2c0-2 1.6-3.6 3.6-3.6s3.6 1.6 3.6 3.6v2h5.067c1.473 0 2.667-1.194 2.667-2.667v0-5.333h2c1.841 0 3.333-1.492 3.333-3.333v0c0-1.841-1.492-3.333-3.333-3.333v0z"></path>
</symbol>
<symbol id="icon-menu" viewBox="0 0 32 32">
<path d="M4.277 2.687h8.756c0.789 0 1.429 0.64 1.429 1.429v8.756c0 0.789-0.64 1.429-1.429 1.429h-8.756c-0.789 0-1.429-0.64-1.429-1.429v-8.756c0-0.789 0.64-1.43 1.429-1.43z"></path>
<path d="M18.966 2.652h8.756c0.789 0 1.429 0.64 1.429 1.429v8.756c0 0.789-0.64 1.429-1.429 1.429h-8.756c-0.789 0-1.429-0.64-1.429-1.429v-8.756c-0-0.789 0.64-1.429 1.429-1.429z"></path>
<path d="M4.277 17.733h8.756c0.789 0 1.429 0.64 1.429 1.429v8.756c0 0.789-0.64 1.429-1.429 1.429h-8.756c-0.789 0-1.429-0.64-1.429-1.429v-8.756c0-0.789 0.64-1.429 1.429-1.429z"></path>
<path d="M18.966 17.733h8.756c0.789 0 1.429 0.64 1.429 1.429v8.756c0 0.789-0.64 1.429-1.429 1.429h-8.756c-0.789 0-1.429-0.64-1.429-1.429v-8.756c-0-0.789 0.64-1.429 1.429-1.429z"></path>
</symbol>
<symbol id="icon-enemy" viewBox="0 0 32 32">
<path d="M6.208 1.277c1.677-0.266 0.864 2.026 0.717 2.941-0.262 1.302-0.49 2.57-0.451 3.923 0.118 1.053 1.43 1.146 2.195 1.574 0.474 0.362 0.742-0.301 1.107-0.474 0.627-0.442 1.274-0.858 2-1.101 2.566-0.954 5.565-1.094 8.16-0.090 0.832 0.397 1.597 0.896 2.371 1.395 0.301 0.163 0.576 0.57 0.95 0.365 2.214-0.918 2.621-0.979 2.195-3.459-0.058-0.944-0.266-1.83-0.483-2.739-0.259-0.835-0.691-2.714 0.819-2.326 2.195 1.411 3.699 6.454 3.946 8.896-0.179 1.632-1.632 2.88-2.963 3.734-1.008 0.378 0.042 1.325 0.029 2.074 1.904 6.128-2.573 13.44-8.947 14.614-4.49 0.877-9.536-2.048-11.6-6.134-1.645-3.107-1.658-6.835-0.467-10.045-1.437-1.312-3.632-2.675-3.514-4.883 0.63-2.906 1.712-6.134 3.936-8.266zM15.968 9.517c-1.792 0.234-2.771 2.454-3.834 3.718-0.979 1.174-0.598 1.878 0.179 2.986 1.043 1.008 2.058 2.166 3.546 2.461 1.597 0.019 4.611-2.71 4.477-4.23-0.15-1.066-3.168-5.197-4.368-4.934zM10.573 10.778c-1.603 1.61-3.117 4.314-3.117 5.661s2.659 3.699 3.718 4.682 1.568 1.43 2.285 2.138c0.336 0.592 0.243 1.219 0.333 1.872-0.128 0.768 0.582 2.003 1.264 1.056 0.333-1.162 0.243-3.28 0.243-3.968s-1.424-1.738-1.782-2.058c-0.358-0.323-2.544-2.282-2.986-2.714s-1.824-1.645-1.315-2.864c0.010-0.762 3.024-3.994 1.357-3.805zM20.947 11.232c0.077 1.146 1.152 1.971 1.661 2.928 0.397 0.864 0.304 1.661-0.426 2.461-0.733 0.8-1.862 1.936-2.486 2.573-0.624 0.634-2.822 2.314-2.95 2.826s-0.006 3.536-0.035 3.75c0.058 0.954 1.322 1.117 1.354 0.112 0.112-3.498 1.136-3.459 2.282-4.429 1.142-0.973 2.506-2.189 3.782-3.696 0.624-0.886 0.432-2.032 0.070-2.922-0.419-0.803-2.339-4.467-3.251-3.603z"></path>
</symbol>
<symbol id="icon-logo" viewBox="0 0 32 32">
<path d="M10.927 23.027c0-0 0-0.001 0-0.001v0c0.296-0.588 0.651-1.201 0.875-1.56 0.303-0.672 0.693-1.713 1.080-2.36 0.237 0.54 0.004 1.356 0.403 1.772 0.103-2.439-0.227-1.889 1.858-1.152-0.186-0.464-0.64-0.709-1.018-0.991 0.334 0.035 0.671 0.065 1.004 0.093-0.175-0.179-0.382-0.316-0.595-0.451 0.506-0.031 1.046-0.014 1.49-0.292-0.272-0.041-0.547-0.072-0.822-0.114 0.815-0.416 3.609-1.417 1.283-1.352-0.227 0.090-0.368-0.010-0.557-0.182 8.476-1.146 3.458-5.147 10.702-8.373-0.151-0.069-0.138-0.169-0.052-0.292 2.718-0.178 6.673-4.282 4.737-6.949v0h-0.014c-0.227 0.406-0.117 0.956-0.434 1.335-0.905 0.908-2.081 1.348-3.062 2.102-0.602 0.564-1.981-0.010-1.992 1.115-0.368-0.967-1.314 0.285-2.095 0.251-3.877 0.334-6.313 0.819-7.658 4.909-0.107-1.404 1.063-2.453 1.748-3.557-1.951 0.657-3.027 2.614-3.915 4.335 0.031-0.482 0.072-0.963 0.1-1.445-0.953 1.445-1.342 3.199-1.596 4.892-0.33-0.193-0.66-0.403-1.049-0.213 0.788 0.427 1.204 1.417 0.808 2.257-0.461-1.149-0.678-0.908-0.444 0.189-0.509-0.041-0.881-0.379-0.956-0.884 0.251-0.055 0.396 0.117 0.619-0.124-0.389-1.834-1.713 0.148-0.767 1.214 0.227 0.282 1.032 0.723 0.244 0.747-0.547-0.158-0.55-0.888-0.805-1.314-0.416 0.867-0.035 1.916 0.973 2.036-0.292 0.134-0.619 0.206-0.884 0.396 0.447-0.035 0.894-0.083 1.342-0.124-0.608 1.603-1.354 3.022-1.627 4.868 0 0 0 0-0 0-0.016 0.183 0.009 0.251 0.015 0.349 0.011 0.155 0.105 0.387 0.16 0.393s0.128-0.035 0.187-0.057c0.029-0.011 0.207-0.376 0.379-0.74 0.091-0.221 0.208-0.47 0.335-0.724zM22.364 7.644c-3.23 1.992-5.931 4.675-8.604 7.334 2.256-3.008 5.238-5.643 8.604-7.334zM17.719 11.769c-1.82 2.157-3.771 4.235-4.992 6.825-0.561 0.932-0.599 2.264-1.596 2.873 1.004-3.76 3.627-7.231 6.588-9.698z"></path>
<path d="M23.388 11.833l4.167 4.167-11.555 11.555-4.176-4.176c-0.013 0.026-0.026 0.051-0.039 0.077-0 0.001-0.001 0.002-0.001 0.002-0.126 0.251-0.228 0.472-0.304 0.656-0.006 0.015-0.013 0.031-0.020 0.046-0.103 0.219-0.188 0.395-0.253 0.525-0.14 0.278-0.285 0.566-0.656 0.704-0.004 0.001-0.007 0.003-0.010 0.004-0.043 0.018-0.108 0.046-0.192 0.069l5.652 5.652 15.115-15.115-6.001-6.001c-0.853 0.606-1.36 1.221-1.726 1.834z"></path>
<path d="M16 4.445l1.596 1.596c0.070-0.016 0.142-0.025 0.212-0.025 0.095 0 0.188 0.014 0.278 0.041 0.13-0.083 0.264-0.16 0.401-0.234 0.551-0.294 1.15-0.508 1.782-0.668l-4.27-4.27-15.115 15.115 8.003 8.003c-0.004-0.079-0.003-0.17 0.007-0.281 0.002-0.028 0.006-0.055 0.011-0.081 0.139-0.923 0.385-1.742 0.667-2.513l-5.128-5.128 11.555-11.555z"></path>
</symbol>
<symbol id="icon-electro" viewBox="0 0 32 32">
<path d="M16.075 1.749c1.902 0.008 3.833 0.312 5.586 1.077 2.407 1.048 4.524 2.741 6.099 4.843 0.394 0.549 0.743 1.129 1.070 1.716 0.713 1.419 1.233 2.942 1.426 4.524-0.446-0.721-0.817-1.486-1.285-2.191-0.728-1.107-1.589-2.169-2.741-2.86 0.327 1.084 0.572 2.206 0.638 3.342 0.067 0.869-0.044 1.746-0.2 2.6-0.282 1.054-0.706 2.088-1.389 2.949-0.862 1.099-2.11 1.827-3.402 2.31 0.357-0.735 0.661-1.575 0.46-2.399-0.305-0.936-1.166-1.627-2.11-1.85-0.846-0.216-1.723 0.014-2.51 0.341-2.035 0.876-3.142 3.358-2.6 5.482 0.319 1.404 1.189 2.682 2.399 3.469 1.597 1.062 3.662 1.211 5.482 0.706 1.545-0.46 3.045-1.099 4.382-2.005 0.327-0.208 0.632-0.446 0.958-0.646-0.906 1.582-2.139 2.986-3.588 4.101-1.397 1.070-3.001 1.864-4.687 2.385-0.891 0.282-1.82 0.401-2.734 0.557-0.914 0.059-1.835 0.082-2.741-0.015-1.226-0.111-2.429-0.424-3.573-0.869-0.097-0.044-0.193-0.089-0.29-0.141 1.040 0.059 2.080 0 3.12-0.030 1.151-0.104 2.296-0.371 3.342-0.884-0.676-0.111-1.33-0.349-1.969-0.587-1.048-0.394-2.065-0.899-2.942-1.597-1.181-0.921-2.080-2.199-2.518-3.633-0.312-1.129-0.341-2.325-0.126-3.477 0.089 0.171 0.149 0.357 0.282 0.498 0.357 0.401 0.728 0.824 1.248 1.003 0.862 0.319 1.805 0 2.533-0.483 0.721-0.579 1.129-1.478 1.285-2.37 0.171-0.981 0.030-2.028-0.475-2.897-0.676-1.189-1.797-2.184-3.15-2.496-1.144-0.267-2.37-0.216-3.477 0.193-1.114 0.438-2.11 1.196-2.778 2.199-0.981 1.441-1.411 3.194-1.53 4.91-0.104 1.166-0.133 2.347 0.052 3.506-1.196-2.058-1.82-4.435-1.88-6.812-0.022-1.582 0.267-3.157 0.728-4.673 0.312-1.018 0.75-1.998 1.307-2.904 0.944-1.499 2.081-2.903 3.537-3.935-0.884 1.523-1.894 3.009-2.296 4.747-0.111 0.43-0.141 0.876-0.2 1.322 0.876-0.929 1.842-1.783 2.934-2.444 1.448-0.854 3.15-1.367 4.843-1.181 1.478 0.141 2.867 0.787 4.019 1.716 0.045 0.037 0.089 0.082 0.119 0.133-0.23-0.104-0.483-0.014-0.721 0.014-0.632 0.149-1.307 0.357-1.708 0.899-0.565 0.765-0.646 1.82-0.312 2.696 0.26 0.765 0.817 1.404 1.47 1.864 1.010 0.721 2.318 1.003 3.536 0.773 1.122-0.186 2.177-0.787 2.912-1.656 0.698-0.802 1.151-1.805 1.337-2.853 0.163-1.3-0.022-2.667-0.676-3.811-0.988-1.857-2.718-3.164-4.494-4.204-0.669-0.341-1.3-0.741-2.006-0.972v0z"></path>
</symbol>
<symbol id="icon-promote" viewBox="0 0 32 32">
<path d="M16.439 1.503c3.188 9.748 4.355 10.873 14.059 14.055 0.425 0.14 0.425 0.741-0 0.88-9.749 3.189-10.874 4.356-14.056 14.060-0.139 0.425-0.741 0.425-0.88-0-3.189-9.749-4.356-10.874-14.060-14.056-0.425-0.14-0.425-0.741 0-0.88 9.749-3.189 10.874-4.356 14.057-14.059 0.139-0.425 0.741-0.425 0.88 0z"></path>
</symbol>
<symbol id="icon-liyue-vision" viewBox="0 0 32 32">
<path d="M26.505 11.792l-0.728 0.728-1.108-1.108 0.095-2.278-2.025-1.93h-2.057l-1.202-0.949 0.854-0.854-4.272-4.303-4.461 4.177 1.044 0.886-0.949 1.108h-2.12l-2.341 2.341 0.032 1.867-0.791 0.823-0.823-0.696-4.62 4.366 4.556 4.43 0.886-0.854 0.823 0.917-0.032 2.373 2.215 2.278 2.436-0.063 0.791 0.854-0.759 0.823 3.987 4.177 4.366-4.176-0.886-0.917 0.57-0.696h2.816l2.246-2.088 0.032-3.037 0.601-0.633 1.044 1.044 4.24-4.272-4.461-4.335zM15.968 27.359l-11.517-11.296 11.486-11.454 11.391 11.454-11.359 11.296z"></path>
<path d="M26.729 20.565l-0.414-0.414v3.031l-3.164 3.196-2.946-0.014 0.357 0.37-2.3 2.2 4.983-0.023 5.601-5.411 0.012-5.078zM12.069 26.33l-2.967-0.014-3.438-3.275 0.032-2.56-0.103 0.085-2.132-2.073-0.022 4.848 5.664 5.632 4.711-0.022-2.116-2.217zM20.007 5.994l3.207 0.008 3.101 2.911v2.823l0.192-0.193 2.36 2.293 0.011-4.575-5.664-5.759-4.533-0.022 1.913 1.927zM5.888 8.896l2.929-2.926 3.353 0.008-0.821-0.697 1.947-1.822-4.13-0.020-5.664 5.759-0.020 4.243 2.174-2.055 0.232 0.203v-2.692z"></path>
</symbol>
<symbol id="icon-mondstadt-vision" viewBox="0 0 32 32">
<path d="M5.393 26.378s1.687-0.652 2.433-1.342c0.745-0.69 0.986-1.373 1.085-1.376s1.28 0.65 1.348 0.805c0.219 0.5-0.311 0.484-0.296 0.839 0.025 0.608 0.404 0.805 0.033 1.309-0.139 0.188-0.897 0.176-2.17 0.268-1.432 0.104-2.433-0.503-2.433-0.503zM11.376 25.27c0.415-0.149 0.864 0.098 1.019 0.336s0.29 1.133 0.099 1.342c-0.534 0.582-1.685 0.351-1.775 0.268s0.592-0.135 0.756-0.47c0.164-0.335-0.789-0.372-0.493-0.973 0.204-0.414-0.020-0.354 0.395-0.504zM15.419 25.572s0.459 0.086 0.592 0.101c0.133 0.015 0.625-0.067 0.625-0.067l-0.657 1.141-0.559-1.175zM12.231 28.794s0.914-0.711 1.216-1.074c0.302-0.362 0.657-0.973 0.657-0.973s0.744 0.632 0.953 0.94c0.209 0.308 0.286 0.592 0.197 0.906s-1.026 0.93-1.249 0.906-0.586-0.401-0.986-0.436c-0.4-0.036-0.788-0.269-0.788-0.269zM19.812 28.794s-0.914-0.711-1.216-1.074c-0.302-0.362-0.657-0.973-0.657-0.973s-0.744 0.632-0.953 0.94c-0.209 0.308-0.286 0.592-0.197 0.906s1.026 0.93 1.249 0.906c0.223-0.024 0.586-0.401 0.986-0.436s0.789-0.269 0.789-0.269z"></path>
<path d="M26.832 21.243c-0.973-0.827-1.479-1.915-1.719-2.6 0.621-1.894 0.613-4.181-0.020-6.070l0.852-3.779-3.155-0.031c-0.274-0.28-0.564-0.543-0.868-0.787l-0.019-0.015 0.146-3.279s-0.927 0.772-1.611 1.174c-0.422 0.248-0.852 0.471-1.162 0.624-0.277-0.107-0.628-0.216-0.987-0.305l-0.064-0.013c-0.47-1.474-1.881-5.821-2.181-5.827-0.315-0.006-1.899 4.65-2.305 5.858-0.337 0.085-0.668 0.189-0.99 0.31-0.311-0.154-0.748-0.379-1.176-0.631-0.684-0.402-1.611-1.174-1.611-1.174l0.148 3.323c-0.272 0.221-0.532 0.456-0.778 0.706l-3.249 0.032 0.881 3.907c-0.588 1.82-0.602 4.004-0.034 5.834-0.854 3.102-4.72 4.737-6.007 4.991 0 0 1.587 1.495 3.682 1.51s3.038-0.374 3.123-0.705c0.085-0.331-1.186-1.244-0.559-1.846 0.386-0.37 1.18-0.399 1.734-0.367 1.33 1.534 3.126 2.637 5.163 3.076l1.88 2.996 1.982-2.976c2.078-0.425 3.912-1.54 5.262-3.101 0.547-0.023 1.273 0.022 1.637 0.372 0.627 0.602-0.644 1.515-0.559 1.846s1.028 0.72 3.123 0.705 3.68-1.511 3.68-1.511-2.032-0.373-4.24-2.248zM16.044 2.786s0.828 2.786 0.756 2.886c-0.072 0.1-1.461 0.077-1.545-0.034s0.789-2.852 0.789-2.852zM7.365 11.008l-0.164-1.309 0.953 0.067s-0.301 0.357-0.46 0.571c-0.159 0.213-0.329 0.671-0.329 0.671zM16.044 24.083c-4.568 0-8.271-3.78-8.271-8.444 0.438-11.202 16.106-11.198 16.542 0 0 4.663-3.703 8.444-8.271 8.444zM24.663 11.043s-0.17-0.458-0.329-0.671c-0.159-0.213-0.46-0.571-0.46-0.571l0.953-0.067-0.164 1.309z"></path>
<path d="M26.602 26.378s-1.687-0.652-2.433-1.342c-0.745-0.69-0.986-1.373-1.085-1.376s-1.28 0.65-1.348 0.805c-0.219 0.5 0.311 0.484 0.296 0.839-0.025 0.608-0.404 0.805-0.033 1.309 0.139 0.188 0.897 0.176 2.17 0.268 1.432 0.104 2.433-0.503 2.433-0.503zM20.619 25.27c-0.415-0.149-0.864 0.098-1.019 0.336s-0.29 1.133-0.099 1.342c0.534 0.582 1.685 0.351 1.775 0.268s-0.592-0.135-0.756-0.47c-0.164-0.335 0.789-0.372 0.493-0.973-0.204-0.414 0.020-0.354-0.395-0.504zM16.63 29.196c-0.098 0.034-0.181 0.15-0.257 0.268-0.103 0.139-0.204 0.283-0.283 0.3-0.079-0.017-0.18-0.161-0.283-0.3-0.076-0.118-0.159-0.234-0.257-0.268-0.221-0.077-0.895 0.661-0.824 0.889 0.019 0.061 0.384 0.359 0.622 0.604 0.057 0.068 0.104 0.132 0.131 0.185 0.138 0.269 0.411 0.805 0.611 0.805s0.473-0.537 0.611-0.805c0.028-0.054 0.074-0.117 0.131-0.185 0.238-0.245 0.604-0.543 0.622-0.604 0.071-0.228-0.603-0.967-0.824-0.889z"></path>
</symbol>
<symbol id="icon-anemo" viewBox="0 0 32 32">
<path d="M10.149 2.088c0.366-0.175 0.731-0.343 1.105-0.495-0.457 0.815-0.861 1.669-1.036 2.59-0.061 0.381-0.16 0.762-0.198 1.143-0.091 0.899 0.008 1.806 0.198 2.682 0.297 1.333 0.716 2.651 1.402 3.84 0.571 1.013 1.333 1.905 2.225 2.651 0.282 0.244 0.602 0.457 0.861 0.731-0.701-0.183-1.387-0.411-2.065-0.648-1.333-0.48-2.667-1.059-3.756-1.981-1.051-0.899-1.867-2.118-2.118-3.49-0.206-1.067-0.221-2.194 0.145-3.23 0.168-0.526 0.366-1.051 0.686-1.509 0.632-0.975 1.57-1.699 2.552-2.286z"></path>
<path d="M20.762 1.6c1.067 0.427 2.095 1.029 2.91 1.844 0.838 0.838 1.379 1.943 1.623 3.093 0.16 1.143 0.145 2.331-0.244 3.429-0.693 1.76-2.21 3.070-3.878 3.901-1.029 0.518-2.149 0.808-3.238 1.181-0.213 0.076-0.427 0.13-0.655 0.16 0.907-0.678 1.73-1.463 2.408-2.37 1.432-1.912 2.248-4.282 2.301-6.667 0.030-1.044-0.19-2.072-0.518-3.055-0.16-0.533-0.457-1.013-0.709-1.516z"></path>
<path d="M3.855 8.099c0.251-0.815 0.579-1.608 1.021-2.331 0.137 1.021 0.29 2.050 0.64 3.025 0.366 1.051 0.922 2.027 1.585 2.918 0.335 0.45 0.678 0.899 1.12 1.242 0.914 0.716 1.905 1.318 2.933 1.859 1.013 0.503 2.042 1.013 2.956 1.699 0.853 0.64 1.661 1.47 1.897 2.545 0.076-0.594 0.427-1.112 0.815-1.554 0.61-0.678 1.349-1.242 2.141-1.691 1.455-0.83 3.025-1.455 4.366-2.461 0.61-0.457 1.105-1.036 1.57-1.638 0.968-1.242 1.684-2.705 1.958-4.259 0.122-0.549 0.221-1.105 0.305-1.661 0.335 0.701 0.709 1.394 0.914 2.149 0.381 1.318 0.625 2.75 0.221 4.091-0.206 0.648-0.564 1.242-1.006 1.752-0.952 0.998-2.255 1.608-3.581 1.935-0.625 0.114-1.25 0.206-1.874 0.32-0.93 0.198-1.882 0.366-2.72 0.83-1.090 0.533-2.019 1.448-2.469 2.59-0.343 0.83-0.267 1.829 0.236 2.583 0.549 0.8 1.448 1.356 2.408 1.493 0.297-0.114 0.526-0.366 0.83-0.472 0.381-0.099 0.77 0.015 1.135 0.122-0.632 0.67-1.31 1.303-1.95 1.966-1.41 1.554-2.339 3.451-3.276 5.31-0.838-1.531-1.592-3.124-2.659-4.526-0.747-1.021-1.745-1.813-2.598-2.743 0.32-0.091 0.64-0.229 0.975-0.16 0.358 0.084 0.648 0.32 0.952 0.51 0.51-0.114 1.036-0.236 1.47-0.541 0.693-0.442 1.25-1.15 1.379-1.973 0.145-0.907-0.198-1.829-0.709-2.56-0.442-0.64-1.090-1.090-1.745-1.478-0.739-0.442-1.577-0.663-2.408-0.853-1.196-0.259-2.446-0.29-3.589-0.77-1.211-0.465-2.324-1.28-2.956-2.43-0.472-0.876-0.754-1.882-0.64-2.88 0.091-0.655 0.16-1.318 0.35-1.958zM13.737 24.518c0.411 0.114 0.853 0.137 1.265 0.038 0.396-0.091 0.709-0.358 0.99-0.632 0.541 0.648 1.486 0.891 2.278 0.594-0.998-0.259-1.958-0.945-2.278-1.966-0.297 1.021-1.257 1.722-2.255 1.966zM14.758 25.76c0.457 0.686 0.884 1.387 1.25 2.126 0.389-0.724 0.731-1.486 1.265-2.126-0.495-0.16-0.891-0.495-1.288-0.815-0.358 0.343-0.77 0.625-1.227 0.815z"></path>
<path d="M1.798 11.703c0.518 0.701 0.968 1.455 1.524 2.133 0.785 0.922 1.699 1.752 2.773 2.324 0.701 0.32 1.463 0.488 2.217 0.632 0.937 0.038 1.89-0.137 2.811 0.122 1.143 0.282 2.301 0.838 2.949 1.867 0.693 1.036 0.51 2.568-0.427 3.398-0.579 0.518-1.531 0.541-2.156 0.091-0.297-0.213-0.411-0.617-0.274-0.952 0.655-0.008 1.341-0.137 1.89-0.51 0.328-0.213 0.465-0.617 0.495-0.99 0.076-0.853-0.632-1.707-1.493-1.76-0.701-0.061-1.303 0.343-1.92 0.617-1.12 0.465-2.255 0.937-3.459 1.128-1.234 0.099-2.499-0.328-3.436-1.143-1.288-1.105-1.829-2.827-1.928-4.472-0.030-0.861 0.152-1.699 0.434-2.484z"></path>
<path d="M28.67 13.821c0.556-0.678 1.021-1.417 1.539-2.118 0.434 1.166 0.526 2.461 0.274 3.68-0.305 1.448-1.082 2.85-2.339 3.68-0.846 0.518-1.867 0.785-2.865 0.709-0.731-0.107-1.448-0.305-2.141-0.564-0.571-0.244-1.135-0.488-1.707-0.739-0.396-0.19-0.8-0.404-1.25-0.434-0.648-0.038-1.326 0.305-1.623 0.891-0.328 0.617-0.183 1.478 0.381 1.912 0.556 0.358 1.242 0.411 1.882 0.48 0.046 0.343-0.038 0.716-0.32 0.937-0.45 0.366-1.082 0.373-1.615 0.213-0.312-0.076-0.549-0.305-0.762-0.533-0.442-0.495-0.648-1.181-0.594-1.836 0.084-0.968 0.625-1.905 1.463-2.408 0.922-0.587 2.011-0.907 3.101-0.96 0.64-0.046 1.288 0.137 1.92-0.023 0.61-0.107 1.219-0.267 1.783-0.533 1.15-0.503 2.095-1.379 2.872-2.354z"></path>
</symbol>
<symbol id="icon-cryo" viewBox="0 0 32 32">
<path d="M15.959 0.037c0.683 1.424 1.358 2.857 2.157 4.223 0.667 1.144 1.391 2.256 2.124 3.359-0.478-0.132-0.938-0.296-1.383-0.502-1.63 2.14-2.585 4.758-2.898 7.426-0.313-2.667-1.268-5.285-2.898-7.426-0.453 0.206-0.914 0.37-1.383 0.502 0.988-1.49 1.968-2.997 2.799-4.586 0.519-0.98 0.996-1.992 1.482-2.997zM14.403 6.351c0.823 1.54 1.35 3.244 1.556 4.981 0.206-1.737 0.733-3.433 1.556-4.972-0.593-0.428-1.128-0.93-1.556-1.523-0.428 0.576-0.963 1.087-1.556 1.515z"></path>
<path d="M2.103 8.039c1.696 0.124 3.392 0.272 5.096 0.239 1.21-0.008 2.412-0.082 3.622-0.156-0.354 0.346-0.724 0.667-1.128 0.947 1.037 2.486 2.824 4.618 4.981 6.216-2.462-1.054-5.203-1.54-7.879-1.202-0.049 0.486-0.14 0.972-0.263 1.449-0.799-1.597-1.605-3.194-2.56-4.709-0.609-0.938-1.243-1.861-1.869-2.783zM6.253 10.435c0.296 0.667 0.461 1.383 0.535 2.108 1.745 0.049 3.482 0.453 5.088 1.136-1.4-1.046-2.61-2.346-3.532-3.836-0.667 0.305-1.367 0.51-2.091 0.593z"></path>
<path d="M21.104 8.121c1.968 0.124 3.952 0.222 5.927 0.107 0.93-0.058 1.861-0.124 2.791-0.198-0.832 1.227-1.688 2.437-2.429 3.721-0.724 1.227-1.367 2.503-2 3.779-0.124-0.478-0.206-0.963-0.255-1.449-2.676-0.346-5.417 0.14-7.879 1.202 2.157-1.597 3.943-3.738 4.981-6.216-0.403-0.28-0.782-0.601-1.136-0.947zM20.042 13.687c1.605-0.683 3.342-1.087 5.088-1.136 0.074-0.724 0.239-1.441 0.543-2.108-0.724-0.082-1.432-0.288-2.099-0.593-0.922 1.482-2.132 2.783-3.532 3.836z"></path>
<path d="M13.506 11.752c0.552 0.247 1.087 0.519 1.646 0.741 0.379 1.070 0.584 2.182 0.823 3.285 0.23-1.103 0.453-2.215 0.807-3.285 0.543-0.255 1.095-0.502 1.646-0.741 0.058 0.601 0.099 1.202 0.181 1.803-0.741 0.856-1.597 1.597-2.437 2.346 1.062-0.346 2.124-0.708 3.219-0.938 0.519 0.305 0.996 0.708 1.498 1.054-0.494 0.354-0.996 0.683-1.465 1.054-1.111-0.214-2.182-0.584-3.26-0.93 0.84 0.749 1.688 1.498 2.445 2.338-0.049 0.601-0.115 1.202-0.181 1.803-0.552-0.247-1.087-0.519-1.646-0.741-0.387-1.062-0.584-2.19-0.832-3.293-0.23 1.103-0.453 2.215-0.807 3.285-0.552 0.255-1.095 0.502-1.655 0.749-0.058-0.601-0.091-1.202-0.181-1.803 0.741-0.856 1.597-1.597 2.437-2.354-1.070 0.354-2.14 0.716-3.244 0.947-0.494-0.346-0.988-0.7-1.474-1.054 0.494-0.354 0.996-0.692 1.474-1.054 1.111 0.214 2.182 0.584 3.252 0.93-0.84-0.749-1.696-1.498-2.445-2.338 0.074-0.601 0.132-1.202 0.198-1.803z"></path>
<path d="M6.524 16.543c0.124 0.478 0.214 0.963 0.263 1.449 2.676 0.338 5.417-0.14 7.879-1.202-2.149 1.597-3.943 3.738-4.981 6.224 0.403 0.288 0.774 0.609 1.128 0.955-1.968-0.132-3.943-0.222-5.919-0.115-0.93 0.058-1.861 0.115-2.791 0.198 0.782-1.136 1.564-2.272 2.272-3.458 0.782-1.317 1.474-2.684 2.149-4.050zM6.788 19.54c-0.074 0.724-0.247 1.441-0.535 2.108 0.724 0.074 1.432 0.288 2.099 0.584 0.922-1.49 2.132-2.791 3.532-3.836-1.614 0.692-3.351 1.087-5.096 1.144z"></path>
<path d="M25.13 17.992c0.049-0.486 0.132-0.971 0.255-1.449 0.626 1.243 1.243 2.494 1.951 3.696 0.757 1.309 1.622 2.56 2.478 3.803-1.367-0.107-2.733-0.214-4.108-0.239-1.54-0.025-3.071 0.058-4.61 0.156 0.354-0.346 0.724-0.667 1.128-0.947-1.037-2.486-2.832-4.618-4.981-6.224 2.47 1.062 5.219 1.54 7.887 1.202zM20.042 18.396c1.4 1.046 2.61 2.355 3.532 3.836 0.667-0.296 1.367-0.51 2.099-0.584-0.296-0.667-0.461-1.383-0.535-2.108-1.754-0.058-3.491-0.453-5.096-1.144z"></path>
<path d="M13.061 24.957c1.638-2.14 2.585-4.758 2.906-7.426 0.305 2.667 1.268 5.285 2.89 7.426 0.445-0.206 0.914-0.37 1.383-0.502-0.774 1.152-1.523 2.322-2.223 3.524-0.757 1.317-1.408 2.692-2.066 4.059-0.576-1.21-1.152-2.429-1.803-3.598-0.757-1.367-1.614-2.684-2.478-3.985 0.478 0.132 0.947 0.305 1.391 0.502zM14.403 25.731c0.593 0.428 1.128 0.93 1.556 1.523 0.428-0.593 0.972-1.095 1.556-1.523-0.823-1.54-1.35-3.235-1.556-4.972-0.214 1.737-0.733 3.433-1.556 4.972z"></path>
</symbol>
<symbol id="icon-dendro" viewBox="0 0 32 32">
<path d="M16.076 9.539c4.104-2.073 1.476-5.26 0-7.428-1.49 2.183-4.095 5.359 0 7.428zM17.935 20.935s2.108-0.878 3.768-2.283c0.47-0.057 1.083-0.109 1.472-0.058 0.763 0.102 1.272 0.153 1.272 0.153s-1.111-0.667-1.897-0.912c3.718-4.34-2.104-7.279-4.615-4.429 1.062-0.087 3.612 0.036 3.357 2.696-0.071 1.841-3.357 4.833-3.357 4.833zM12.186 13.711c1.354-0.478 2.137-0.305 2.137-0.305-2.52-2.852-8.33 0.096-4.615 4.429-0.785 0.245-1.897 0.912-1.897 0.912s0.509-0.051 1.272-0.153c0.389-0.052 1.002 0.001 1.472 0.058 1.66 1.404 3.768 2.283 3.768 2.283s-3.287-2.992-3.358-4.833c-0.051-1.322 0.356-2.085 1.221-2.391zM28.364 10.506c0.814-0.407 1.577-2.696 1.577-2.696-1.635-0.009-4.167-0.163-3.968 2.645 0 0 1.577 0.458 2.391 0.051zM28.974 16.763c-0.814 0-1.475 0.967-1.475 0.967 1.263 1.394 2.223 0.94 3.51 0 0-0-1.221-0.967-2.035-0.967zM3.636 10.506c0.814 0.407 2.391-0.051 2.391-0.051 0.202-2.816-2.356-2.653-3.968-2.645 0 0 0.763 2.29 1.577 2.696zM3.026 16.763c-0.814 0-2.035 0.967-2.035 0.967 1.298 0.949 2.252 1.386 3.51 0 0-0-0.661-0.967-1.475-0.967z"></path>
<path d="M25.707 10.538c-3.132-3.183-7.48-2.058-9.256-0.019-0.302 0.314-0.291 0.813 0.023 1.115s0.813 0.291 1.115-0.023c3.21-3.567 9.717-0.322 8.268 5.326-0.609 2.615-3.138 4.922-5.281 5.943-1.94 0.691-3.801 1.942-4.576 3.177-0.779-1.24-2.634-2.484-4.576-3.177-2.143-1.021-4.672-3.328-5.281-5.943-0.806-3.545 1.088-6.264 4.385-6.823 3.123-0.402 3.805 2.523 4.998 1.52 0.314-0.301 0.324-0.801 0.023-1.115-0.096-0.1-2.373-2.433-5.274-1.962-9.544 2.089-6.276 12.927 0.686 15.847 1.492 0.52 3.935 2.435 4.238 3.436 0.189 0.313 0.674 1.673 0.799 2.048 0 0 0.001-0.002 0.001-0.004 0.001 0.003 0.001 0.004 0.001 0.004 0.81-2.772 2.009-4.106 5.037-5.484 4.696-1.717 9.456-9.766 4.668-13.866z"></path>
</symbol>
<symbol id="icon-geo" viewBox="0 0 32 32">
<path d="M11.314 4.526c1.516-1.379 3.093-2.682 4.724-3.916 2.629 1.95 5.082 4.13 7.398 6.43 2.674 2.705 5.211 5.623 7.040 8.975-0.846 1.539-1.95 2.91-3.139 4.198-0.838-2.583-2.027-5.036-3.383-7.375-1.531-2.621-3.291-5.097-5.181-7.459-0.891-1.128-1.844-2.217-2.758-3.33-1.333 1.478-2.629 2.994-3.787 4.61-1.227 1.722-2.316 3.596-2.804 5.676 2.21-1.806 4.373-3.665 6.56-5.501 2.476 2.301 4.556 5.036 6.088 8.046-0.427 0.556-0.945 1.036-1.47 1.509-1.196 1.067-2.461 2.050-3.749 3.002-0.472-0.411-0.846-0.922-1.189-1.44 1.204-1.105 2.354-2.27 3.52-3.421-0.198-0.686-0.564-1.318-0.968-1.897-0.625-0.891-1.402-1.669-2.24-2.362-0.579 0.236-1.097 0.594-1.608 0.945-1.25 0.899-2.415 1.897-3.55 2.933-0.808 0.747-1.615 1.501-2.316 2.354-1.135-1.935-2.034-4.038-2.415-6.255 1.47-2.126 3.322-3.97 5.227-5.722z"></path>
<path d="M1.6 16.053c0.846-1.539 1.958-2.91 3.139-4.198 1.059 3.246 2.651 6.301 4.48 9.173 1.57 2.453 3.322 4.777 5.189 7.010 0.556 0.663 1.12 1.318 1.661 1.981 1.524-1.699 3.010-3.429 4.282-5.326 1.013-1.524 1.89-3.17 2.309-4.96-2.156 1.76-4.267 3.573-6.4 5.364-0.069 0.038-0.145 0.183-0.221 0.076-1.737-1.608-3.253-3.451-4.549-5.425-0.541-0.823-1.029-1.684-1.478-2.568 0.427-0.556 0.945-1.036 1.47-1.509 1.196-1.059 2.461-2.050 3.741-3.002 0.472 0.411 0.853 0.922 1.189 1.44-1.204 1.105-2.354 2.27-3.52 3.413 0.206 0.686 0.564 1.318 0.968 1.897 0.625 0.891 1.402 1.669 2.232 2.362 0.579-0.229 1.097-0.594 1.608-0.945 1.577-1.143 3.048-2.43 4.457-3.779 0.488-0.48 0.975-0.968 1.41-1.501 0.48 0.785 0.884 1.608 1.25 2.453 0.518 1.227 0.96 2.491 1.166 3.81-1.189 1.745-2.644 3.276-4.152 4.739-1.836 1.752-3.771 3.39-5.798 4.914-2.118-1.585-4.13-3.307-6.050-5.128-2.179-2.072-4.244-4.267-6.050-6.674-0.846-1.15-1.646-2.354-2.331-3.619z"></path>
</symbol>
<symbol id="icon-hydro" viewBox="0 0 32 32">
<path d="M12.305 3.093c2.24-0.602 4.632-0.678 6.895-0.13 2.316 0.61 4.518 1.768 6.217 3.467 1.036 1.029 1.89 2.232 2.56 3.528 0.549 1.067 1.021 2.187 1.242 3.375 0.35 1.829 0.381 3.741-0.046 5.562-0.328 1.699-1.067 3.299-2.050 4.716-0.884 1.326-2.057 2.43-3.337 3.368-1.394 1.006-2.979 1.745-4.655 2.133-1.691 0.419-3.459 0.457-5.181 0.229-0.907-0.175-1.821-0.358-2.69-0.693-1.28-0.541-2.362-1.463-3.238-2.53 0.335 0.137 0.64 0.328 0.96 0.48 1.455 0.716 2.994 1.288 4.61 1.493 1.303 0.16 2.636 0.29 3.939 0.030 1.661-0.35 3.177-1.318 4.198-2.667 1.090-1.394 1.608-3.208 1.501-4.968-0.16-1.851-1.021-3.65-2.423-4.876-1.12-0.998-2.568-1.6-4.053-1.775-0.891-0.13-1.806-0.046-2.667 0.213-0.488 0.137-1.021 0.29-1.516 0.114-0.937-0.312-1.478-1.463-1.112-2.385 0.168-0.48 0.571-0.846 1.044-1.036 1.669-0.693 3.55-0.846 5.318-0.518 1.813 0.404 3.55 1.272 4.853 2.606 1.478 1.516 2.499 3.52 2.682 5.646 0.084 0.93 0.046 1.867-0.13 2.773-0.51 2.446-2.019 4.67-4.122 6.019-0.549 0.274-1.044 0.678-1.653 0.823-0.023 0.023-0.061 0.053-0.076 0.076 0.67-0.198 1.318-0.495 1.928-0.846 1.074-0.61 2.072-1.364 2.888-2.293 2.126-2.392 3.109-5.752 2.613-8.914-0.251-1.608-0.846-3.17-1.783-4.503-1.105-1.585-2.659-2.819-4.358-3.71-1.813-0.838-3.855-1.158-5.836-0.983-1.844 0.213-3.627 0.922-5.15 1.989-0.83 0.579-1.577 1.28-2.171 2.095-0.282 0.396-0.602 0.823-1.097 0.968-0.8 0.236-1.745-0.069-2.248-0.731-0.328-0.427-0.328-1.021-0.145-1.501 0.32-0.876 0.952-1.577 1.516-2.301 1.714-2.133 4.175-3.558 6.773-4.343z"></path>
<path d="M4.076 14.446c1.143-0.267 2.27 0.869 2.126 2.004-0.091 1.051-1.234 1.851-2.255 1.592-0.785-0.183-1.402-0.922-1.432-1.737-0.023-0.884 0.678-1.737 1.562-1.859z"></path>
<path d="M11.116 22.019c0.183-2.133 1.996-3.985 4.114-4.251 0.411-0.046 0.823-0.084 1.234-0.015 1.166 0.076 2.27 0.663 3.048 1.516 0.457 0.495 0.716 1.135 0.891 1.775 0.145 0.549 0.122 1.15-0.152 1.653-0.19 0.343-0.442 0.693-0.823 0.846-0.648 0.312-1.478 0.107-1.928-0.45-0.381-0.45-0.465-1.051-0.716-1.57-0.335-0.693-1.227-0.922-1.935-0.762-0.503 0.076-0.914 0.404-1.295 0.724-0.427 0.366-0.731 0.884-0.792 1.448-0.122 0.884 0.152 1.806 0.739 2.476 0.716 0.846 1.829 1.31 2.933 1.28 1.051-0.008 2.034-0.51 2.857-1.143 0.267-0.236 0.51-0.503 0.808-0.709-0.427 0.8-1.135 1.44-1.92 1.89-1.059 0.602-2.362 0.731-3.535 0.419-0.922-0.274-1.783-0.8-2.408-1.531-0.846-0.968-1.227-2.309-1.12-3.596z"></path>
<path d="M6.438 20.93c0.419-0.107 0.899-0.015 1.219 0.282 0.442 0.404 0.549 1.128 0.236 1.638-0.213 0.366-0.625 0.594-1.036 0.625-0.587 0.023-1.15-0.396-1.318-0.96-0.198-0.655 0.236-1.425 0.899-1.585z"></path>
</symbol>
<symbol id="icon-pyro" viewBox="0 0 32 32">
<path d="M15.726 1.669c0.358 0.305 0.61 0.701 0.891 1.082 0.579 0.853 1.227 1.684 1.57 2.674 0.175 0.51 0.259 1.090 0.030 1.592-0.244 0.571-0.739 0.99-1.211 1.371-0.571 0.457-1.029 1.044-1.379 1.684-0.381 0.686-0.579 1.531-0.32 2.293 0.297 0.77 0.907 1.394 1.615 1.798-0.518-0.51-0.983-1.143-1.044-1.89-0.091-0.998 0.427-1.928 1.044-2.667 0.594-0.709 1.341-1.257 2.133-1.73-0.206 0.823-0.457 1.638-0.571 2.476-0.16 1.272 0.236 2.552 0.907 3.627 0.549 0.876 1.25 1.653 2.019 2.347-0.046-0.67-0.457-1.234-0.853-1.737-0.617-0.754-0.907-1.775-0.754-2.735 0.122-0.724 0.526-1.364 0.899-1.981 0.145-0.213 0.282-0.45 0.51-0.587 0.038 0.236 0.076 0.472 0.145 0.701 0.282 0.937 0.655 1.851 1.234 2.644 0.61 0.853 1.41 1.539 2.217 2.194 0.907 0.701 1.585 1.646 2.171 2.621 0.625 1.105 1.074 2.43 0.724 3.695-0.343 1.135-1.143 2.072-2.050 2.811-0.815 0.655-1.684 1.242-2.59 1.76-1.242 0.709-2.537 1.333-3.703 2.171-0.709 0.495-1.379 1.044-2.057 1.585-0.358 0.29-0.655 0.64-1.021 0.914-0.091 0-0.145-0.084-0.213-0.13-0.891-0.77-1.844-1.463-2.789-2.164-0.564-0.404-1.12-0.823-1.722-1.173-0.754-0.45-1.539-0.853-2.293-1.295-1.242-0.716-2.499-1.425-3.627-2.309-0.815-0.602-1.371-1.562-1.432-2.583-0.038-0.526 0.099-1.036 0.229-1.539 0.366-1.341 1.051-2.575 1.867-3.688 1.211-1.684 2.682-3.177 3.672-5.006 0.183-0.32 0.32-0.67 0.488-0.998-0.015 1.059 0.335 2.126 1.044 2.918 1.029 1.173 2.484 1.844 3.901 2.423 0.251 0.107 0.526 0.183 0.77 0.32-1.585-0.008-3.208 0.434-4.434 1.455-1.158 0.922-1.882 2.331-2.034 3.794-0.107 0.952 0.175 1.905 0.686 2.705 0.236 0.389 0.564 0.716 0.853 1.074-0.587-0.152-1.067-0.549-1.57-0.876-1.128-0.77-2.171-1.829-2.53-3.185-0.32-1.135 0-2.347 0.564-3.352 0.251-0.472 0.602-0.876 0.922-1.303-0.427 0.137-0.754 0.465-1.105 0.724-0.792 0.617-1.463 1.44-1.752 2.415-0.297 0.998-0.137 2.095 0.328 3.010 0.366 0.67 0.93 1.219 1.547 1.653 0.96 0.678 2.042 1.15 3.055 1.73 0.739 0.404 1.493 0.792 2.232 1.196 1.135 0.571 2.141 1.356 3.185 2.072 1.036-0.678 2.065-1.371 3.101-2.050 1.463-0.899 3.025-1.63 4.495-2.522 0.884-0.518 1.813-1.074 2.385-1.95 0.45-0.716 0.754-1.57 0.625-2.415-0.13-0.93-0.686-1.737-1.356-2.37-0.427-0.404-0.899-0.747-1.41-1.021 0.472 1.074 0.876 2.21 0.907 3.398 0.061 1.288-0.48 2.552-1.333 3.505-1.105 1.234-2.621 2.034-4.19 2.514-0.884 0.274-1.821 0.396-2.75 0.389-0.998 0-1.973-0.259-2.895-0.64-0.785-0.335-1.562-0.8-2.057-1.516-0.427-0.602-0.564-1.425-0.297-2.118 0.259-0.701 0.891-1.242 1.623-1.41 0.465-0.122 0.945-0.030 1.417 0.023 0.13 0.008 0.259 0.046 0.381 0.107-0.61 0.35-1.143 0.891-1.364 1.577-0.274 0.747-0.168 1.63 0.32 2.27 0.45 0.579 1.181 0.838 1.874 0.983 1.28 0.259 2.606-0.015 3.802-0.518 1.013-0.427 1.95-1.15 2.423-2.164 0.526-1.044 0.465-2.286 0.099-3.368-0.145-0.411-0.328-0.823-0.602-1.166-0.434-0.503-0.853-1.036-1.402-1.417-1.897-1.364-4.32-1.722-6.217-3.093-0.983-0.709-1.73-1.813-1.829-3.032-0.084-0.899 0.274-1.768 0.77-2.499 0.739-1.090 1.653-2.057 2.263-3.238 0.488-0.876 0.747-1.867 0.823-2.865z"></path>
<path d="M13.829 17.326c0.884-0.632 2.050-0.785 3.101-0.594 1.112 0.16 2.194 0.754 2.781 1.745 0.427 0.731 0.724 1.63 0.465 2.469-0.244 0.762-0.907 1.288-1.57 1.691-0.434 0.244-0.869 0.533-1.379 0.61 0.328-0.335 0.564-0.762 0.64-1.227 0.168-0.968-0.244-1.996-0.998-2.606-1.219-1.013-3.086-1.013-4.404-0.198 0.29-0.724 0.731-1.417 1.364-1.89z"></path>
</symbol>
<symbol id="icon-elementalmastery" viewBox="0 0 32 32">
<path d="M22.042 28.927c-2.053 0-3.983-0.799-5.435-2.251s-2.251-3.382-2.251-5.435c0-2.425-1.973-4.398-4.398-4.398s-4.398 1.973-4.398 4.398 1.973 4.398 4.398 4.398c0.831 0 1.64-0.233 2.339-0.673 0.768-0.484 1.783-0.253 2.267 0.515s0.253 1.783-0.515 2.267c-1.224 0.771-2.639 1.178-4.091 1.178-2.053 0-3.983-0.799-5.435-2.251s-2.251-3.382-2.251-5.435 0.799-3.983 2.251-5.435 3.382-2.251 5.435-2.251 3.983 0.799 5.435 2.251 2.251 3.382 2.251 5.435c0 2.425 1.973 4.398 4.398 4.398s4.398-1.973 4.398-4.398c0-1.327-0.591-2.57-1.62-3.41-0.704-0.574-0.809-1.61-0.235-2.313s1.61-0.809 2.313-0.235c1.798 1.467 2.83 3.639 2.83 5.958 0 2.053-0.799 3.983-2.251 5.435s-3.382 2.251-5.435 2.251z"></path>
<path d="M21.435 5.324c-1.452-1.452-3.382-2.251-5.435-2.251s-3.983 0.799-5.435 2.251c-1.452 1.452-2.251 3.382-2.251 5.435 0 0.331 0.021 0.66 0.062 0.983 0.028 0.221 0.23 0.38 0.452 0.351 0.39-0.050 0.786-0.075 1.186-0.075 0.411 0 0.819 0.027 1.22 0.080 0.277 0.036 0.506-0.209 0.452-0.483-0.055-0.277-0.084-0.563-0.084-0.856 0-2.425 1.973-4.398 4.398-4.398s4.398 1.973 4.398 4.398c0 1.916-1.232 3.55-2.946 4.152-0.262 0.092-0.356 0.415-0.184 0.633 0.503 0.637 0.915 1.332 1.229 2.068 0.089 0.208 0.328 0.304 0.536 0.215 0.776-0.333 1.498-0.796 2.137-1.379 1.662-1.514 2.583-3.69 2.512-5.937-0.062-1.96-0.854-3.794-2.247-5.186z"></path>
</symbol>
<symbol id="icon-atk" viewBox="0 0 32 32">
<path d="M29.716 4.275c-0.1-0.891 0.087-0.992-0.425-1.503s-0.613-0.325-1.503-0.425c-1.149-0.051-1.94-0.142-2.669 0.186 0 0-0.246 0.271-0.243 0.563 0.038 1.663-2.659 4.235-3.755 5.241-1.371 0.634-2.497-2.715-3.884-3.052-1.085-0.484-2.232 0.713-1.658 1.746 0.515 0.697 1.681 1.591 0.781 2.429-0.408 0.718-11.102 10.477-12.955 13.674-0.709 1.429-1.26 6.4-1.16 6.555s6.813-0.849 7.792-1.275c1.38-0.455 12.867-13.336 13.471-12.843 0.886 0.261 1.601 1.51 2.605 0.857 0.828-0.42 0.853-1.756 0.036-2.204-0.896-1.329-2.77-2.678-2.347-3.364 1.055-1.144 3.546-3.711 5.165-3.672 0.292 0.004 0.563-0.243 0.563-0.243 0.328-0.729 0.237-1.52 0.186-2.669z"></path>
</symbol>
<symbol id="icon-def" viewBox="0 0 32 32">
<path d="M28.505 3.282c-3.973-0.244-7.962-0.883-11.924-1.118-0.001-0.004-0.003-0.009-0.004-0.014-4.36 0.124-8.763 0.898-13.137 1.165 0.527 15.263-3.045 15.885 8.772 24.385 0.763 0.564 1.635 1.138 2.426 1.6 0.005-0.002 0.011-0.004 0.016-0.005 0.378 0.212 0.705 0.382 0.923 0.492 0.076 0.040 0.167 0.063 0.263 0.063 0.105 0 0.203-0.028 0.287-0.076l-0.003 0.002c0.974-0.547 3.521-1.97 4.027-2.258h-0c11.926-6.893 7.606-13.428 8.354-24.235zM7.155 19.405c-1.813-2.591-1.007-6.792-1.179-9.727 0.001-1.005-0.001-2.398 0-3.401 0.466-0.113 1.132-0.276 1.596-0.388 2.657-0.677 5.413-1.185 8.161-0.956 0.208 6.873-0.103 13.97-0.106 20.908-2.108-0.581-7.492-5.053-8.472-6.436z"></path>
</symbol>
<symbol id="icon-hp" viewBox="0 0 32 32">
<path d="M15.951 26.708c-3.951-0.116-7.118-3.406-6.927-7.060 0.116-1.477 1.963-5.208 3.744-3.819 2.881 4.664 8.7 0.754 9.291 2.318 1.906 4.017-2.156 8.677-6.108 8.561z"></path>
<path d="M26.4 20.352c0.192-4.352-3.351-9.322-4.923-11.494l0.001 0c-1.375-1.883-5.223-7.104-5.458-7.264-0.734 1.049-7.177 9.399-8.709 12.368-1.276 2.432-2.602 4.921-1.999 7.798 0.992 4.736 5.227 8.409 10.496 8.448s10.332-3.973 10.592-9.856zM20.3 26.761c-5.078 3.336-12.168 0.236-12.876-5.737-0.576-4.864 5.585-10.966 8.6-15.192 4.723 5.656 13.303 15.125 4.276 20.929z"></path>
</symbol>
<symbol id="icon-stamina" viewBox="0 0 32 32">
<path d="M28.853 12.337c-0.367-1.001-0.886-1.963-1.456-2.856-0.414-0.677-0.713-1.355-1.534-1.292-0.321 0.025-0.62 0.183-0.799 0.45-1.101 1.668 1.745 6.638-0.786 6.98-1.243 0.405-1.906-0.318-2.989-0.4-2.218 0.156-5.734 1.609-2.184-1.016 4.636-2.555 2.203-9.074-3.123-8.888-5.605-0.077-7.779 6.583-2.789 9.099 0.921 0.835 1.467 1.416 0.313 1.468-6.012-2.522-7.903 3.463-6.75-5.947 0.024-0.214-0.017-0.431-0.12-0.62-2.491-4.632-7.239 10.338-3.273 9.456 11.389 0.36 3.078 6.58 12.165 7.917 7.98-0.492 4.559-5.41 7.762-6.88 1.684-1.203 4.447-0.369 6.006-1.191 1.993-1.526-0.020-4.265-0.442-6.28z"></path>
</symbol>
<symbol id="icon-artifact" viewBox="0 0 32 32">
<path d="M17.18 25.544c0.164-0.824-0.452-2.98-1.156-3.516-0.7 0.536-1.312 2.808-1.144 3.632-0.62-0.308-1.7-0.376-2.564-0.332 1.216 1.512 2.536 3.076 3.064 4.964 0.104 0.4 0.168 0.816 0.188 1.26 0.008 0.136 0.116 0.248 0.252 0.248h0.416c0.136 0 0.244-0.112 0.252-0.248 0.104-2.26 1.596-3.956 2.796-5.752 0.152-0.192 0.304-0.384 0.456-0.568-0.872-0.048-1.58 0.048-2.56 0.312zM18.824 7.52c-1.072-0.164-1.608 0.824-2.636 1.236 0.084 0.040 0.040 0.124 0.084 0.248 0.288 3.504 3.38 5.604 6.552 6.552-0.208-0.536-0.248-1.236-0.288-1.812 0.284-2.764-1.32-5.028-3.712-6.224z"></path>
<path d="M14.372 24.376c-0.040-0.452 0.948-2.556 1.4-2.804-0.784-3.34-3.628-5.068-6.72-6.060 3.544-0.7 6.060-3.34 6.72-6.76-1.032-0.412-1.608-1.4-2.68-1.276-1.36 0.864-2.968 1.936-3.42 3.544-0.576 2.392 0.288 6.596-3.504 6.060 0.040 0 0.084 0.040 0.084 0.040 0.7 3.752 3.876 8.248 8.12 7.256zM22.864 15.556c-3.052 1.072-5.688 2.76-6.596 6.060 0.66 0.576 1.524 1.856 1.4 2.804 3.752 1.568 7.296-3.256 8.16-6.472 0.040-0.372 0.208-0.62 0.412-0.824-0.288 0-0.536 0.040-0.824 0.040-1.356 0.084-2.14-0.412-2.552-1.608z"></path>
<path d="M17.836 5.704l-0.784-0.208 0.784-0.452c0.576-0.412 1.112-0.824 1.648-1.276 0.084-0.084 0.084-0.248 0-0.328-1.196-0.988-2.556-1.98-3.38-3.172-0.040-0.084-0.164-0.084-0.248 0-0.988 1.4-2.432 1.936-3.42 3.172-0.084 0.084-0.040 0.248 0.040 0.288 0.7 0.576 1.4 1.072 2.104 1.648-8.408 2.844-5.852 5.688-10.428 10.84 0.248 0.124 0.496 0.248 0.784 0.372v-0.040c3.172 0.784 4.080-0.576 4.040-3.628-0.208-2.596 1.812-4.7 4-5.812 1.276-0.248 1.896 0.824 2.968 1.276 1.072-0.452 1.732-1.568 2.968-1.276 2.184 1.112 4.204 3.216 4 5.812-0.040 3.052 0.864 4.412 4.040 3.628l0.040 0.084 0.864-0.372c-3.716-4-2.356-9.072-10.020-10.556z"></path>
</symbol>
<symbol id="icon-char" viewBox="0 0 32 32">
<path d="M29.016 13.742c-3.964-0.6-3.372-3.044-4.498-5.369 0.298-3.332-6.23-7.408-9.432-7.11-5.311 0.908-8.715 0.191-11.745 9.088-1.010 3.222 1.944 6.017 1.298 7.309 0.221-0.167 0.725-0.509 0.853-0.753l-0.009 0.003c0.233-0.291 0.494-0.693 0.662-1.134 0.203-0.534 0.308-2.467 0.342-3.24 0-0.002 0-0.003 0-0.005l0.002-0.055c0.007-0.163 0.011-0.261 0.011-0.263l0.029-0.725v-0.249l-0.096-3.239s0.096 0.832 0.096 1.344c0 0.27 0.036 0.754 0.069 1.151 0.064 0.238 0.198 0.776 0.242 1.225-0.001 0.015-0.001 0.031-0.002 0.045-0.003 0.138 0.001 0.251 0.012 0.347v0.004c-0.065 0.648-0.065 1.005-0.065 1.005s0.768 0.704 1.248 0.928c0.181 0.084 0.395 0.196 0.612 0.308 0.217 0.145 0.467 0.272 0.757 0.365 0.028 0.009 0.056 0.018 0.085 0.027 0.042 0.014 0.081 0.027 0.117 0.036 0.436 0.131 0.972 0.259 1.366 0.090 0.209-0.43 0.061-0.993-0.121-1.415 1.542 1.489 2.172 4.656 0.833 6.466-0.059 0.079 0.031 0.184 0.119 0.138 0.634-0.331 1.381-0.764 2.015-1.096 0.159-0.083 0.338 0.069 0.282 0.24-0.199 0.6-0.475 1.355-0.662 1.959-0.045 0.147 0.076 0.292 0.229 0.273 2.927-0.374 5.934-2.427 5.29-5.726 0.8 0.211 1.827 0.484 2.717 0.633 0.175 0.029 0.291-0.177 0.174-0.311-1.252-1.434-1.978-2.186-2.036-4.161-0.025-0.846-0.979-2.867-1.472-3.552 2.016 2.272 2.048 3.040 2.432 5.024 0.23 1.191 1.267 2.071 2.243 2.821-0.821 0.823-2.006 1.269-3.165 1.192 0.012 0.383 0.15 0.762 0.388 1.063-0.269 0.178-0.659-0.193-0.935-0.026-0.329 0.349-0.492 0.845-0.753 1.249-1.206 1.856 0.404 2.138 0.107 3.483-0.498-0.263-0.894-0.711-1.094-1.238-0.476 1.797 0.796 4.632-1.3 5.685 0.076-0.708 0.741-1.218 0.923-1.907 0.142-0.537-0.027-1.1-0.142-1.645-0.187-0.891-0.226-1.814-0.113-2.717-1.535 0.627-3.188 0.963-4.845 0.985 0.072-0.672 1.113-1.058 0.938-1.711-0.861 0.267-1.775 0.361-2.672 0.276 1.098-1.14 2.341-2.969 1.271-4.489-0.962-1.28-4.118-1.626-4.877-2.879l-0.019 0.162s-0.066 1.871-0.13 2.671c-0.052 0.642-0.316 1.332-0.418 1.579-0.013 0.033-0.026 0.065-0.041 0.095-0.215 0.456-0.588 0.609-1.204 1.263-0.095 0.537 1.209 3.101 2.467 4.353 0.648 0.645 1.070 1.451 1.596 1.451 1.212-0.214 1.893-0.562 2.757-0.871 0.323 0.422 0.605 0.643 1.016 1.306 0.103 1.915-1.238 3.348-2.361 4.37-0.599 0.545-1.477 0.755-1.412 0.854 0.189 0.284 3.801-0.637 4.788-1.016 1.866-1.266 4.368-1.93 6.094-2.467 0-0.635-1.596-0.768-1.596-1.886 0.099-0.447 0.046-0.859 0.145-1.306 0.124-0.050 0.602-0.095 0.725-0.145 1.223 1.737 3.325 2.881 5.369 3.047-1.509-1.254-1.904-1.785-3.192-4.208 0.010-0.076 0.013-0.151 0.014-0.225-0.509-0.678-1.284-1.252-1.46-2.11 0.411 0.469 1.043 0.685 1.5 1.11 0.437 0.508 0.754 0.459 1.396 0.935 0.221-0.402 0.316-0.955 0-1.451-1.272-0.742-1.652-1.298-2.757-3.192 1.797 2.342 4.313 3.097 7.4 3.918-0.884-1.071-2.256-2.401-2.902-3.047 0.403-1.324 0.454-1.274 0.58-1.306s0.838 0.279 1.161 0.725c-0.149-0.968 0.004-1.789-0.145-2.757 0.892-0.387 1.558-0.347 2.031-0.725s0.924-0.632 0.87-0.871zM8.736 10.752c-0.561-0.688-2.304-2.752-2.304-2.752s1.536 1.44 2.112 2.144 1.984 2.976 1.984 2.976-1.088-1.504-1.792-2.368z"></path>
</symbol>
<symbol id="icon-char_item" viewBox="0 0 32 32">
<path d="M23.776 5.852h-5.92c-0.612 0.528-1.184 1.14-1.84 1.62-0.656-0.484-1.228-1.096-1.84-1.62h-5.696c-0.352 0-0.612 0.264-0.612 0.612v19.948c0 0.352 0.264 0.612 0.612 0.612h0.92s0.044-0.088 0.088-0.308c0.528-1.58 0.92-3.332 2.104-4.604 1.796-1.62 4.516-2.016 6.752-1.228 2.632 0.7 3.856 3.64 4.076 6.092h1.316c0.352 0 0.612-0.264 0.612-0.612v-19.944c0.044-0.304-0.264-0.568-0.572-0.568zM15.976 19.092c-6.268-0.176-6.268-9.248 0-9.468 6.224 0.172 6.224 9.248 0 9.468z"></path>
<path d="M26.012 6.332c-0.264-3.552-4.824-1.884-7.144-2.456-1.096-0.612-1.928-1.492-2.848-2.324-0.612 0.568-1.184 1.14-1.84 1.664-2.016 1.84-5.172-0.176-7.364 1.404-1.008 0.656-0.832 1.972-0.876 2.98 0.088 6.18 0 12.32 0.088 18.5-0.132 1.052 0.656 1.796 1.448 2.324 1.928 0.352 3.944-0.044 5.876 0.22 1.052 0.352 1.84 1.14 2.676 1.796 2.804-2.892 5.128-1.492 8.548-2.016 0.788-0.568 1.58-1.272 1.448-2.324 0.032-6.616 0.076-13.192-0.012-19.768zM16.020 26.588c-1.052 0.176-2.544 0.568-3.64 0.832h-3.944c-0.568 0-1.052-0.484-1.052-1.052v-19.948c0-0.568 0.484-1.052 1.052-1.052h5.304c0.788-0.484 1.58-1.008 2.28-1.62 0.7 0.612 1.448 1.184 2.28 1.62h5.48c0.568 0 1.052 0.484 1.052 1.052v19.948c0 0.568-0.484 1.052-1.052 1.052h-4.648l-1.536-0.44z"></path>
</symbol>
<symbol id="icon-food" viewBox="0 0 32 32">
<path d="M19.208 7.716c1.956-1.628 4.28-3.164 6.84-3.444 0.14 0 0.188 0.14 0.14 0.232-1.072 1.256-2.608 2.188-3.116 3.816 1.584-0.7 2.84-1.816 4.28-2.744 0.232-0.14 0.512-0.232 0.744-0.092s0.048 0.56-0.048 0.932c-0.42 1.488-2.42 2.56-2.42 4.328 1.444-0.884 2.42-2.372 3.864-3.256 0.092-0.048 0.188 0 0.14 0.092-0.604 3.116-2.468 6.048-5.12 7.82-2 1.444-4.888-0.28-6.56 1.816-0.56-0.604-1.164-1.164-1.768-1.72 0.42-0.512 0.836-1.024 1.256-1.488-0.42-2.244-0.048-4.804 1.768-6.292z"></path>
<path d="M3.804 5.016c3.628-1.164 7.4 1.164 9.308 4.188 0.976 1.488 0.464 3.304 0.512 4.98 1.628 1.304 3.164 2.744 4.652 4.188 2.28 2.28 4.84 4.236 7.028 6.56 0.324 1.396-0.744 2.7-2.14 2.792-1.256-0.42-1.956-1.628-2.84-2.512-2.884-3.024-5.676-6.096-8.468-9.212-1.536-0.048-3.256 0.324-4.652-0.464-2.328-1.116-3.864-3.444-4.652-5.864-0.284-1.584-0.516-3.816 1.252-4.656z"></path>
<path d="M5.664 24.748c2.188-1.956 4.188-4.14 6.608-5.816 0.092-0.048 0.188-0.048 0.28 0 0.512 0.42 1.072 0.836 1.536 1.304 0.56 1.072-0.56 1.86-1.164 2.56-1.536 1.488-2.884 3.116-4.468 4.516-0.744 0.7-1.72 0.14-2.468-0.232-0.048-0.048-0.092-0.048-0.092-0.092-0.324-0.604-0.232-1.348-0.28-2.048-0.044-0.052 0.004-0.1 0.048-0.192z"></path>
</symbol>
<symbol id="icon-mineral" viewBox="0 0 32 32">
<path d="M20.448 15.012c6.672-2.152 8.136-0.128 7.708 6.5 0.216 2.8-0.044 4.992-3.228 5.552 0.472-0.604 0.992-1.164 1.548-1.68-0.86-4.648-5.296-7.792-9.988-6.672-0.044 0.816-0.088 1.636-0.216 2.412-1.852-3.356 0.688-5.98 4.176-6.112z"></path>
<path d="M18.208 24.656c1.248-0.644 2.024-1.896 3.144-2.756 0.26-0.216 0.644-0.128 0.816 0.172 1.292 2.54-1.68 5.984-3.532 7.664-0.044 0.044-0.128 0.088-0.172 0.128-2.452 0.904-4.992-1.292-3.876-3.788 0.044-0.088 0.088-0.128 0.128-0.172 0.952-0.944 2.372-0.6 3.492-1.248zM3.828 23.108c5.168-0.688 5.812-0.904 8.868 3.66-1.548 0.776-3.356 0.992-5.080 1.164-0.816 0.128-1.292-0.688-1.808-1.164-0.86-1.12-2.324-2.068-1.98-3.66zM14.852 12.432l-6.2-10.332c-0.604 1.376-3.316 7.836-4.132 11.408l10.332-1.076zM15.236 12.3l5.812-4.864c-0.516-0.344-2.584-1.548-5.208-2.8-1.98-0.904-5.768-2.324-6.844-2.712 0 0.004 6.24 10.376 6.24 10.376zM15.928 15.1l-0.904-2.24-10.42 1.032c0.644 1.464 1.896 2.628 2.84 3.916 1.936 2.24 3.444 4.82 5.552 6.932 0.604-0.216 1.204-0.388 1.808-0.516-0.6-2.752-1.548-7.316 1.124-9.124zM15.452 12.688l0.86 2.196c0.044-0.044 0.088-0.044 0.132-0.084 1.592-0.432 3.228-0.604 4.736-1.248 0.088-2.24 0.044-4.78 0.044-5.684-0.004 0-5.772 4.82-5.772 4.82z"></path>
</symbol>
<symbol id="icon-quest" viewBox="0 0 32 32">
<path d="M27.972 3.444c-0.212 0.004-0.556 0.34-0.688 0.324s-1.212-0.728-1.212-0.728-0.224-0.544-0.484-0.524h-19.244c-0.264-0.024-0.484 0.524-0.484 0.524s-1.080 0.708-1.212 0.728c-0.132 0.016-0.476-0.32-0.688-0.324s-0.928 0.688-0.928 0.688v1.972s0.612 0.828 0.888 0.848c0.448-0.036 0.944-1.024 1.132-0.16v21.228c0 0.68 0.712 1.12 1.324 0.824l9.592-4.688 9.464 4.628c0.672 0.328 1.448-0.16 1.448-0.904v-21.092s0.080-0.372 0.284-0.364c0.2 0.012 0.572 0.54 0.848 0.524s0.888-0.848 0.888-0.848v-1.972c-0.004 0-0.72-0.684-0.928-0.684zM4.848 6.384h-0.16v-2.576h0.16v2.576zM7.872 27.292l-0.364 0.216v-24.064h0.364v23.848zM16.008 21.18c-1.336 0.040-2.080-1.76-2.008-2.336 0.056-0.544 1.856-1.852 1.964-1.928 0.108 0.076 1.908 1.384 1.964 1.928 0.064 0.56-0.596 2.288-1.92 2.336zM18.7 9.792c-0.5 1.468-1.64 2.6-1.46 4.368-0.012 2.512-2.544 2.484-2.556 0 0.284-2.652-2.684-4.36-1.448-6.996 1.772-3.988 6.76-1.208 5.464 2.628zM24.424 27.512l-0.364-0.224v-23.844h0.364v24.068zM27.244 6.384h-0.16v-2.576h0.16v2.576z"></path>
</symbol>
<symbol id="icon-setting" viewBox="0 0 32 32">
<path d="M25.651 6.166c-0.411 2.365-0.41 3.9 1.647 5.463 0.772 0.48 1.734 0.61 2.399 1.288 0.368 0.34 0.675 0.763 0.678 1.283 0.005 1.195 0.008 2.39 0 3.585 0.002 1.535-1.662 2.145-2.836 2.684-0.693 0.365-1.221 0.949-1.651 1.595-0.7 1.029-0.476 2.328-0.286 3.47 0.404 1.812-1.611 2.767-2.913 3.524-0.324 0.187-0.661 0.352-0.997 0.516-0.67 0.221-1.423 0.167-2.109-0.001-0.481-0.213-0.81-0.631-1.224-0.94-0.309-0.26-0.69-0.368-1.061-0.499-0.859-0.33-1.857-0.472-2.699-0.017-0.653 0.369-1.32 0.727-1.848 1.27-0.604 0.479-1.712 0.334-2.429 0.214-0.677-0.291-1.318-0.712-1.928-1.121-1.057-0.75-2.521-1.726-2.005-3.22 0.549-1.693 0.069-3.332-1.375-4.402-0.812-0.618-1.882-0.82-2.625-1.527-0.991-0.798-0.699-2.156-0.736-3.283 0.003-0.757-0.146-1.552 0.115-2.28 0.167-0.357 0.374-0.695 0.709-0.922 0.492-0.299 0.95-0.698 1.507-0.864 1.294-0.443 2.486-1.991 2.603-3.351-0.004-0.572-0.005-1.148-0.196-1.705-0.684-2.031 1.905-3.108 3.309-3.936 0.73-0.461 1.557-0.951 2.413-0.482 0.519 0.241 0.954 0.597 1.396 0.948 0.334 0.233 0.708 0.419 1.048 0.646 0.283 0.174 0.576 0.269 0.923 0.241 0.493-0.047 1.014 0.107 1.498-0.044 1.57-0.44 2.718-2.66 4.514-1.821 1.205 0.618 2.351 1.344 3.372 2.236 0.483 0.425 0.828 0.754 0.758 1.446 0.010 0.002 0.020 0.003 0.029 0.004zM7.243 16.073c0.189 11.406 17.157 11.422 17.362 0.009-0.19-11.405-17.156-11.422-17.362-0.009z"></path>
<path d="M15.929 24.156c-10.622-0.175-10.624-15.979-0.001-16.155 10.557 0.054 10.557 16.101 0.001 16.155zM15.928 10.11c-7.872 0.134-7.812 11.792-0.046 11.937 7.855-0.001 7.858-11.9 0.046-11.937z"></path>
</symbol>
<symbol id="icon-tools" viewBox="0 0 32 32">
<path d="M12.764 4.132c1.296 0.192 2.444 0.36 3.592 0.54 3.428 0.548 6.856 1.108 10.28 1.668 0.712 0.116 1.124 0.496 1.228 1.212 0.064 0.436 0.076 0.884 0.092 1.324 0.084 2.648 0.192 5.296 0.24 7.948 0.028 1.532-0.032 3.068-0.084 4.604-0.012 0.408-0.148 0.816-0.26 1.216-0.044 0.164-0.156 0.336-0.288 0.432-1.836 1.32-3.684 2.632-5.532 3.94-1.16 0.824-2.46 1-3.836 0.744-2.168-0.4-4.336-0.764-6.496-1.208s-4.296-0.96-6.448-1.436c-0.544-0.12-0.848-0.476-0.988-0.98-0.064-0.224-0.1-0.468-0.1-0.708 0.008-1.82 0.024-3.636 0.044-5.452 0.008-0.548 0.024-0.548 0.572-0.44 0.6 0.12 1.196 0.24 1.792 0.372 0.316 0.072 0.4-0.064 0.392-0.352-0.024-0.604-0.284-0.996-0.888-1.176-0.612-0.184-1.208-0.432-1.812-0.648-0.352-0.132-0.5-0.372-0.464-0.764 0.18-1.972 0.344-3.944 0.528-5.916 0.028-0.312 0.104-0.616 0.192-0.916 0.168-0.536 0.488-0.904 1.044-1.132 2.016-0.812 4.016-1.672 6.024-2.5 0.416-0.172 0.86-0.276 1.176-0.372zM13.284 11.724c-0.036-0.028-0.072-0.048-0.108-0.076-0.14 0.084-0.292 0.156-0.42 0.26-0.48 0.396-0.96 0.8-1.428 1.212-1.256 1.1-2.516 2.188-3.756 3.304-0.364 0.328-0.396 0.8-0.264 1.248 0.12 0.408 0.42 0.676 0.86 0.752 0.468 0.080 0.936 0.184 1.404 0.252 0.716 0.104 0.784 0.188 0.528 0.888-0.468 1.272-0.952 2.536-1.408 3.812-0.060 0.156-0.004 0.356-0.004 0.532 0.164-0.040 0.352-0.036 0.48-0.128 1.676-1.16 3.368-2.304 5-3.532 0.512-0.388 0.896-0.98 1.244-1.544 0.328-0.532 0.152-0.772-0.476-0.832-0.744-0.072-1.48-0.132-2.224-0.2-0.624-0.060-0.728-0.188-0.584-0.8 0.356-1.524 0.72-3.040 1.076-4.564 0.040-0.18 0.056-0.384 0.080-0.584zM21.456 13.94h-0.060v0.18c-0.056 1.312-0.096 2.62-0.168 3.928-0.028 0.476-0.288 0.752-0.684 0.716-1.32-0.116-2.636-0.272-3.948-0.4-0.116-0.012-0.312 0.020-0.356 0.096-0.176 0.3-0.308 0.632-0.452 0.944 0.28 0.112 0.548 0.296 0.832 0.332 1.452 0.176 2.9 0.324 4.352 0.464 0.796 0.076 1.336-0.388 1.36-1.124 0.072-2.412 0.152-4.824 0.212-7.236 0.008-0.32 0.116-0.48 0.408-0.596 1.028-0.396 2.044-0.82 3.072-1.224 0.3-0.12 0.612-0.244 0.932-0.296 0.772-0.132 0.88-0.292 0.596-1.024-0.064-0.168-0.172-0.312-0.256-0.468-0.144-0.264-0.364-0.344-0.644-0.24-1.636 0.6-3.276 1.196-4.904 1.816-0.132 0.048-0.28 0.252-0.284 0.384-0.016 1.248-0.008 2.5-0.008 3.748z"></path>
</symbol>
<symbol id="icon-treasure" viewBox="0 0 32 32">
<path d="M15.996 30.22c-1.804 0.136-3.544-0.388-5.248-0.92-2.056-0.548-3.82-1.852-5.304-3.34-2-1.932-2.28-4.976-1.616-7.56 0.476-1.492 1.316-2.828 2.284-4.048 0.476-0.548 1.076-1.008 1.612-1.508 0.884-0.684 1.632-1.592 2.688-2.008 0.396-0.176 0.752-0.548 1.224-0.348 0.496 0.18 1 0.372 1.512 0.512 1.3 0.312 2.652 0.388 3.976 0.292 0.844-0.032 1.684-0.172 2.476-0.504 0.34-0.112 0.648-0.42 1.024-0.296 1.152 0.268 2.020 1.044 2.892 1.792 0.868 0.668 1.652 1.428 2.396 2.228 0.368 0.348 0.7 0.72 0.908 1.176 1.056 1.776 1.708 3.24 1.516 5.368-0.032 0.916-0.052 1.844-0.536 2.652-0.36 0.668-0.616 1.4-1.164 1.948-0.944 1.048-1.968 2.068-3.304 2.608-1.32 0.844-2.844 1.212-4.356 1.552-0.984 0.22-1.96 0.524-2.98 0.42v-0.016zM15.936 25.12c0.336 0 0.544-0.192 0.644-0.592 0.3-1.22 1.336-2.896 2.48-3.476 0.576-0.296 1.1-0.7 1.764-0.8 0.272-0.044 0.492-0.18 0.664-0.432 0.532-1.064-1.448-0.768-1.928-1.284-0.412-0.288-0.86-0.512-1.22-0.884-0.872-0.888-1.54-2-1.84-3.216-0.104-0.388-0.74-0.512-0.944-0.14-0.308 0.596-0.596 1.204-0.9 1.804-0.316 0.712-0.956 1.216-1.476 1.772-0.596 0.612-1.376 0.976-2.204 1.144-0.196 0.064-0.408 0.132-0.572 0.252-0.232 0.172-0.184 0.644 0.052 0.732 0.3 0.116 0.608 0.228 0.92 0.328 0.892 0.248 1.656 0.744 2.312 1.392 0.412 0.316 0.628 0.804 0.904 1.224 0.292 0.492 0.604 0.968 0.704 1.556 0.052 0.408 0.316 0.612 0.64 0.62zM16.316 9.22c-2.416-0.016-4.276-0.492-5.656-2.548-0.576-0.656-1.164-1.316-1.716-2.004-0.34-0.412-0.724-0.84-0.2-1.284 1.196-1.14 2.928-1.476 4.512-1.716 2.456-0.36 4.952-0.22 7.348 0.448 0.9 0.172 1.724 0.608 2.432 1.18 0.772 0.692-0.216 1.5-0.668 2.060-0.772 0.84-1.5 1.732-2.272 2.572-0.596 0.496-1.36 0.788-2.064 1.108-0.524 0.152-1.248 0.128-1.716 0.184zM15.952 5.064c1.624-0.020 3.532-0.040 5.008-0.948 1.172-1.2-3.268-1.648-3.936-1.672-1.82-0.020-3.732 0-5.464 0.624-3.028 1.46 2.768 2.016 4.392 1.996z"></path>
</symbol>
<symbol id="icon-weapon" viewBox="0 0 32 32">
<path d="M20.34 14.652l-3.32-0.092c0.012-0.012-0.092-3.404-0.092-3.552l-5.072 5.536c-2.592 2.652-7.768 6.992-8.532 11.716 6.644-1.284 13.020-9.716 17.016-13.608zM24.264 12.252c0.092 0.084 2.64 0.356 2.444 1.108 0 0 0.092-1.016 0.092-1.476s-0.276-2.676-0.276-2.676c-0.416 0.648-1.8 2.4-2.26 3.044z"></path>
<path d="M24.032 16.448c0.32-0.268 1.544-2.024 0.368-2.308-1.384 0.144-2.104-1.116-2.308-2.168-0.048-0.232-1.244-0.644-1.244-0.644l-0.968-1.016c-0.352-0.724-1.744-1.484-2.352-1.984-0.152-0.372-0.036-1.976-0.832-1.616-0.544 0.2-1.648 0.704-2.028 1.152 3.044 2.928 2.572 2.224 2.768 6.364 0.152-0.024 3.556 0.204 3.552-0.048 0.492 0.336 2.312 2.64 3.044 2.268z"></path>
<path d="M27.536 2.336c-1.664 0.596-1.76 0.952-1.936 2.628 0 0.14-0.092 0.232-0.184 0.324l-4.984 4.060c-0.168 0.176-0.612 0.060-0.832 0.092 0.652 0.836 1.544 1.86 2.628 2.076 0.184 0.048 0.14-0.14 0.232-0.276l3.92-5.028c0.304-0.392 1.272-0.124 1.616-0.46 0.796-0.688 1.108-0.968 1.2-2.076 0.072-0.528-1.16-1.5-1.66-1.34zM13.976 6.812c-1.528 0.068-4.864 0.684-6.088 1.060-0.012 2.068-0.248 7.812 0.552 9.824 1.304-1.32 5.056-5.4 6.364-6.828 0.564-1.012-2.024-1.472-1.708-2.812 0.052-0.416 0.42-0.876 0.88-1.244z"></path>
<path d="M8.028 18.112c-0.908-2.052-0.668-9.22-0.644-10.608 0.928-0.432 6.024-1.204 7.24-1.244 1.488-1.12 3.848-0.972 4.568 0.232 0.184 0.368-0.416 0.46-0.416 0.784 0.052 0.228 0.604 1 0.968 0.876-0.040-0.14 3.276-2.92 2.72-2.952-3.608-1.124-14.12-0.664-17.204 0.508-0.032 0.324-0.596 13.28 0.692 14.344 0.088 0.432 1.972-1.96 2.076-1.94zM20.756 16.956c-1.152 1.36-5.372 6.052-7.38 7.612 0.644 0.644 1.66 1.524 2.168 2.028 1.788-0.924 6.544-4.936 7.704-7.748-0.968-0.232-2.492-1.892-2.492-1.892z"></path>
<path d="M23.8 18.848c-0.88 2.796-7.032 7.792-8.304 8.304-0.26-0.148-1.488-1.268-2.492-2.26-0.876 0.736-1.616 1.428-1.616 1.428 0.464 0.532 3.528 2.572 4.196 2.904 4.056-1.104 10.84-8.748 11.068-12.5 0.008 0.004-1.744 1.94-2.852 2.124z"></path>
</symbol>
<symbol id="icon-podcast" viewBox="0 0 32 32">
<path d="M32 16c0-8.837-7.163-16-16-16s-16 7.163-16 16c0 6.877 4.339 12.739 10.428 15.002l-0.428 0.998h12l-0.428-0.998c6.089-2.263 10.428-8.125 10.428-15.002zM15.212 19.838c-0.713-0.306-1.212-1.014-1.212-1.838 0-1.105 0.895-2 2-2s2 0.895 2 2c0 0.825-0.499 1.533-1.212 1.839l-0.788-1.839-0.788 1.838zM16.821 19.915c1.815-0.379 3.179-1.988 3.179-3.915 0-2.209-1.791-4-4-4s-4 1.791-4 4c0 1.928 1.364 3.535 3.18 3.913l-2.332 5.441c-2.851-1.223-4.848-4.056-4.848-7.355 0-4.418 3.582-8.375 8-8.375s8 3.957 8 8.375c0 3.299-1.997 6.131-4.848 7.355l-2.331-5.439zM21.514 30.866l-2.31-5.39c3.951-1.336 6.796-5.073 6.796-9.476 0-5.523-4.477-10-10-10s-10 4.477-10 10c0 4.402 2.845 8.14 6.796 9.476l-2.31 5.39c-4.987-2.14-8.481-7.095-8.481-12.866 0-7.729 6.266-14.37 13.995-14.37s13.995 6.641 13.995 14.37c0 5.771-3.494 10.726-8.481 12.866z"></path>
</symbol>
<symbol id="icon-star" viewBox="0 0 32 32">
<path d="M32 12.408l-11.056-1.607-4.944-10.018-4.944 10.018-11.056 1.607 8 7.798-1.889 11.011 9.889-5.199 9.889 5.199-1.889-11.011 8-7.798z"></path>
</symbol>
</defs>
</svg>
