<svg xmlns="http://www.w3.org/2000/svg" viewBox="0 0 420 420">
    <path d="M133.2 27.4c4.8-2.3 9.6-4.5 14.5-6.5-6 10.7-11.3 21.9-13.6 34-.8 5-2.1 10-2.6 15-1.2 11.8.1 23.7 2.6 35.2 3.9 17.5 9.4 34.8 18.4 50.4 7.5 13.3 17.5 25 29.2 34.8 3.7 3.2 7.9 6 11.3 9.6-9.2-2.4-18.2-5.4-27.1-8.5-17.5-6.3-35-13.9-49.3-26-13.8-11.8-24.5-27.8-27.8-45.8-2.7-14-2.9-28.8 1.9-42.4 2.2-6.9 4.8-13.8 9-19.8 8.3-12.8 20.6-22.3 33.5-30zM272.5 21c14 5.6 27.5 13.5 38.2 24.2 11 11 18.1 25.5 21.3 40.6 2.1 15 1.9 30.6-3.2 45-9.1 23.1-29 40.3-50.9 51.2-13.5 6.8-28.2 10.6-42.5 15.5-2.8 1-5.6 1.7-8.6 2.1 11.9-8.9 22.7-19.2 31.6-31.1 18.8-25.1 29.5-56.2 30.2-87.5.4-13.7-2.5-27.2-6.8-40.1-2.1-7-6-13.3-9.3-19.9z"/>
    <path d="M50.6 106.3c3.3-10.7 7.6-21.1 13.4-30.6 1.8 13.4 3.8 26.9 8.4 39.7 4.8 13.8 12.1 26.6 20.8 38.3 4.4 5.9 8.9 11.8 14.7 16.3 12 9.4 25 17.3 38.5 24.4 13.3 6.6 26.8 13.3 38.8 22.3 11.2 8.4 21.8 19.3 24.9 33.4 1-7.8 5.6-14.6 10.7-20.4 8-8.9 17.7-16.3 28.1-22.2 19.1-10.9 39.7-19.1 57.3-32.3 8-6 14.5-13.6 20.6-21.5 12.7-16.3 22.1-35.5 25.7-55.9 1.6-7.2 2.9-14.5 4-21.8 4.4 9.2 9.3 18.3 12 28.2 5 17.3 8.2 36.1 2.9 53.7-2.7 8.5-7.4 16.3-13.2 23-12.5 13.1-29.6 21.1-47 25.4-8.2 1.5-16.4 2.7-24.6 4.2-12.2 2.6-24.7 4.8-35.7 10.9-14.3 7-26.5 19-32.4 34-4.5 10.9-3.5 24 3.1 33.9 7.2 10.5 19 17.8 31.6 19.6 3.9-1.5 6.9-4.8 10.9-6.2 5-1.3 10.1.2 14.9 1.6-8.3 8.8-17.2 17.1-25.6 25.8-18.5 20.4-30.7 45.3-43 69.7-11-20.1-20.9-41-34.9-59.4-9.8-13.4-22.9-23.8-34.1-36 4.2-1.2 8.4-3 12.8-2.1 4.7 1.1 8.5 4.2 12.5 6.7 6.7-1.5 13.6-3.1 19.3-7.1 9.1-5.8 16.4-15.1 18.1-25.9 1.9-11.9-2.6-24-9.3-33.6-5.8-8.4-14.3-14.3-22.9-19.4-9.7-5.8-20.7-8.7-31.6-11.2-15.7-3.4-32.1-3.8-47.1-10.1-15.9-6.1-30.5-16.8-38.8-31.9-6.2-11.5-9.9-24.7-8.4-37.8 1.2-8.6 2.1-17.3 4.6-25.7m129.7 215.5c5.4 1.5 11.2 1.8 16.6.5 5.2-1.2 9.3-4.7 13-8.3 7.1 8.5 19.5 11.7 29.9 7.8-13.1-3.4-25.7-12.4-29.9-25.8-3.9 13.4-16.5 22.6-29.6 25.8m13.4 16.3c6 9 11.6 18.2 16.4 27.9 5.1-9.5 9.6-19.5 16.6-27.9-6.5-2.1-11.7-6.5-16.9-10.7-4.7 4.5-10.1 8.2-16.1 10.7z"/>
    <path d="M23.6 153.6c6.8 9.2 12.7 19.1 20 28 10.3 12.1 22.3 23 36.4 30.5 9.2 4.2 19.2 6.4 29.1 8.3 12.3.5 24.8-1.8 36.9 1.6 15 3.7 30.2 11 38.7 24.5 9.1 13.6 6.7 33.7-5.6 44.6-7.6 6.8-20.1 7.1-28.3 1.2-3.9-2.8-5.4-8.1-3.6-12.5 8.6-.1 17.6-1.8 24.8-6.7 4.3-2.8 6.1-8.1 6.5-13 1-11.2-8.3-22.4-19.6-23.1-9.2-.8-17.1 4.5-25.2 8.1-14.7 6.1-29.6 12.3-45.4 14.8-16.2 1.3-32.8-4.3-45.1-15-16.9-14.5-24-37.1-25.3-58.7-.4-11.3 2-22.3 5.7-32.6zM376.3 181.4c7.3-8.9 13.4-18.6 20.2-27.8 5.7 15.3 6.9 32.3 3.6 48.3-4 19-14.2 37.4-30.7 48.3-11.1 6.8-24.5 10.3-37.6 9.3-9.6-1.4-19-4-28.1-7.4-7.5-3.2-14.9-6.4-22.4-9.7-5.2-2.5-10.5-5.3-16.4-5.7-8.5-.5-17.4 4-21.3 11.7-4.3 8.1-2.4 19.4 5 25.1 7.3 4.7 16.3 5.4 24.7 6.3.6 4.5-.5 9.4-4.2 12.3-5.9 4.8-14.2 4.9-21.2 2.8-4.1-1-7.2-4-10-7-5.8-6.5-8.5-15.5-7.8-24.1 1.1-12.7 8.2-25 19.2-31.6 12.1-7.7 26.4-11.9 40.7-12.6 8.4-.6 16.9 1.8 25.2-.3 8-1.4 16-3.5 23.4-7 15.1-6.6 27.5-18.1 37.7-30.9z"/>
</svg>
