<svg xmlns="http://www.w3.org/2000/svg" viewBox="0 0 80 80">
    <path d="M42.95 63.86c.41-2.06-1.13-7.45-2.89-8.79-1.75 1.34-3.28 7.02-2.86 9.08-1.55-.77-4.25-.94-6.41-.83 3.04 3.78 6.34 7.69 7.66 12.41.26 1 .42 2.04.47 3.15.02.34.29.62.63.62h1.04c.34 0 .61-.28.63-.62.26-5.65 3.99-9.89 6.99-14.38.38-.48.76-.96 1.14-1.42-2.18-.12-3.95.12-6.4.78zm4.11-45.06c-2.68-.41-4.02 2.06-6.59 3.09.21.1.1.31.21.62.72 8.76 8.45 14.01 16.38 16.38-.52-1.34-.62-3.09-.72-4.53.71-6.91-3.3-12.57-9.28-15.56z"/>
    <path d="M35.93 60.94c-.1-1.13 2.37-6.39 3.5-7.01-1.96-8.35-9.07-12.67-16.8-15.15 8.86-1.75 15.15-8.35 16.8-16.9-2.58-1.03-4.02-3.5-6.7-3.19-3.4 2.16-7.42 4.84-8.55 8.86-1.44 5.98.72 16.49-8.76 15.15.1 0 .21.1.21.1 1.75 9.38 9.69 20.62 20.3 18.14zm21.23-22.05c-7.63 2.68-14.22 6.9-16.49 15.15 1.65 1.44 3.81 4.64 3.5 7.01 9.38 3.92 18.24-8.14 20.4-16.18.1-.93.52-1.55 1.03-2.06-.72 0-1.34.1-2.06.1-3.39.21-5.35-1.03-6.38-4.02z"/>
    <path d="M44.59 14.26l-1.96-.52 1.96-1.13c1.44-1.03 2.78-2.06 4.12-3.19.21-.21.21-.62 0-.82-2.99-2.47-6.39-4.95-8.45-7.93-.1-.21-.41-.21-.62 0-2.47 3.5-6.08 4.84-8.55 7.93-.21.21-.1.62.1.72 1.75 1.44 3.5 2.68 5.26 4.12-21.02 7.11-14.63 14.22-26.07 27.1.62.31 1.24.62 1.96.93v-.1c7.93 1.96 10.2-1.44 10.1-9.07-.52-6.49 4.53-11.75 10-14.53 3.19-.62 4.74 2.06 7.42 3.19 2.68-1.13 4.33-3.92 7.42-3.19 5.46 2.78 10.51 8.04 10 14.53-.1 7.63 2.16 11.03 10.1 9.07l.1.21 2.16-.93c-9.29-10-5.89-22.68-25.05-26.39z"/>
</svg>
