<svg xmlns="http://www.w3.org/2000/svg" viewBox="0 0 1000 1000">
    <path d="M928.61 133.59c-3.12-27.83 2.71-30.99-13.27-46.98-15.97-15.98-19.16-10.15-46.98-13.27-35.9-1.59-60.61-4.45-83.41 5.81 0 0-7.7 8.46-7.59 17.6 1.18 51.98-83.08 132.33-117.34 163.77-42.84 19.81-78.02-84.85-121.38-95.37-33.92-15.12-69.76 22.29-51.81 54.57 16.09 21.78 52.52 49.73 24.42 75.9-12.75 22.45-346.95 327.4-404.85 427.32-22.16 44.66-39.36 200-36.26 204.83s212.9-26.54 243.5-39.85c43.11-14.22 402.1-416.75 420.98-401.33 27.68 8.17 50.02 47.19 81.4 26.77 25.87-13.14 26.66-54.89 1.12-68.87-27.99-41.52-86.55-83.69-73.34-105.14 32.96-35.76 110.8-115.96 161.41-114.76 9.13.11 17.59-7.6 17.59-7.6 10.26-22.79 7.4-47.51 5.81-83.4z"/>
</svg>
