<svg xmlns="http://www.w3.org/2000/svg" viewBox="0 0 1000 1000">
    <path d="M906.76 429.45C782.9 410.7 801.4 334.33 766.19 261.67c9.31-104.11-194.7-231.5-294.75-222.19-165.96 28.39-272.33 5.97-367.04 284-31.57 100.69 60.74 188.03 40.55 228.4 6.91-5.22 22.66-15.91 26.65-23.52l-.29.09c7.28-9.1 15.43-21.66 20.68-35.45 6.35-16.68 9.61-77.08 10.69-101.24 0-.05.01-.1.01-.15l.07-1.73c.22-5.1.33-8.17.33-8.21L204 359v-7.78L201 250s3 26 3 42c0 8.44 1.11 23.57 2.17 35.97 1.99 7.45 6.18 24.25 7.57 38.27-.02.48-.04.96-.06 1.4-.1 4.31.02 7.84.36 10.84v.12C212 398.86 212 410 212 410s24 22 39 29c5.66 2.64 12.35 6.13 19.13 9.62 6.79 4.53 14.58 8.49 23.66 11.42.87.27 1.76.55 2.67.83 1.3.45 2.52.83 3.65 1.12 13.63 4.09 30.36 8.1 42.68 2.82 6.53-13.44 1.91-31.03-3.79-44.23 48.2 46.54 67.89 145.49 26.03 202.07-1.84 2.48.98 5.74 3.71 4.31 19.8-10.35 43.15-23.89 62.97-34.26 4.97-2.6 10.57 2.17 8.81 7.49-6.21 18.74-14.85 42.35-20.69 61.21-1.42 4.6 2.39 9.14 7.16 8.53 91.47-11.68 185.43-75.85 165.3-178.94 25.01 6.6 57.1 15.13 84.92 19.77 5.48.91 9.08-5.54 5.43-9.72-39.11-44.81-61.8-68.3-63.64-130.04-.79-26.44-30.58-89.6-46-111 63 71 64 95 76 157 7.2 37.22 39.59 64.71 70.1 88.16-25.65 25.72-62.68 39.66-98.92 37.24.39 11.98 4.7 23.81 12.12 33.23-8.42 5.56-20.6-6.02-29.23-.8-10.27 10.9-15.36 26.41-23.54 39.02-37.68 58 12.62 66.8 3.33 108.85-15.56-8.21-27.95-22.23-34.19-38.68-14.86 56.17 24.89 144.75-40.61 177.67 2.39-22.11 23.15-38.07 28.84-59.58 4.45-16.79-.85-34.39-4.43-51.4-5.85-27.85-7.06-56.68-3.54-84.92-47.96 19.58-99.62 30.08-151.42 30.77 2.26-21.01 34.78-33.05 29.31-53.46-26.9 8.33-55.46 11.29-83.49 8.64 34.32-35.64 73.16-92.78 39.72-140.29-30.05-40.01-128.68-50.82-152.4-89.98l-.6 5.06S208 484.99 206 509.99c-1.61 20.07-9.87 41.62-13.07 49.34-.4 1.04-.82 2.03-1.27 2.97-6.71 14.24-18.36 19.02-37.63 39.46-2.96 16.78 37.78 96.9 77.09 136.04 20.25 20.16 33.44 45.35 49.88 45.35 37.86-6.7 59.16-17.55 86.16-27.21 10.08 13.18 18.91 20.09 31.74 40.81 3.22 59.84-38.7 104.64-73.79 136.55-18.72 17.03-46.17 23.6-44.11 26.69 5.92 8.88 118.78-19.9 149.64-31.74 58.3-39.55 136.51-60.31 190.45-77.09 0-19.83-49.88-23.99-49.88-58.95 3.1-13.96 1.43-26.85 4.53-40.81 3.88-1.55 18.8-2.98 22.67-4.53 38.23 54.27 103.9 90.02 167.78 95.23-47.16-39.2-59.51-55.79-99.76-131.5.3-2.38.42-4.72.44-7.04-15.91-21.2-40.13-39.12-45.62-65.95 12.85 14.67 32.6 21.42 46.89 34.7 13.65 15.86 23.57 14.34 43.64 29.23 6.91-12.55 9.87-29.84 0-45.35-39.76-23.19-51.62-40.55-86.16-99.76 56.15 73.19 134.79 96.78 231.26 122.43-27.63-33.48-70.51-75.04-90.69-95.23 12.6-41.39 14.19-39.82 18.14-40.81 3.95-.99 26.2 8.71 36.28 22.67-4.65-30.24.12-55.91-4.53-86.16 27.87-12.08 48.68-10.83 63.48-22.67 14.8-11.84 28.89-19.74 27.2-27.21zM273 336c-17.52-21.5-72-86-72-86s48 45 66 67 62 93 62 93-34-47-56-74z" fill-rule="evenodd" clip-rule="evenodd"/>
</svg>
