<svg xmlns="http://www.w3.org/2000/svg" viewBox="0 0 80 80">
    <path d="M59.44 14.63h-14.8c-1.53 1.32-2.96 2.85-4.6 4.05-1.64-1.21-3.07-2.74-4.6-4.05H21.2c-.88 0-1.53.66-1.53 1.53v49.87c0 .88.66 1.53 1.53 1.53h2.3s.11-.22.22-.77c1.32-3.95 2.3-8.33 5.26-11.51 4.49-4.05 11.29-5.04 16.88-3.07 6.58 1.75 9.64 9.1 10.19 15.23h3.29c.88 0 1.53-.66 1.53-1.53V16.05c.11-.76-.66-1.42-1.43-1.42zm-19.5 33.1c-15.67-.44-15.67-23.12 0-23.67 15.56.43 15.56 23.12 0 23.67z"/>
    <path d="M65.03 15.83c-.66-8.88-12.06-4.71-17.86-6.14-2.74-1.53-4.82-3.73-7.12-5.81-1.53 1.42-2.96 2.85-4.6 4.16-5.04 4.6-12.93-.44-18.41 3.51-2.52 1.64-2.08 4.93-2.19 7.45.22 15.45 0 30.8.22 46.25-.33 2.63 1.64 4.49 3.62 5.81 4.82.88 9.86-.11 14.69.55 2.63.88 4.6 2.85 6.69 4.49 7.01-7.23 12.82-3.73 21.37-5.04 1.97-1.42 3.95-3.18 3.62-5.81.08-16.54.19-32.98-.03-49.42zM40.05 66.47c-2.63.44-6.36 1.42-9.1 2.08h-9.86c-1.42 0-2.63-1.21-2.63-2.63V16.05c0-1.42 1.21-2.63 2.63-2.63h13.26c1.97-1.21 3.95-2.52 5.7-4.05 1.75 1.53 3.62 2.96 5.7 4.05h13.7c1.42 0 2.63 1.21 2.63 2.63v49.87c0 1.42-1.21 2.63-2.63 2.63H47.83l-3.84-1.1"/>
</svg>
