<?xml version="1.0" encoding="utf-8"?>
<!-- Generator: Adobe Illustrator 24.1.1, SVG Export Plug-In . SVG Version: 6.00 Build 0)  -->
<svg version="1.1" id="图层_1" xmlns="http://www.w3.org/2000/svg" xmlns:xlink="http://www.w3.org/1999/xlink" x="0px" y="0px"
	 viewBox="0 0 432 432" style="enable-background:new 0 0 432 432;" xml:space="preserve">
<style type="text/css">
	.st0{fill:#040303;}
</style>
<path class="st0" d="M411.8,139.6c-47.3,21.4-10.8,16-21.4,35.5c-14.5,10.5-29.5,19.4-44.3,28.6c-9.4,5.8-18.1,15.6-30.2,14
	c-3.9-0.7-5.7-3.3-9.6-3.8c0.2-1.4-0.1-1.2-1.2-0.9c0.2-1.1-0.1-1.3-1.2-1.2c-1.3-0.9-2.1-2.8-3.2-3.1c-4.1-3.8-7.7-10.5-11.6-12.7
	c-18.9-26.1-40.9-51.7-55.6-77.6c-9.2-13.8,10.4-23.4,12.6-34.3c0.2-0.8-0.1-1.7-0.6-2.3c-4.8-5.9-18.4-24.7-24.5-34.4
	c-1.2-1.9-3.3-2.3-4.9-2.3c-1.6,0-3.1,0.9-4.5,2.9c-0.7,1.1-25.3,33.8-25.5,36.5c-0.1,1.7,1.3,4,4,7.5c29,20.5-8.3,47.3-19.9,68.8
	c-52.4,67.5-46.5,71.2-118.4,21c-33.9-21.3,26.7-17.8-39-47.2c-2.9,3.9,0.8,7.8,2,11.5l59,154.1c0.3,0.8,8.2,27.4,11.4,30.9
	c3.3,3.6,6.8,7.6,22.9,13.1c34.9,15.4,73.5,32.8,110.7,42.5c34.7-18.4,121.1-32.5,133.2-70.1l64.9-164.5
	C421.8,139.5,422.6,131.8,411.8,139.6z M274.2,276.4c-0.4,0.2-0.7,0.4-1.1,0.7c-0.4,1.2-1.2,2.2-2.6,2.8c-3.2,1.3-7.6,2.6-12.1,4.1
	c-3.9,1.4-7.8,2.7-11.7,4.1c-4.1,1.7-7.7,3.7-10,6.1c-7.1,7.3-11.7,26.7-15.5,35.9c-1.5,3.7-6.7,3.8-8.3,0.1
	c-4.3-9.5-5.5-25.2-15-34.9c-2.3-2.3-4.9-4.2-7.6-5.7c-4.6-2.1-9.8-3.8-15.4-6c-4-1.2-7.7-2.3-11-3.6c-3.7-1.5-3.7-6.9,0-8.4
	c9.3-3.8,27.9-8.5,34.5-15.6c6.7-7.3,10.9-25.7,14.8-34.9c1.6-3.6,6.7-3.7,8.3,0c0.7,1.6,1.4,3.6,2.2,5.7c1.1,2.3,2,5.2,2.8,8.3
	c2.7,8.3,5.8,17.1,9.7,21.4c2.9,3.3,8.7,5.9,14.9,8.2c4.9,1.3,11.2,3.2,13.1,4.2c0,0,0.7,0.3,1.6,0.8c1.7,0.6,3.4,1.2,4.8,1.8
	c1.4,0.6,2.3,1.7,2.6,2.9C274.5,275.9,275.2,276.3,274.2,276.4z"/>
</svg>
