<?xml version="1.0" encoding="utf-8"?>
<!-- Generator: Adobe Illustrator 24.1.1, SVG Export Plug-In . SVG Version: 6.00 Build 0)  -->
<svg version="1.1" id="图层_1" xmlns="http://www.w3.org/2000/svg" xmlns:xlink="http://www.w3.org/1999/xlink" x="0px" y="0px"
	 viewBox="0 0 420 420" style="enable-background:new 0 0 420 420;" xml:space="preserve">
<g id="_x23_ffffffff">
	<path d="M209.5,16.1c8.3,17.3,16.5,34.7,26.2,51.3c8.1,13.9,16.9,27.4,25.8,40.8c-5.8-1.6-11.4-3.6-16.8-6.1
		c-19.8,26-31.4,57.8-35.2,90.2c-3.8-32.4-15.4-64.2-35.2-90.2c-5.5,2.5-11.1,4.5-16.8,6.1c12-18.1,23.9-36.4,34-55.7
		C197.8,40.6,203.6,28.3,209.5,16.1 M190.6,92.8c10,18.7,16.4,39.4,18.9,60.5c2.5-21.1,8.9-41.7,18.9-60.4
		c-7.2-5.2-13.7-11.3-18.9-18.5C204.3,81.4,197.8,87.6,190.6,92.8z"/>
	<path d="M41.2,113.3c20.6,1.5,41.2,3.3,61.9,2.9c14.7-0.1,29.3-1,44-1.9c-4.3,4.2-8.8,8.1-13.7,11.5c12.6,30.2,34.3,56.1,60.5,75.5
		c-29.9-12.8-63.2-18.7-95.7-14.6c-0.6,5.9-1.7,11.8-3.2,17.6c-9.7-19.4-19.5-38.8-31.1-57.2C56.5,135.7,48.8,124.5,41.2,113.3
		 M91.6,142.4c3.6,8.1,5.6,16.8,6.5,25.6c21.2,0.6,42.3,5.5,61.8,13.8c-17-12.7-31.7-28.5-42.9-46.6
		C108.9,138.9,100.4,141.4,91.6,142.4z"/>
	<path d="M272,114.3c23.9,1.5,48,2.7,72,1.3c11.3-0.7,22.6-1.5,33.9-2.4c-10.1,14.9-20.5,29.6-29.5,45.2
		c-8.8,14.9-16.6,30.4-24.3,45.9c-1.5-5.8-2.5-11.7-3.1-17.6c-32.5-4.2-65.8,1.7-95.7,14.6c26.2-19.4,47.9-45.4,60.5-75.5
		C280.9,122.4,276.3,118.5,272,114.3 M259.1,181.9c19.5-8.3,40.6-13.2,61.8-13.8c0.9-8.8,2.9-17.5,6.6-25.6
		c-8.8-1-17.4-3.5-25.5-7.2C290.8,153.3,276.1,169.1,259.1,181.9z"/>
	<path d="M179.7,158.4c6.7,3,13.2,6.3,20,9c4.6,13,7.1,26.5,10,39.9c2.8-13.4,5.5-26.9,9.8-39.9c6.6-3.1,13.3-6.1,20-9
		c0.7,7.3,1.2,14.6,2.2,21.9c-9,10.4-19.4,19.4-29.6,28.5c12.9-4.2,25.8-8.6,39.1-11.4c6.3,3.7,12.1,8.6,18.2,12.8
		c-6,4.3-12.1,8.3-17.8,12.8c-13.5-2.6-26.5-7.1-39.6-11.3c10.2,9.1,20.5,18.2,29.7,28.4c-0.6,7.3-1.4,14.6-2.2,21.9
		c-6.7-3-13.2-6.3-20-9c-4.7-12.9-7.1-26.6-10.1-40c-2.8,13.4-5.5,26.9-9.8,39.9c-6.7,3.1-13.3,6.1-20.1,9.1
		c-0.7-7.3-1.1-14.6-2.2-21.9c9-10.4,19.4-19.4,29.6-28.6c-13,4.3-26,8.7-39.4,11.5c-6-4.2-12-8.5-17.9-12.8
		c6-4.3,12.1-8.4,17.9-12.8c13.5,2.6,26.5,7.1,39.5,11.3c-10.2-9.1-20.6-18.2-29.7-28.4C178.2,173,178.9,165.7,179.7,158.4z"/>
	<path d="M94.9,216.6c1.5,5.8,2.6,11.7,3.2,17.6c32.5,4.1,65.8-1.7,95.7-14.6c-26.1,19.4-47.9,45.4-60.5,75.6
		c4.9,3.5,9.4,7.4,13.7,11.6c-23.9-1.6-47.9-2.7-71.9-1.4c-11.3,0.7-22.6,1.4-33.9,2.4c9.5-13.8,19-27.6,27.6-42
		C78.3,249.8,86.7,233.2,94.9,216.6 M98.1,253c-0.9,8.8-3,17.5-6.5,25.6c8.8,0.9,17.4,3.5,25.5,7.1c11.2-18.1,25.9-33.9,42.9-46.6
		C140.4,247.5,119.3,252.3,98.1,253z"/>
	<path d="M320.9,234.2c0.6-5.9,1.6-11.8,3.1-17.6c7.6,15.1,15.1,30.3,23.7,44.9c9.2,15.9,19.7,31.1,30.1,46.2
		c-16.6-1.3-33.2-2.6-49.9-2.9c-18.7-0.3-37.3,0.7-56,1.9c4.3-4.2,8.8-8.1,13.7-11.5c-12.6-30.2-34.4-56.1-60.5-75.6
		C255.1,232.5,288.5,238.3,320.9,234.2 M259.1,239.1c17,12.7,31.7,28.6,42.9,46.6c8.1-3.6,16.6-6.2,25.5-7.1
		c-3.6-8.1-5.6-16.8-6.5-25.6C299.7,252.3,278.6,247.5,259.1,239.1z"/>
	<path d="M174.3,318.8c19.9-26,31.4-57.8,35.3-90.2c3.7,32.4,15.4,64.2,35.1,90.2c5.4-2.5,11.1-4.5,16.8-6.1
		c-9.4,14-18.5,28.2-27,42.8c-9.2,16-17.1,32.7-25.1,49.3c-7-14.7-14-29.5-21.9-43.7c-9.2-16.6-19.6-32.6-30.1-48.4
		C163.2,314.3,168.9,316.4,174.3,318.8 M190.6,328.2c7.2,5.2,13.7,11.3,18.9,18.5c5.2-7.2,11.8-13.3,18.9-18.5
		c-10-18.7-16.4-39.3-18.9-60.4C206.9,288.9,200.6,309.5,190.6,328.2z"/>
</g>
</svg>
