<svg xmlns="http://www.w3.org/2000/svg" viewBox="0 0 420 420">
    <path d="M209.5 16.1c8.3 17.3 16.5 34.7 26.2 51.3 8.1 13.9 16.9 27.4 25.8 40.8-5.8-1.6-11.4-3.6-16.8-6.1-19.8 26-31.4 57.8-35.2 90.2-3.8-32.4-15.4-64.2-35.2-90.2-5.5 2.5-11.1 4.5-16.8 6.1 12-18.1 23.9-36.4 34-55.7 6.3-11.9 12.1-24.2 18-36.4m-18.9 76.7c10 18.7 16.4 39.4 18.9 60.5 2.5-21.1 8.9-41.7 18.9-60.4-7.2-5.2-13.7-11.3-18.9-18.5-5.2 7-11.7 13.2-18.9 18.4zM41.2 113.3c20.6 1.5 41.2 3.3 61.9 2.9 14.7-.1 29.3-1 44-1.9-4.3 4.2-8.8 8.1-13.7 11.5 12.6 30.2 34.3 56.1 60.5 75.5-29.9-12.8-63.2-18.7-95.7-14.6-.6 5.9-1.7 11.8-3.2 17.6-9.7-19.4-19.5-38.8-31.1-57.2-7.4-11.4-15.1-22.6-22.7-33.8m50.4 29.1c3.6 8.1 5.6 16.8 6.5 25.6 21.2.6 42.3 5.5 61.8 13.8-17-12.7-31.7-28.5-42.9-46.6-8.1 3.7-16.6 6.2-25.4 7.2zM272 114.3c23.9 1.5 48 2.7 72 1.3 11.3-.7 22.6-1.5 33.9-2.4-10.1 14.9-20.5 29.6-29.5 45.2-8.8 14.9-16.6 30.4-24.3 45.9-1.5-5.8-2.5-11.7-3.1-17.6-32.5-4.2-65.8 1.7-95.7 14.6 26.2-19.4 47.9-45.4 60.5-75.5-4.9-3.4-9.5-7.3-13.8-11.5m-12.9 67.6c19.5-8.3 40.6-13.2 61.8-13.8.9-8.8 2.9-17.5 6.6-25.6-8.8-1-17.4-3.5-25.5-7.2-11.2 18-25.9 33.8-42.9 46.6z"/>
    <path d="M179.7 158.4c6.7 3 13.2 6.3 20 9 4.6 13 7.1 26.5 10 39.9 2.8-13.4 5.5-26.9 9.8-39.9 6.6-3.1 13.3-6.1 20-9 .7 7.3 1.2 14.6 2.2 21.9-9 10.4-19.4 19.4-29.6 28.5 12.9-4.2 25.8-8.6 39.1-11.4 6.3 3.7 12.1 8.6 18.2 12.8-6 4.3-12.1 8.3-17.8 12.8-13.5-2.6-26.5-7.1-39.6-11.3 10.2 9.1 20.5 18.2 29.7 28.4-.6 7.3-1.4 14.6-2.2 21.9-6.7-3-13.2-6.3-20-9-4.7-12.9-7.1-26.6-10.1-40-2.8 13.4-5.5 26.9-9.8 39.9-6.7 3.1-13.3 6.1-20.1 9.1-.7-7.3-1.1-14.6-2.2-21.9 9-10.4 19.4-19.4 29.6-28.6-13 4.3-26 8.7-39.4 11.5-6-4.2-12-8.5-17.9-12.8 6-4.3 12.1-8.4 17.9-12.8 13.5 2.6 26.5 7.1 39.5 11.3-10.2-9.1-20.6-18.2-29.7-28.4.9-7.3 1.6-14.6 2.4-21.9z"/>
    <path d="M94.9 216.6c1.5 5.8 2.6 11.7 3.2 17.6 32.5 4.1 65.8-1.7 95.7-14.6-26.1 19.4-47.9 45.4-60.5 75.6 4.9 3.5 9.4 7.4 13.7 11.6-23.9-1.6-47.9-2.7-71.9-1.4-11.3.7-22.6 1.4-33.9 2.4 9.5-13.8 19-27.6 27.6-42 9.5-16 17.9-32.6 26.1-49.2m3.2 36.4c-.9 8.8-3 17.5-6.5 25.6 8.8.9 17.4 3.5 25.5 7.1 11.2-18.1 25.9-33.9 42.9-46.6-19.6 8.4-40.7 13.2-61.9 13.9zM320.9 234.2c.6-5.9 1.6-11.8 3.1-17.6 7.6 15.1 15.1 30.3 23.7 44.9 9.2 15.9 19.7 31.1 30.1 46.2-16.6-1.3-33.2-2.6-49.9-2.9-18.7-.3-37.3.7-56 1.9 4.3-4.2 8.8-8.1 13.7-11.5-12.6-30.2-34.4-56.1-60.5-75.6 30 12.9 63.4 18.7 95.8 14.6m-61.8 4.9c17 12.7 31.7 28.6 42.9 46.6 8.1-3.6 16.6-6.2 25.5-7.1-3.6-8.1-5.6-16.8-6.5-25.6-21.3-.7-42.4-5.5-61.9-13.9zM174.3 318.8c19.9-26 31.4-57.8 35.3-90.2 3.7 32.4 15.4 64.2 35.1 90.2 5.4-2.5 11.1-4.5 16.8-6.1-9.4 14-18.5 28.2-27 42.8-9.2 16-17.1 32.7-25.1 49.3-7-14.7-14-29.5-21.9-43.7-9.2-16.6-19.6-32.6-30.1-48.4 5.8 1.6 11.5 3.7 16.9 6.1m16.3 9.4c7.2 5.2 13.7 11.3 18.9 18.5 5.2-7.2 11.8-13.3 18.9-18.5-10-18.7-16.4-39.3-18.9-60.4-2.6 21.1-8.9 41.7-18.9 60.4z"/>
</svg>
