<svg xmlns="http://www.w3.org/2000/svg" viewBox="0 0 420 420">
    <path d="M209.95 2.59c8.86 18.46 17.61 37.03 27.96 54.75 8.64 14.83 18.04 29.24 27.53 43.54-6.19-1.71-12.17-3.84-17.93-6.51-21.13 27.75-33.51 61.69-37.57 96.26-4.06-34.58-16.44-68.52-37.57-96.26-5.87 2.67-11.85 4.8-17.93 6.51 12.81-19.32 25.51-38.85 36.29-59.44 6.73-12.71 12.92-25.83 19.22-38.85m-20.17 81.85c10.67 19.96 17.5 42.05 20.17 64.57 2.67-22.52 9.5-44.5 20.17-64.46-7.69-5.55-14.62-12.06-20.17-19.75-5.55 7.48-12.49 14.09-20.17 19.64zM30.33 106.32c21.98 1.6 43.97 3.52 66.06 3.09 15.69-.11 31.27-1.07 46.96-2.03-4.59 4.48-9.39 8.64-14.62 12.27 13.45 32.23 36.61 59.87 64.57 80.58-31.91-13.66-67.45-19.96-102.13-15.58-.64 6.3-1.81 12.59-3.42 18.78-10.35-20.7-20.81-41.41-33.19-61.05-7.9-12.15-16.12-24.11-24.23-36.06m53.79 31.06c3.84 8.64 5.98 17.93 6.94 27.32 22.63.64 45.14 5.87 65.95 14.73-18.14-13.55-33.83-30.42-45.78-49.73-8.65 3.94-17.72 6.61-27.11 7.68zm192.53-29.99c25.51 1.6 51.23 2.88 76.84 1.39 12.06-.75 24.12-1.6 36.18-2.56-10.78 15.9-21.88 31.59-31.48 48.24-9.39 15.9-17.72 32.44-25.93 48.99-1.6-6.19-2.67-12.49-3.31-18.78-34.68-4.48-70.22 1.81-102.13 15.58 27.96-20.7 51.12-48.45 64.57-80.58-5.24-3.64-10.15-7.8-14.74-12.28m-13.77 72.14c20.81-8.86 43.33-14.09 65.95-14.73.96-9.39 3.09-18.68 7.04-27.32-9.39-1.07-18.57-3.74-27.21-7.68-11.95 19.21-27.64 36.07-45.78 49.73z"/>
    <path d="M178.14 154.45c7.15 3.2 14.09 6.72 21.34 9.6 4.91 13.87 7.58 28.28 10.67 42.58 2.99-14.3 5.87-28.71 10.46-42.58a742.71 742.71 0 0121.34-9.6c.75 7.79 1.28 15.58 2.35 23.37-9.6 11.1-20.7 20.7-31.59 30.42 13.77-4.48 27.53-9.18 41.73-12.17 6.72 3.95 12.91 9.18 19.42 13.66-6.4 4.59-12.91 8.86-19 13.66-14.41-2.77-28.28-7.58-42.26-12.06 10.89 9.71 21.88 19.42 31.7 30.31-.64 7.79-1.49 15.58-2.35 23.37-7.15-3.2-14.09-6.72-21.34-9.6-5.02-13.77-7.58-28.39-10.78-42.69-2.99 14.3-5.87 28.71-10.46 42.58-7.15 3.31-14.19 6.51-21.45 9.71-.75-7.79-1.17-15.58-2.35-23.37 9.6-11.1 20.7-20.7 31.59-30.52-13.87 4.59-27.75 9.28-42.05 12.27-6.4-4.48-12.81-9.07-19.1-13.66 6.4-4.59 12.91-8.96 19.1-13.66 14.41 2.77 28.28 7.58 42.16 12.06-10.89-9.71-21.98-19.42-31.7-30.31.97-7.79 1.72-15.58 2.57-23.37z"/>
    <path d="M87.64 216.56c1.6 6.19 2.77 12.49 3.42 18.78 34.68 4.38 70.22-1.81 102.13-15.58-27.85 20.7-51.12 48.45-64.57 80.68 5.23 3.74 10.03 7.9 14.62 12.38-25.51-1.71-51.12-2.88-76.73-1.49-12.06.75-24.12 1.49-36.18 2.56 10.14-14.73 20.28-29.46 29.46-44.82 10.14-17.07 19.1-34.79 27.85-52.51m3.42 38.85c-.96 9.39-3.2 18.68-6.94 27.32 9.39.96 18.57 3.74 27.21 7.58 11.95-19.32 27.64-36.18 45.78-49.73-20.91 8.96-43.43 14.08-66.05 14.83zm237.78-20.06c.64-6.3 1.71-12.59 3.31-18.78 8.11 16.12 16.12 32.34 25.29 47.92 9.82 16.97 21.02 33.19 32.12 49.31-17.72-1.39-35.43-2.77-53.25-3.09-19.96-.32-39.81.75-59.76 2.03 4.59-4.48 9.39-8.64 14.62-12.27-13.45-32.23-36.71-59.87-64.57-80.68 32.01 13.74 67.66 19.93 102.24 15.56m-65.96 5.23c18.14 13.55 33.83 30.52 45.78 49.73 8.64-3.84 17.72-6.62 27.21-7.58-3.84-8.64-5.98-17.93-6.94-27.32-22.72-.75-45.24-5.87-66.05-14.83zm-90.5 85.05c21.24-27.75 33.51-61.69 37.67-96.26 3.95 34.58 16.44 68.52 37.46 96.26 5.76-2.67 11.85-4.8 17.93-6.51-10.03 14.94-19.74 30.1-28.81 45.68-9.82 17.08-18.25 34.9-26.79 52.61-7.47-15.69-14.94-31.48-23.37-46.64-9.82-17.72-20.92-34.79-32.12-51.65 6.18 1.71 12.27 3.95 18.03 6.51m17.4 10.04c7.68 5.55 14.62 12.06 20.17 19.74 5.55-7.68 12.59-14.19 20.17-19.74-10.67-19.96-17.5-41.94-20.17-64.46-2.78 22.51-9.5 44.5-20.17 64.46z"/>
</svg>
