<svg xmlns="http://www.w3.org/2000/svg" viewBox="0 0 1000 1000">
    <path d="M890.78 102.57c-124.16-7.63-248.82-27.58-372.63-34.95-.04-.14-.08-.28-.11-.43-136.26 3.88-273.85 28.05-410.54 36.41C123.98 580.58 12.33 600 381.64 865.62c23.83 17.61 51.08 35.56 75.81 50.01.17-.05.33-.11.49-.16 11.8 6.61 22.03 11.93 28.83 15.37a18.164 18.164 0 0017.11-.36c30.44-17.1 110.02-61.57 125.84-70.57h-.01c372.68-215.41 237.68-419.64 261.07-757.34zM223.59 606.41c-56.66-80.97-31.48-212.25-36.83-303.96.03-31.4-.02-74.94 0-106.29 14.56-3.54 35.38-8.61 49.86-12.13 83.04-21.16 169.15-37.04 255.03-29.88 6.51 214.78-3.22 436.55-3.31 653.39-65.87-18.17-234.11-157.9-264.75-201.13z"/>
</svg>
