<svg xmlns="http://www.w3.org/2000/svg" viewBox="0 0 1000 1000">
    <path d="M502.38 298.1c128.25-64.77 46.12-164.39 0-232.11-46.56 68.22-127.96 167.48 0 232.11zM560.46 654.21s65.88-27.45 117.76-71.33c14.69-1.78 33.84-3.42 45.99-1.8 23.85 3.18 39.74 4.77 39.74 4.77s-34.73-20.84-59.27-28.5c116.18-135.61-65.74-227.46-144.22-138.42 33.2-2.71 112.86 1.13 104.92 84.26-2.21 57.53-104.92 151.02-104.92 151.02zM380.81 428.46c42.32-14.94 66.77-9.54 66.77-9.54-78.74-89.14-260.31 3.01-144.22 138.42-24.54 7.67-59.27 28.5-59.27 28.5s15.9-1.59 39.74-4.77c12.15-1.62 31.3.02 45.99 1.8 51.88 43.88 117.76 71.33 117.76 71.33s-102.71-93.49-104.93-151.03c-1.58-41.32 11.13-65.17 38.16-74.71zM886.36 328.3c25.44-12.72 49.28-84.26 49.28-84.26-51.08-.28-130.21-5.09-124 82.67 0 0 49.28 14.31 74.72 1.59zM905.44 523.85c-25.44 0-46.1 30.21-46.1 30.21 39.48 43.55 69.46 29.36 109.69 0 0-.01-38.16-30.21-63.59-30.21zM113.64 328.3c25.44 12.72 74.72-1.59 74.72-1.59 6.3-88.01-73.64-82.91-124-82.67 0 .01 23.84 71.55 49.28 84.26zM94.56 523.85c-25.44 0-63.59 30.21-63.59 30.21 40.57 29.65 70.39 43.32 109.69 0 .01-.01-20.66-30.21-46.1-30.21z"/>
    <path d="M803.33 329.32c-97.88-99.48-233.75-64.32-289.25-.59-9.43 9.81-9.1 25.41.72 34.83 9.82 9.42 25.42 9.1 34.84-.72 100.3-111.47 303.67-10.06 258.39 166.43C789 611 709.97 683.08 643 715c-60.64 21.58-118.77 60.68-143 99.29-24.34-38.76-82.32-77.64-143-99.29-66.97-31.92-146-104-165.02-185.73-25.18-110.79 33.99-195.76 137.04-213.22 97.6-12.55 118.92 78.83 156.19 47.51 9.82-9.42 10.14-25.02.72-34.84-2.99-3.11-74.17-76.03-164.81-61.31-298.24 65.29-196.13 403.98 21.45 495.22C389.18 778.88 465.55 838.72 475 870c5.91 9.79 21.06 52.29 24.96 64.01 0 0 .02-.05.04-.13.03.08.04.13.04.13 25.3-86.64 62.78-128.32 157.4-171.38 146.76-53.66 295.51-305.18 145.89-433.31z"/>
</svg>
