<svg xmlns="http://www.w3.org/2000/svg" viewBox="0 0 420 420">
    <path d="M210.9 19.3c25.6.1 51.6 4.2 75.2 14.5C318.5 47.9 347 70.7 368.2 99c5.3 7.4 10 15.2 14.4 23.1 9.6 19.1 16.6 39.6 19.2 60.9-6-9.7-11-20-17.3-29.5-9.8-14.9-21.4-29.2-36.9-38.5 4.4 14.6 7.7 29.7 8.6 45 .9 11.7-.6 23.5-2.7 35-3.8 14.2-9.5 28.1-18.7 39.7-11.6 14.8-28.4 24.6-45.8 31.1 4.8-9.9 8.9-21.2 6.2-32.3-4.1-12.6-15.7-21.9-28.4-24.9-11.4-2.9-23.2.2-33.8 4.6-27.4 11.8-42.3 45.2-35 73.8 4.3 18.9 16 36.1 32.3 46.7 21.5 14.3 49.3 16.3 73.8 9.5 20.8-6.2 41-14.8 59-27 4.4-2.8 8.5-6 12.9-8.7-12.2 21.3-28.8 40.2-48.3 55.2-18.8 14.4-40.4 25.1-63.1 32.1-12 3.8-24.5 5.4-36.8 7.5-12.3.8-24.7 1.1-36.9-.2-16.5-1.5-32.7-5.7-48.1-11.7-1.3-.6-2.6-1.2-3.9-1.9 14 .8 28 0 42-.4 15.5-1.4 30.9-5 45-11.9-9.1-1.5-17.9-4.7-26.5-7.9-14.1-5.3-27.8-12.1-39.6-21.5-15.9-12.4-28-29.6-33.9-48.9-4.2-15.2-4.6-31.3-1.7-46.8 1.2 2.3 2 4.8 3.8 6.7 4.8 5.4 9.8 11.1 16.8 13.5 11.6 4.3 24.3 0 34.1-6.5 9.7-7.8 15.2-19.9 17.3-31.9 2.3-13.2.4-27.3-6.4-39-9.1-16-24.2-29.4-42.4-33.6-15.4-3.6-31.9-2.9-46.8 2.6-15 5.9-28.4 16.1-37.4 29.6-13.2 19.4-19 43-20.6 66.1-1.4 15.7-1.8 31.6.7 47.2-16.1-27.7-24.5-59.7-25.3-91.7-.3-21.3 3.6-42.5 9.8-62.9 4.2-13.7 10.1-26.9 17.6-39.1 12.7-20.2 28-39.1 47.6-53C81.1 79.6 67.5 99.6 62.1 123c-1.5 5.8-1.9 11.8-2.7 17.8 11.8-12.5 24.8-24 39.5-32.9 19.5-11.5 42.4-18.4 65.2-15.9 19.9 1.9 38.6 10.6 54.1 23.1.6.5 1.2 1.1 1.6 1.8-3.1-1.4-6.5-.2-9.7.2-8.5 2-17.6 4.8-23 12.1-7.6 10.3-8.7 24.5-4.2 36.3 3.5 10.3 11 18.9 19.8 25.1 13.6 9.7 31.2 13.5 47.6 10.4 15.1-2.5 29.3-10.6 39.2-22.3 9.4-10.8 15.5-24.3 18-38.4 2.2-17.5-.3-35.9-9.1-51.3-13.3-25-36.6-42.6-60.5-56.6-9-4.6-17.5-10-27-13.1z"/>
</svg>
