<?xml version="1.0" encoding="utf-8"?>
<!-- Generator: Adobe Illustrator 24.1.1, SVG Export Plug-In . SVG Version: 6.00 Build 0)  -->
<svg version="1.1" id="图层_1" xmlns="http://www.w3.org/2000/svg" xmlns:xlink="http://www.w3.org/1999/xlink" x="0px" y="0px"
	 viewBox="0 0 420 420" style="enable-background:new 0 0 420 420;" xml:space="preserve">
<g id="_x23_ffffffff">
	<path d="M210.9,19.3c25.6,0.1,51.6,4.2,75.2,14.5C318.5,47.9,347,70.7,368.2,99c5.3,7.4,10,15.2,14.4,23.1
		c9.6,19.1,16.6,39.6,19.2,60.9c-6-9.7-11-20-17.3-29.5c-9.8-14.9-21.4-29.2-36.9-38.5c4.4,14.6,7.7,29.7,8.6,45
		c0.9,11.7-0.6,23.5-2.7,35c-3.8,14.2-9.5,28.1-18.7,39.7c-11.6,14.8-28.4,24.6-45.8,31.1c4.8-9.9,8.9-21.2,6.2-32.3
		c-4.1-12.6-15.7-21.9-28.4-24.9c-11.4-2.9-23.2,0.2-33.8,4.6c-27.4,11.8-42.3,45.2-35,73.8c4.3,18.9,16,36.1,32.3,46.7
		c21.5,14.3,49.3,16.3,73.8,9.5c20.8-6.2,41-14.8,59-27c4.4-2.8,8.5-6,12.9-8.7c-12.2,21.3-28.8,40.2-48.3,55.2
		c-18.8,14.4-40.4,25.1-63.1,32.1c-12,3.8-24.5,5.4-36.8,7.5c-12.3,0.8-24.7,1.1-36.9-0.2c-16.5-1.5-32.7-5.7-48.1-11.7
		c-1.3-0.6-2.6-1.2-3.9-1.9c14,0.8,28,0,42-0.4c15.5-1.4,30.9-5,45-11.9c-9.1-1.5-17.9-4.7-26.5-7.9c-14.1-5.3-27.8-12.1-39.6-21.5
		c-15.9-12.4-28-29.6-33.9-48.9c-4.2-15.2-4.6-31.3-1.7-46.8c1.2,2.3,2,4.8,3.8,6.7c4.8,5.4,9.8,11.1,16.8,13.5
		c11.6,4.3,24.3,0,34.1-6.5c9.7-7.8,15.2-19.9,17.3-31.9c2.3-13.2,0.4-27.3-6.4-39c-9.1-16-24.2-29.4-42.4-33.6
		c-15.4-3.6-31.9-2.9-46.8,2.6c-15,5.9-28.4,16.1-37.4,29.6c-13.2,19.4-19,43-20.6,66.1c-1.4,15.7-1.8,31.6,0.7,47.2
		c-16.1-27.7-24.5-59.7-25.3-91.7c-0.3-21.3,3.6-42.5,9.8-62.9c4.2-13.7,10.1-26.9,17.6-39.1c12.7-20.2,28-39.1,47.6-53
		C81.1,79.6,67.5,99.6,62.1,123c-1.5,5.8-1.9,11.8-2.7,17.8c11.8-12.5,24.8-24,39.5-32.9c19.5-11.5,42.4-18.4,65.2-15.9
		c19.9,1.9,38.6,10.6,54.1,23.1c0.6,0.5,1.2,1.1,1.6,1.8c-3.1-1.4-6.5-0.2-9.7,0.2c-8.5,2-17.6,4.8-23,12.1
		c-7.6,10.3-8.7,24.5-4.2,36.3c3.5,10.3,11,18.9,19.8,25.1c13.6,9.7,31.2,13.5,47.6,10.4c15.1-2.5,29.3-10.6,39.2-22.3
		c9.4-10.8,15.5-24.3,18-38.4c2.2-17.5-0.3-35.9-9.1-51.3c-13.3-25-36.6-42.6-60.5-56.6C228.9,27.8,220.4,22.4,210.9,19.3z"/>
</g>
</svg>
