<svg xmlns="http://www.w3.org/2000/svg" viewBox="0 0 420 420">
    <path d="M210.98 22.95c24.96.1 50.31 4.09 73.32 14.14 31.59 13.75 59.38 35.98 80.05 63.57 5.17 7.21 9.75 14.82 14.04 22.52 9.36 18.62 16.18 38.61 18.72 59.38-5.85-9.46-10.72-19.5-16.87-28.76-9.55-14.53-20.86-28.47-35.98-37.54 4.29 14.23 7.51 28.96 8.38 43.87.88 11.41-.58 22.91-2.63 34.12-3.7 13.84-9.26 27.4-18.23 38.71-11.31 14.43-27.69 23.98-44.65 30.32 4.68-9.65 8.68-20.67 6.04-31.49-4-12.28-15.31-21.35-27.69-24.28-11.11-2.83-22.62.19-32.95 4.48-26.71 11.5-41.24 44.07-34.12 71.95 4.19 18.43 15.6 35.2 31.49 45.53 20.96 13.94 48.07 15.89 71.95 9.26 20.28-6.04 39.97-14.43 57.52-26.32 4.29-2.73 8.29-5.85 12.58-8.48-11.89 20.77-28.08 39.19-47.09 53.82-18.33 14.04-39.39 24.47-61.52 31.3-11.7 3.7-23.89 5.26-35.88 7.31-11.99.78-24.08 1.07-35.98-.2-16.09-1.46-31.88-5.56-46.9-11.41-1.27-.58-2.53-1.17-3.8-1.85 13.65.78 27.3 0 40.95-.39 15.11-1.36 30.13-4.87 43.87-11.6-8.87-1.46-17.45-4.58-25.84-7.7-13.75-5.17-27.1-11.8-38.61-20.96-15.5-12.09-27.3-28.86-33.05-47.68-4.09-14.82-4.48-30.52-1.66-45.63 1.17 2.24 1.95 4.68 3.7 6.53 4.68 5.26 9.55 10.82 16.38 13.16 11.31 4.19 23.69 0 33.25-6.34 9.46-7.6 14.82-19.4 16.87-31.1 2.24-12.87.39-26.62-6.24-38.02-8.87-15.6-23.59-28.66-41.34-32.76-15.01-3.51-31.1-2.83-45.63 2.53-14.62 5.75-27.69 15.7-36.46 28.86-12.87 18.91-18.52 41.92-20.08 64.45-1.36 15.31-1.75 30.81.68 46.02-15.7-27.01-23.89-58.21-24.67-89.41-.29-20.77 3.51-41.44 9.55-61.33 4.09-13.36 9.85-26.23 17.16-38.12C62 93.74 76.92 75.31 96.03 61.76c-11.6 19.99-24.86 39.49-30.13 62.3-1.46 5.65-1.85 11.5-2.63 17.35 11.5-12.19 24.18-23.4 38.51-32.08 19.01-11.21 41.34-17.94 63.57-15.5 19.4 1.85 37.63 10.33 52.75 22.52.59.49 1.17 1.07 1.56 1.75-3.02-1.36-6.34-.19-9.46.19-8.29 1.95-17.16 4.68-22.42 11.8-7.41 10.04-8.48 23.89-4.09 35.39 3.41 10.04 10.72 18.43 19.3 24.47 13.26 9.46 30.42 13.16 46.41 10.14 14.72-2.44 28.57-10.33 38.22-21.74 9.16-10.53 15.11-23.69 17.55-37.44 2.14-17.06-.29-35-8.87-50.02-12.97-24.37-35.68-41.53-58.99-55.18-8.78-4.47-17.06-9.73-26.33-12.76z"/>
</svg>
