<svg xmlns="http://www.w3.org/2000/svg" viewBox="0 0 1000 1000">
    <path d="M688.81 903.97c-64.16 0-124.47-24.98-169.84-70.35-45.37-45.37-70.35-105.68-70.35-169.84 0-75.78-61.65-137.44-137.44-137.44S173.75 588 173.75 663.78s61.65 137.44 137.44 137.44c25.98 0 51.25-7.27 73.09-21.02 24.01-15.12 55.73-7.91 70.85 16.1 15.12 24.01 7.91 55.73-16.1 70.85-38.25 24.09-82.46 36.82-127.84 36.82-64.16 0-124.47-24.98-169.84-70.35C95.98 788.26 71 727.94 71 663.78s24.98-124.47 70.35-169.84 105.68-70.35 169.84-70.35 124.47 24.98 169.84 70.35 70.35 105.68 70.35 169.84c0 75.78 61.65 137.44 137.44 137.44s137.44-61.65 137.44-137.44c0-41.47-18.46-80.31-50.64-106.57-21.99-17.94-25.27-50.3-7.33-72.28 17.94-21.99 50.3-25.27 72.28-7.33C896.76 523.45 929 591.31 929 663.78c0 64.16-24.98 124.47-70.35 169.84-45.36 45.37-105.68 70.35-169.84 70.35z"/>
    <path d="M669.84 166.38C624.47 121.01 564.16 96.03 500 96.03s-124.47 24.98-169.84 70.35c-45.36 45.37-70.35 105.68-70.35 169.84 0 10.35.66 20.61 1.95 30.71.88 6.91 7.2 11.86 14.11 10.98 12.2-1.56 24.57-2.35 37.07-2.35 12.85 0 25.58.84 38.11 2.49 8.65 1.14 15.82-6.53 14.12-15.09-1.72-8.65-2.62-17.59-2.62-26.74 0-75.78 61.65-137.44 137.44-137.44 75.78 0 137.44 61.65 137.44 137.44 0 59.89-38.51 110.95-92.06 129.74-8.18 2.87-11.12 12.96-5.75 19.77 15.71 19.92 28.58 41.62 38.42 64.61 2.78 6.49 10.25 9.49 16.74 6.71 24.26-10.42 46.8-24.89 66.77-43.08 51.94-47.31 80.73-115.3 78.51-185.52-1.93-61.25-26.7-118.55-70.22-162.07z"/>
</svg>
