<?xml version="1.0" encoding="utf-8"?>
<!-- Generator: Adobe Illustrator 24.1.1, SVG Export Plug-In . SVG Version: 6.00 Build 0)  -->
<svg version="1.1" id="图层_1" xmlns="http://www.w3.org/2000/svg" xmlns:xlink="http://www.w3.org/1999/xlink" x="0px" y="0px"
	 viewBox="0 0 1000 1000" style="enable-background:new 0 0 1000 1000;" xml:space="preserve">
<g id="_x23_ffffffff">
</g>
<g id="_x23_000000ff">
	<path d="M194,39.9c52.4-8.3,27,63.3,22.4,91.9c-8.2,40.7-15.3,80.3-14.1,122.6c3.7,32.9,44.7,35.8,68.6,49.2
		c14.8,11.3,23.2-9.4,34.6-14.8c19.6-13.8,39.8-26.8,62.5-34.4c80.2-29.8,173.9-34.2,255-2.8c26,12.4,49.9,28,74.1,43.6
		c9.4,5.1,18,17.8,29.7,11.4c69.2-28.7,81.9-30.6,68.6-108.1c-1.8-29.5-8.3-57.2-15.1-85.6c-8.1-26.1-21.6-84.8,25.6-72.7
		c68.6,44.1,115.6,201.7,123.3,278c-5.6,51-51,90-92.6,116.7c-31.5,11.8,1.3,41.4,0.9,64.8c59.5,191.5-80.4,420-279.6,456.7
		c-140.3,27.4-298-64-362.5-191.7c-51.4-97.1-51.8-213.6-14.6-313.9c-44.9-41-113.5-83.6-109.8-152.6
		C90.7,207.4,124.5,106.5,194,39.9 M499,297.4c-56,7.3-86.6,76.7-119.8,116.2c-30.6,36.7-18.7,58.7,5.6,93.3
		c32.6,31.5,64.3,67.7,110.8,76.9c49.9,0.6,144.1-84.7,139.9-132.2C630.8,418.3,536.5,289.2,499,297.4 M330.4,336.8
		C280.3,387.1,233,471.6,233,513.7S316.1,629.3,349.2,660s49,44.7,71.4,66.8c10.5,18.5,7.6,38.1,10.4,58.5c-4,24,18.2,62.6,39.5,33
		c10.4-36.3,7.6-102.5,7.6-124s-44.5-54.3-55.7-64.3c-11.2-10.1-79.5-71.3-93.3-84.8s-57-51.4-41.1-89.5
		C288.3,431.9,382.5,330.9,330.4,336.8 M654.6,351c2.4,35.8,36,61.6,51.9,91.5c12.4,27,9.5,51.9-13.3,76.9
		c-22.9,25-58.2,60.5-77.7,80.4c-19.5,19.8-88.2,72.3-92.2,88.3c-4,16-0.2,110.5-1.1,117.2c1.8,29.8,41.3,34.9,42.3,3.5
		c3.5-109.3,35.5-108.1,71.3-138.4C671.5,640,714.1,602,754,554.9c19.5-27.7,13.5-63.5,2.2-91.3C743.1,438.5,683.1,324,654.6,351z"
		/>
</g>
</svg>
