<?xml version="1.0" encoding="utf-8"?>
<!-- Generator: Adobe Illustrator 24.1.1, SVG Export Plug-In . SVG Version: 6.00 Build 0)  -->
<svg version="1.1" id="图层_1" xmlns="http://www.w3.org/2000/svg" xmlns:xlink="http://www.w3.org/1999/xlink" x="0px" y="0px"
	 viewBox="0 0 432 432" style="enable-background:new 0 0 432 432;" xml:space="preserve">
<style type="text/css">
	.st0{fill:#040303;}
</style>
<g>
	<path class="st0" d="M246.9,319.2c50.2-15.1,14.3-69,32.1-60.9c96.5,33.7,134.9-149.1,33.2-91C276.4,174,415.7,55.1,286.8,18.3
		c-42.7,22.3-55.4,77.7-69.2,120.2c-16.1-34-38.1-82.4-83.4-94.6c-13.2-5.9-42-9-39.8,12.9C81.9,68.4,63.7,74.6,68.9,95.6
		c6.7,44.7,36.7,77.4,72.4,102.9c-82-14.9-200.8,75.2-62.9,104.2c29.7,1.9,62.3,1.8,88.5-13.3C152.6,351.4,208.9,337.3,246.9,319.2z
		 M214,139.7C214,139.8,214,139.8,214,139.7C214,139.8,214.1,139.9,214,139.7z M146.8,297.2C146.9,297.2,146.9,297.2,146.8,297.2
		C146.9,297.2,146.8,297.2,146.8,297.2z M242.1,179.3c-9.6,7.9-6.7,20.4-10.6,29.7c-4.7,9.3-13.3,14.6-14.3,25.7
		c-6,3.5-0.9-13.6-7.9-15.8c-10-8.3-4.9-23.2-14-31.2c-6.8-15.3,14.9,6.9,21.4,0C223.9,186.6,239.7,168.8,242.1,179.3z"/>
	<path class="st0" d="M405.9,257.6c-123,4.3-85.1,116.9-114.1,24.1c-17.5,21.4-17.9,58.1-26,83.7c-6.1,15.6-25.3,30.6-24.2,48.3
		c10.5-10.4,30.5-24.3,40.8-39.8c9.8-12.9,12.4-34.6,32.7-33.6c34.1,1.7,69.9-8.9,82.6-43.9C398.9,282.5,434.1,249.4,405.9,257.6z
		 M309.1,321.5c16-5.5,27.3-20.6,44.9-24.6C345.2,305.4,316.2,335.8,309.1,321.5z"/>
</g>
</svg>
