<svg xmlns="http://www.w3.org/2000/svg" viewBox="0 0 80 80">
    <path d="M48.02 19.29c4.89-4.07 10.7-7.91 17.1-8.61.35 0 .47.35.35.58-2.68 3.14-6.52 5.47-7.79 9.54 3.96-1.75 7.1-4.54 10.7-6.86.58-.35 1.28-.58 1.86-.23.58.35.12 1.4-.12 2.33-1.05 3.72-6.05 6.4-6.05 10.82 3.61-2.21 6.05-5.93 9.66-8.14.23-.12.47 0 .35.23-1.51 7.79-6.17 15.12-12.8 19.55-5 3.61-12.22-.7-16.4 4.54-1.4-1.51-2.91-2.91-4.42-4.3 1.05-1.28 2.09-2.56 3.14-3.72-1.05-5.61-.12-12.01 4.42-15.73z"/>
    <path d="M9.51 12.54c9.07-2.91 18.5 2.91 23.27 10.47 2.44 3.72 1.16 8.26 1.28 12.45 4.07 3.26 7.91 6.86 11.63 10.47 5.7 5.7 12.1 10.59 17.57 16.4.81 3.49-1.86 6.75-5.35 6.98-3.14-1.05-4.89-4.07-7.1-6.28C43.6 55.47 36.62 47.79 29.64 40c-3.84-.12-8.14.81-11.63-1.16-5.82-2.79-9.66-8.61-11.63-14.66-.71-3.96-1.29-9.54 3.13-11.64z"/>
    <path d="M14.16 61.87c5.47-4.89 10.47-10.35 16.52-14.54.23-.12.47-.12.7 0 1.28 1.05 2.68 2.09 3.84 3.26 1.4 2.68-1.4 4.65-2.91 6.4-3.84 3.72-7.21 7.79-11.17 11.29-1.86 1.75-4.3.35-6.17-.58-.12-.12-.23-.12-.23-.23-.81-1.51-.58-3.37-.7-5.12-.11-.13.01-.25.12-.48z"/>
</svg>
