<svg xmlns="http://www.w3.org/2000/svg" viewBox="0 0 420 420">
    <path d="M148.5 59.4c19.9-18.1 40.6-35.2 62-51.4 34.5 25.6 66.7 54.2 97.1 84.4 35.1 35.5 68.4 73.8 92.4 117.8-11.1 20.2-25.6 38.2-41.2 55.1-11-33.9-26.6-66.1-44.4-96.8-20.1-34.4-43.2-66.9-68-97.9-11.7-14.8-24.2-29.1-36.2-43.7-17.5 19.4-34.5 39.3-49.7 60.5-16.1 22.6-30.4 47.2-36.8 74.5 29-23.7 57.4-48.1 86.1-72.2 32.5 30.2 59.8 66.1 79.9 105.6-5.6 7.3-12.4 13.6-19.3 19.8-15.7 14-32.3 26.9-49.2 39.4-6.2-5.4-11.1-12.1-15.6-18.9 15.8-14.5 30.9-29.8 46.2-44.9-2.6-9-7.4-17.3-12.7-24.9-8.2-11.7-18.4-21.9-29.4-31-7.6 3.1-14.4 7.8-21.1 12.4-16.4 11.8-31.7 24.9-46.6 38.5-10.6 9.8-21.2 19.7-30.4 30.9-14.9-25.4-26.7-53-31.7-82.1 19.3-27.9 43.6-52.1 68.6-75.1z"/>
    <path d="M21 210.7c11.1-20.2 25.7-38.2 41.2-55.1C76.1 198.2 97 238.3 121 276c20.6 32.2 43.6 62.7 68.1 92 7.3 8.7 14.7 17.3 21.8 26 20-22.3 39.5-45 56.2-69.9 13.3-20 24.8-41.6 30.3-65.1-28.3 23.1-56 46.9-84 70.4-.9.5-1.9 2.4-2.9 1-22.8-21.1-42.7-45.3-59.7-71.2-7.1-10.8-13.5-22.1-19.4-33.7 5.6-7.3 12.4-13.6 19.3-19.8 15.7-13.9 32.3-26.9 49.1-39.4 6.2 5.4 11.2 12.1 15.6 18.9-15.8 14.5-30.9 29.8-46.2 44.8 2.7 9 7.4 17.3 12.7 24.9 8.2 11.7 18.4 21.9 29.3 31 7.6-3 14.4-7.8 21.1-12.4 20.7-15 40-31.9 58.5-49.6 6.4-6.3 12.8-12.7 18.5-19.7 6.3 10.3 11.6 21.1 16.4 32.2 6.8 16.1 12.6 32.7 15.3 50-15.6 22.9-34.7 43-54.5 62.2-24.1 23-49.5 44.5-76.1 64.5-27.8-20.8-54.2-43.4-79.4-67.3-28.6-27.2-55.7-56-79.4-87.6C40.5 243.1 30 227.3 21 210.7z"/>
</svg>
