<?xml version="1.0" encoding="utf-8"?>
<!-- Generator: Adobe Illustrator 24.1.1, SVG Export Plug-In . SVG Version: 6.00 Build 0)  -->
<svg version="1.1" xmlns="http://www.w3.org/2000/svg" xmlns:xlink="http://www.w3.org/1999/xlink" x="0px" y="0px"
	 viewBox="0 0 432 432" style="enable-background:new 0 0 432 432;" xml:space="preserve">
<g id="图层_2">
</g>
<g id="图层_1">
	<g>
		<path d="M370.1,92.5c-102.2,0-204.4,0-306.7,0c-17.4-0.8-7.6,39-5.3,56.9c8.3,51,51.6,106.9,103.2,110.9
			c5.1,13.3,1.6,21.7,13.7,32.2c20.6,12.3,25.4,38.1,9.5,54.3c0,0-0.1,0-0.1,0c-0.9,1.1-2.4,1.8-4.2,1.8l0,0.4c-0.2,0-0.5,0-0.8,0
			c-4.8,2.1-10.3,2.9-15.5,4.3c0,0.1-0.1,0.2-0.1,0.3c-1.9-0.1-3.3,1.2-5.2,1.3c-19.9,7.7-61.4,18.3-56.1,45.7
			c76.2,0,152.5,0,228.7,0c5.5-32.6-54.5-46.4-77.7-51.6l0,0c-1.5-0.6-3.3-1-4.3-2.1c0,0,0,0-0.1,0c-15.9-16.2-11-42,9.5-54.3
			c12.1-10.5,8.6-18.9,13.7-32.2c22.5-1.6,44.4-14.2,61.7-31.2c0,0,0,0,0-0.1c20-19.8,34.3-45.9,39.6-71.7
			C376.5,139.5,389.1,92.7,370.1,92.5z M245.5,193.3c-15.4,5-17.1,22.7-20.9,36.4l-0.1,0c-0.1,0.6-0.3,1.2-0.5,1.7
			c0,0.1,0,0.2,0,0.3l-0.1,0c-0.7,1.7-1.8,3.1-3.1,3.9l0,0l0,0c-0.4,0.3-0.8,0.5-1.2,0.7l0,0.1c-2.3,0.8-5,0.7-7.3-0.4
			c0,0,0,0,0-0.1c-13.5-8.1-6.2-31-20-39.7c-11-6.6-41.1-6.7-36-22.2c10.8-8.8,31.2-5.8,38.4-17.7l0.1,0c7.9-8.9,8.8-45.2,24.7-38.3
			l0,0l0,0c8.9,9.1,8.5,25.1,13.8,36.6C252.3,175,314,170.4,245.5,193.3z"/>
		<path d="M382.5,31.8C382.5,31.7,382.5,31.7,382.5,31.8c-110-0.6-220-0.1-330-0.2c-28.2,0.5-28,42.7,0.4,42.6c0,0,0,0,0,0
			c108.9-0.2,217.9-0.1,326.7,0C405.8,74.3,408.2,35.1,382.5,31.8z"/>
	</g>
</g>
</svg>
