<svg xmlns="http://www.w3.org/2000/svg" viewBox="0 0 1000 1000">
    <path d="M498.47 834.63C375 831 276.03 728.18 282 614c3.62-46.16 61.33-162.76 117-119.34 90.04 145.75 271.86 23.56 290.34 72.43 59.57 125.53-67.39 271.17-190.87 267.54z"/>
    <path d="M825 636c6-136-104.71-291.31-153.83-359.2l.02.01c-42.98-58.83-163.22-222-170.56-227C477.68 82.6 276.35 343.54 228.47 436.3 188.58 512.29 147.17 590.08 166 680c31 148 163.34 262.78 328 264s322.89-124.15 331-308zM634.37 836.29C475.69 940.53 254.11 843.68 232 657c-18-152 174.53-342.68 268.76-474.75 147.6 176.76 415.73 472.65 133.61 654.04z"/>
</svg>
