<?xml version="1.0" encoding="utf-8"?>
<!-- Generator: Adobe Illustrator 24.1.1, SVG Export Plug-In . SVG Version: 6.00 Build 0)  -->
<svg version="1.1" id="图层_1" xmlns="http://www.w3.org/2000/svg" xmlns:xlink="http://www.w3.org/1999/xlink" x="0px" y="0px"
	 viewBox="0 0 420 420" style="enable-background:new 0 0 420 420;" xml:space="preserve">
<g id="_x23_ffffffff">
	<path d="M161.5,40.6c29.4-7.9,60.8-8.9,90.5-1.7c30.4,8,59.3,23.2,81.6,45.5c13.6,13.5,24.8,29.3,33.6,46.3
		c7.2,14,13.4,28.7,16.3,44.3c4.6,24,5,49.1-0.6,73c-4.3,22.3-14,43.3-26.9,61.9c-11.6,17.4-27,31.9-43.8,44.2
		c-18.3,13.2-39.1,22.9-61.1,28c-22.2,5.5-45.4,6-68,3c-11.9-2.3-23.9-4.7-35.3-9.1c-16.8-7.1-31-19.2-42.5-33.2
		c4.4,1.8,8.4,4.3,12.6,6.3c19.1,9.4,39.3,16.9,60.5,19.6c17.1,2.1,34.6,3.8,51.7,0.4c21.8-4.6,41.7-17.3,55.1-35
		c14.3-18.3,21.1-42.1,19.7-65.2c-2.1-24.3-13.4-47.9-31.8-64c-14.7-13.1-33.7-21-53.2-23.3c-11.7-1.7-23.7-0.6-35,2.8
		c-6.4,1.8-13.4,3.8-19.9,1.5c-12.3-4.1-19.4-19.2-14.6-31.3c2.2-6.3,7.5-11.1,13.7-13.6c21.9-9.1,46.6-11.1,69.8-6.8
		c23.8,5.3,46.6,16.7,63.7,34.2c19.4,19.9,32.8,46.2,35.2,74.1c1.1,12.2,0.6,24.5-1.7,36.4c-6.7,32.1-26.5,61.3-54.1,79
		c-7.2,3.6-13.7,8.9-21.7,10.8c-0.3,0.3-0.8,0.7-1,1c8.8-2.6,17.3-6.5,25.3-11.1c14.1-8,27.2-17.9,37.9-30.1
		c27.9-31.4,40.8-75.5,34.3-117c-3.3-21.1-11.1-41.6-23.4-59.1c-14.5-20.8-34.9-37-57.2-48.7c-23.8-11-50.6-15.2-76.6-12.9
		c-24.2,2.8-47.6,12.1-67.6,26.1c-10.9,7.6-20.7,16.8-28.5,27.5c-3.7,5.2-7.9,10.8-14.4,12.7c-10.5,3.1-22.9-0.9-29.5-9.6
		c-4.3-5.6-4.3-13.4-1.9-19.7c4.2-11.5,12.5-20.7,19.9-30.2C95.1,69.6,127.4,50.9,161.5,40.6z"/>
	<path d="M53.5,189.6c15-3.5,29.8,11.4,27.9,26.3c-1.2,13.8-16.2,24.3-29.6,20.9C41.5,234.4,33.4,224.7,33,214
		C32.7,202.4,41.9,191.2,53.5,189.6z"/>
	<path d="M145.9,289c2.4-28,26.2-52.3,54-55.8c5.4-0.6,10.8-1.1,16.2-0.2c15.3,1,29.8,8.7,40,19.9c6,6.5,9.4,14.9,11.7,23.3
		c1.9,7.2,1.6,15.1-2,21.7c-2.5,4.5-5.8,9.1-10.8,11.1c-8.5,4.1-19.4,1.4-25.3-5.9c-5-5.9-6.1-13.8-9.4-20.6
		c-4.4-9.1-16.1-12.1-25.4-10c-6.6,1-12,5.3-17,9.5c-5.6,4.8-9.6,11.6-10.4,19c-1.6,11.6,2,23.7,9.7,32.5
		c9.4,11.1,24,17.2,38.5,16.8c13.8-0.1,26.7-6.7,37.5-15c3.5-3.1,6.7-6.6,10.6-9.3c-5.6,10.5-14.9,18.9-25.2,24.8
		c-13.9,7.9-31,9.6-46.4,5.5c-12.1-3.6-23.4-10.5-31.6-20.1C149.5,323.5,144.5,305.9,145.9,289z"/>
	<path d="M84.5,274.7c5.5-1.4,11.8-0.2,16,3.7c5.8,5.3,7.2,14.8,3.1,21.5c-2.8,4.8-8.2,7.8-13.6,8.2c-7.7,0.3-15.1-5.2-17.3-12.6
		C70.1,286.9,75.8,276.8,84.5,274.7z"/>
</g>
</svg>
