<svg xmlns="http://www.w3.org/2000/svg" viewBox="0 0 420 420">
    <path d="M161.5 40.6c29.4-7.9 60.8-8.9 90.5-1.7 30.4 8 59.3 23.2 81.6 45.5 13.6 13.5 24.8 29.3 33.6 46.3 7.2 14 13.4 28.7 16.3 44.3 4.6 24 5 49.1-.6 73-4.3 22.3-14 43.3-26.9 61.9-11.6 17.4-27 31.9-43.8 44.2-18.3 13.2-39.1 22.9-61.1 28-22.2 5.5-45.4 6-68 3-11.9-2.3-23.9-4.7-35.3-9.1-16.8-7.1-31-19.2-42.5-33.2 4.4 1.8 8.4 4.3 12.6 6.3 19.1 9.4 39.3 16.9 60.5 19.6 17.1 2.1 34.6 3.8 51.7.4 21.8-4.6 41.7-17.3 55.1-35 14.3-18.3 21.1-42.1 19.7-65.2-2.1-24.3-13.4-47.9-31.8-64-14.7-13.1-33.7-21-53.2-23.3-11.7-1.7-23.7-.6-35 2.8-6.4 1.8-13.4 3.8-19.9 1.5-12.3-4.1-19.4-19.2-14.6-31.3 2.2-6.3 7.5-11.1 13.7-13.6 21.9-9.1 46.6-11.1 69.8-6.8 23.8 5.3 46.6 16.7 63.7 34.2 19.4 19.9 32.8 46.2 35.2 74.1 1.1 12.2.6 24.5-1.7 36.4-6.7 32.1-26.5 61.3-54.1 79-7.2 3.6-13.7 8.9-21.7 10.8-.3.3-.8.7-1 1 8.8-2.6 17.3-6.5 25.3-11.1 14.1-8 27.2-17.9 37.9-30.1 27.9-31.4 40.8-75.5 34.3-117-3.3-21.1-11.1-41.6-23.4-59.1-14.5-20.8-34.9-37-57.2-48.7-23.8-11-50.6-15.2-76.6-12.9-24.2 2.8-47.6 12.1-67.6 26.1-10.9 7.6-20.7 16.8-28.5 27.5-3.7 5.2-7.9 10.8-14.4 12.7-10.5 3.1-22.9-.9-29.5-9.6-4.3-5.6-4.3-13.4-1.9-19.7 4.2-11.5 12.5-20.7 19.9-30.2 22.5-28 54.8-46.7 88.9-57z"/>
    <path d="M53.5 189.6c15-3.5 29.8 11.4 27.9 26.3-1.2 13.8-16.2 24.3-29.6 20.9-10.3-2.4-18.4-12.1-18.8-22.8-.3-11.6 8.9-22.8 20.5-24.4zM145.9 289c2.4-28 26.2-52.3 54-55.8 5.4-.6 10.8-1.1 16.2-.2 15.3 1 29.8 8.7 40 19.9 6 6.5 9.4 14.9 11.7 23.3 1.9 7.2 1.6 15.1-2 21.7-2.5 4.5-5.8 9.1-10.8 11.1-8.5 4.1-19.4 1.4-25.3-5.9-5-5.9-6.1-13.8-9.4-20.6-4.4-9.1-16.1-12.1-25.4-10-6.6 1-12 5.3-17 9.5-5.6 4.8-9.6 11.6-10.4 19-1.6 11.6 2 23.7 9.7 32.5 9.4 11.1 24 17.2 38.5 16.8 13.8-.1 26.7-6.7 37.5-15 3.5-3.1 6.7-6.6 10.6-9.3-5.6 10.5-14.9 18.9-25.2 24.8-13.9 7.9-31 9.6-46.4 5.5-12.1-3.6-23.4-10.5-31.6-20.1-11.1-12.7-16.1-30.3-14.7-47.2zM84.5 274.7c5.5-1.4 11.8-.2 16 3.7 5.8 5.3 7.2 14.8 3.1 21.5-2.8 4.8-8.2 7.8-13.6 8.2-7.7.3-15.1-5.2-17.3-12.6-2.6-8.6 3.1-18.7 11.8-20.8z"/>
</svg>
