<svg xmlns="http://www.w3.org/2000/svg" viewBox="0 0 1000 1000">
    <path d="M828.28 368.49l-22.74 22.74-34.61-34.61 2.97-71.19-63.28-60.32h-64.27l-37.57-29.66 26.7-26.7-133.5-134.47L362.56 164.8l32.63 27.69-29.66 34.61h-66.25l-73.17 73.17.99 58.34-24.72 25.71-25.71-21.75L32.3 499.01l142.39 138.43 27.69-26.7 25.71 28.67-.99 74.16 69.22 71.19 76.14-1.98 24.72 26.7-23.73 25.71 124.59 130.52L634.48 835.2l-27.69-28.67 17.8-21.75h88l70.2-65.26.99-94.92 18.79-19.78 32.63 32.63 132.5-133.49-139.42-135.47zM499.01 854.98l-359.92-353 358.93-357.94 355.97 357.94-354.98 353z" fill-rule="evenodd" clip-rule="evenodd"/>
    <path d="M835.28 642.66l-12.93-12.93v94.73l-98.88 99.86-92.06-.45 11.15 11.55-71.86 68.74 155.73-.73 175.02-169.09.36-158.7zM377.17 822.8l-92.73-.45L177 720l1-80-3.23 2.66-66.62-64.77-.7 151.51 176.99 176 147.22-.69-66.14-69.29zM625.22 187.3l100.22.24 96.91 90.97v88.22l6.01-6.02 73.74 71.65.34-142.97-177-179.96-141.67-.68 59.78 60.23zM184 278l91.54-91.45 104.77.25-25.67-21.78 60.84-56.95-129.06-.62-176.99 179.96L108.8 420l67.95-64.22 7.25 6.35V278z"/>
</svg>
