<?xml version="1.0" encoding="utf-8"?>
<!-- Generator: Adobe Illustrator 24.1.1, SVG Export Plug-In . SVG Version: 6.00 Build 0)  -->
<svg version="1.1" id="图层_1" xmlns="http://www.w3.org/2000/svg" xmlns:xlink="http://www.w3.org/1999/xlink" x="0px" y="0px"
	 viewBox="0 0 1000 1000" style="enable-background:new 0 0 1000 1000;" xml:space="preserve">
<style type="text/css">
	.st0{fill-rule:evenodd;clip-rule:evenodd;}
</style>
<g>
	<path class="st0" d="M133.67,83.97H407.3c24.67,0,44.67,20,44.67,44.67v273.63c0,24.67-20,44.67-44.67,44.67H133.67
		c-24.67,0-44.67-20-44.67-44.67V128.65C89,103.98,109,83.97,133.67,83.97z"/>
	<path class="st0" d="M592.7,82.86h273.63c24.67,0,44.67,20,44.67,44.67v273.63c0,24.67-20,44.67-44.67,44.67H592.7
		c-24.67,0-44.67-20-44.67-44.67V127.53C548.02,102.86,568.03,82.86,592.7,82.86z"/>
	<path class="st0" d="M133.67,554.17H407.3c24.67,0,44.67,20,44.67,44.67v273.63c0,24.67-20,44.67-44.67,44.67H133.67
		c-24.67,0-44.67-20-44.67-44.67V598.84C89,574.17,109,554.17,133.67,554.17z"/>
	<path class="st0" d="M592.7,554.17h273.63c24.67,0,44.67,20,44.67,44.67v273.63c0,24.67-20,44.67-44.67,44.67H592.7
		c-24.67,0-44.67-20-44.67-44.67V598.84C548.02,574.17,568.03,554.17,592.7,554.17z"/>
</g>
</svg>
