<svg xmlns="http://www.w3.org/2000/svg" viewBox="0 0 80 80">
    <path d="M51.12 37.53c16.68-5.38 20.34-.32 19.27 16.25.54 7-.11 12.48-8.07 13.88 1.18-1.51 2.48-2.91 3.87-4.2-2.15-11.62-13.24-19.48-24.97-16.68-.11 2.04-.22 4.09-.54 6.03-4.63-8.39 1.72-14.95 10.44-15.28z"/>
    <path d="M45.52 61.64c3.12-1.61 5.06-4.74 7.86-6.89.65-.54 1.61-.32 2.04.43 3.23 6.35-4.2 14.96-8.83 19.16-.11.11-.32.22-.43.32-6.13 2.26-12.48-3.23-9.69-9.47.11-.22.22-.32.32-.43 2.38-2.36 5.93-1.5 8.73-3.12zM9.57 57.77c12.92-1.72 14.53-2.26 22.17 9.15-3.87 1.94-8.39 2.48-12.7 2.91-2.04.32-3.23-1.72-4.52-2.91-2.15-2.8-5.81-5.17-4.95-9.15zm27.56-26.69L21.63 5.25c-1.51 3.44-8.29 19.59-10.33 28.52l25.83-2.69zm.96-.33l14.53-12.16c-1.29-.86-6.46-3.87-13.02-7-4.95-2.26-14.42-5.81-17.11-6.78 0 .01 15.6 25.94 15.6 25.94zm1.73 7l-2.26-5.6-26.05 2.58c1.61 3.66 4.74 6.57 7.1 9.79 4.84 5.6 8.61 12.05 13.88 17.33 1.51-.54 3.01-.97 4.52-1.29-1.5-6.88-3.87-18.29 2.81-22.81zm-1.19-6.03l2.15 5.49c.11-.11.22-.11.33-.21 3.98-1.08 8.07-1.51 11.84-3.12.22-5.6.11-11.95.11-14.21-.01 0-14.43 12.05-14.43 12.05z"/>
</svg>
