<svg xmlns="http://www.w3.org/2000/svg" viewBox="0 0 1000 1000">
    <path d="M168.54 824.3s52.72-20.38 76.02-41.95c23.29-21.56 30.8-42.91 33.9-43 3.1-.08 39.99 20.31 42.12 25.17 6.83 15.63-9.71 15.14-9.25 26.22.79 19 12.64 25.15 1.03 40.9-4.33 5.88-28.02 5.5-67.8 8.39-44.75 3.25-76.02-15.73-76.02-15.73zm186.96-34.61c12.96-4.67 27.01 3.05 31.84 10.49 4.84 7.43 9.07 35.42 3.08 41.95-16.69 18.2-52.67 10.98-55.47 8.39-2.8-2.59 18.49-4.21 23.63-14.68 5.14-10.47-24.66-11.64-15.41-30.41 6.37-12.93-.64-11.07 12.33-15.74zm126.35 9.44s14.33 2.68 18.49 3.15c4.16.47 19.52-2.1 19.52-2.1l-20.54 35.66-17.47-36.71zm-99.64 100.68s28.57-22.23 38.01-33.56c9.44-11.32 20.54-30.41 20.54-30.41s23.25 19.74 29.79 29.36c6.54 9.63 8.95 18.49 6.16 28.32-2.78 9.82-32.07 29.06-39.04 28.32s-18.3-12.54-30.82-13.63c-12.51-1.11-24.64-8.4-24.64-8.4zm236.91 0s-28.57-22.23-38.01-33.56c-9.44-11.32-20.54-30.41-20.54-30.41s-23.25 19.74-29.79 29.36c-6.54 9.63-8.95 18.49-6.16 28.32 2.78 9.82 32.07 29.06 39.03 28.32 6.97-.74 18.3-12.54 30.82-13.63 12.51-1.11 24.65-8.4 24.65-8.4z"/>
    <path d="M838.49 663.85c-30.42-25.83-46.23-59.84-53.71-81.25 19.41-59.2 19.17-130.66-.61-189.69l26.62-118.09-98.58-.96a303.12 303.12 0 00-27.73-25.05l4.56-102.48s-28.97 24.13-50.33 36.7c-13.18 7.76-26.64 14.71-36.32 19.5a291.112 291.112 0 00-32.85-9.94c-14.68-46.05-58.78-181.91-68.16-182.09-9.83-.19-59.35 145.32-72.03 183.06-10.54 2.67-20.87 5.9-30.93 9.69-9.71-4.8-23.36-11.83-36.74-19.71-21.36-12.57-50.33-36.7-50.33-36.7l4.62 103.85c-8.49 6.9-16.61 14.26-24.3 22.06l-101.53.99 27.53 122.1c-18.39 56.87-18.81 125.14-1.07 182.32-26.69 96.93-147.5 148.03-187.73 155.97 0 0 49.59 46.73 115.05 47.19s94.93-11.7 97.59-22.02c2.66-10.33-37.05-38.87-17.46-57.68 12.05-11.57 36.86-12.48 54.18-11.46 41.55 47.95 97.7 82.41 161.33 96.13l58.76 93.61 61.94-92.99c64.93-13.29 122.24-48.13 164.45-96.91 17.08-.72 39.79.7 51.16 11.62 19.59 18.81-20.12 47.35-17.46 57.68 2.66 10.33 32.13 22.49 97.59 22.02s115-47.21 115-47.21-63.5-11.67-132.51-70.26zM501.36 87.06s25.86 87.05 23.63 90.19c-2.24 3.14-45.65 2.42-48.28-1.05-2.63-3.47 24.65-89.14 24.65-89.14zM230.17 343.99l-5.14-40.9 29.79 2.1s-9.42 11.17-14.38 17.83c-4.96 6.65-10.27 20.97-10.27 20.97zm271.19 408.6c-142.75 0-258.47-118.14-258.47-263.87 13.68-350.05 503.3-349.95 516.94 0 0 145.73-115.72 263.87-258.47 263.87zm269.36-407.51s-5.31-14.32-10.27-20.97c-4.96-6.66-14.38-17.83-14.38-17.83l29.79-2.1-5.14 40.9z"/>
    <path d="M831.3 824.3s-52.72-20.38-76.02-41.95c-23.29-21.56-30.8-42.91-33.9-43-3.1-.08-39.99 20.31-42.12 25.17-6.83 15.63 9.71 15.14 9.25 26.22-.79 19-12.64 25.15-1.03 40.9 4.33 5.88 28.02 5.5 67.8 8.39 44.75 3.25 76.02-15.73 76.02-15.73zm-186.96-34.61c-12.96-4.67-27.01 3.05-31.84 10.49-4.84 7.43-9.07 35.42-3.08 41.95 16.69 18.2 52.67 10.98 55.47 8.39 2.8-2.59-18.49-4.21-23.63-14.68-5.14-10.47 24.66-11.64 15.41-30.41-6.37-12.93.63-11.07-12.33-15.74zm-124.65 122.7c-3.05 1.07-5.65 4.69-8.02 8.38-3.22 4.34-6.37 8.85-8.84 9.39-2.47-.54-5.63-5.04-8.84-9.39-2.38-3.7-4.98-7.32-8.02-8.38-6.91-2.42-27.97 20.65-25.76 27.79.59 1.9 12 11.21 19.44 18.86 1.78 2.11 3.24 4.11 4.1 5.78 4.3 8.4 12.85 25.17 19.08 25.17 6.24 0 14.78-16.77 19.08-25.17.86-1.68 2.32-3.67 4.1-5.78 7.44-7.66 18.86-16.96 19.44-18.86 2.21-7.14-18.85-30.21-25.76-27.79z"/>
</svg>
