<?xml version="1.0" encoding="utf-8"?>
<!-- Generator: Adobe Illustrator 24.1.1, SVG Export Plug-In . SVG Version: 6.00 Build 0)  -->
<svg version="1.1" id="图层_1" xmlns="http://www.w3.org/2000/svg" xmlns:xlink="http://www.w3.org/1999/xlink" x="0px" y="0px"
	 viewBox="0 0 432 432" style="enable-background:new 0 0 432 432;" xml:space="preserve">
<path d="M398.1,20.8C354.9,4.3,294.9,28.1,264,53.7c-2.7,4.3-7.6,7.5-12.7,7c-0.1,0.1-0.1,0.2-0.1,0.4
	c-50.2,25.6-85.1,71.4-117.5,118.6c-17.7,43.8-19-6.8-38.8,56.5c-4.9,12.2-6.3,29.4-8.9,47.9c-5,11.7-42.3,13.8-27.4,28
	c7.4,15.9-21.9,20.4-2.7,24.1c14.1,18.7-41.5,57.4-26,80c19.6,4.5,21.3-18.4,28.2-31.1c10-21.1,23.7-50.7,44-23.4
	c7.5,1.3,13.1-6.7,5.5-11.3c-0.5-4.5-0.3-8.9,1.2-11.3c15.2-5.4,18.2,3.9,17.1-17.9c17.3-5,35.7-6.6,53.6-9
	c15-5.8,31.1-14.4,39.9-21.8c0,0,0-0.1,0-0.1c4.3-5.9,7.8-15,15.4-18c46.7-37,112.3-73.5,123.1-135.9c20.9-8.1,30.7-32.7,36.2-52.3
	c0.1,0.1,0.1,0.2,0.2,0.3C399.9,65.4,413,40.3,398.1,20.8z M286,99.5c-58.1,47.6-107.6,104.4-152.8,164.2c-62,73.8-2.4-23.6,23.4-49
	C162.9,200.6,310.6,59.4,286,99.5z"/>
</svg>
