<?xml version="1.0" encoding="utf-8"?>
<!-- Generator: Adobe Illustrator 24.1.1, SVG Export Plug-In . SVG Version: 6.00 Build 0)  -->
<svg version="1.1" id="图层_1" xmlns="http://www.w3.org/2000/svg" xmlns:xlink="http://www.w3.org/1999/xlink" x="0px" y="0px"
	 viewBox="0 0 420 420" style="enable-background:new 0 0 420 420;" xml:space="preserve">
<g id="_x23_ffffffff">
	<path d="M206.4,21.9c4.7,4,8,9.2,11.7,14.2c7.6,11.2,16.1,22.1,20.6,35.1c2.3,6.7,3.4,14.3,0.4,20.9c-3.2,7.5-9.7,13-15.9,18
		c-7.5,6-13.5,13.7-18.1,22.1c-5,9-7.6,20.1-4.2,30.1c3.9,10.1,11.9,18.3,21.2,23.6c-6.8-6.7-12.9-15-13.7-24.8
		c-1.2-13.1,5.6-25.3,13.7-35c7.8-9.3,17.6-16.5,28-22.7c-2.7,10.8-6,21.5-7.5,32.5c-2.1,16.7,3.1,33.5,11.9,47.6
		c7.2,11.5,16.4,21.7,26.5,30.8c-0.6-8.8-6-16.2-11.2-22.8c-8.1-9.9-11.9-23.3-9.9-35.9c1.6-9.5,6.9-17.9,11.8-26
		c1.9-2.8,3.7-5.9,6.7-7.7c0.5,3.1,1,6.2,1.9,9.2c3.7,12.3,8.6,24.3,16.2,34.7c8,11.2,18.5,20.2,29.1,28.8
		c11.9,9.2,20.8,21.6,28.5,34.4c8.2,14.5,14.1,31.9,9.5,48.5c-4.5,14.9-15,27.2-26.9,36.9c-10.7,8.6-22.1,16.3-34,23.1
		c-16.3,9.3-33.3,17.5-48.6,28.5c-9.3,6.5-18.1,13.7-27,20.8c-4.7,3.8-8.6,8.4-13.4,12c-1.2,0-1.9-1.1-2.8-1.7
		c-11.7-10.1-24.2-19.2-36.6-28.4c-7.4-5.3-14.7-10.8-22.6-15.4c-9.9-5.9-20.2-11.2-30.1-17c-16.3-9.4-32.8-18.7-47.6-30.3
		c-10.7-7.9-18-20.5-18.8-33.9c-0.5-6.9,1.3-13.6,3-20.2c4.8-17.6,13.8-33.8,24.5-48.4c15.9-22.1,35.2-41.7,48.2-65.7
		c2.4-4.2,4.2-8.8,6.4-13.1c-0.2,13.9,4.4,27.9,13.7,38.3c13.5,15.4,32.6,24.2,51.2,31.8c3.3,1.4,6.9,2.4,10.1,4.2
		c-20.8-0.1-42.1,5.7-58.2,19.1c-15.2,12.1-24.7,30.6-26.7,49.8c-1.4,12.5,2.3,25,9,35.5c3.1,5.1,7.4,9.4,11.2,14.1
		c-7.7-2-14-7.2-20.6-11.5c-14.8-10.1-28.5-24-33.2-41.8c-4.2-14.9,0-30.8,7.4-44c3.3-6.2,7.9-11.5,12.1-17.1
		c-5.6,1.8-9.9,6.1-14.5,9.5c-10.4,8.1-19.2,18.9-23,31.7c-3.9,13.1-1.8,27.5,4.3,39.5c4.8,8.8,12.2,16,20.3,21.7
		c12.6,8.9,26.8,15.1,40.1,22.7c9.7,5.3,19.6,10.4,29.3,15.7c14.9,7.5,28.1,17.8,41.8,27.2c13.6-8.9,27.1-18,40.7-26.9
		c19.2-11.8,39.7-21.4,59-33.1c11.6-6.8,23.8-14.1,31.3-25.6c5.9-9.4,9.9-20.6,8.2-31.7c-1.7-12.2-9-22.8-17.8-31.1
		c-5.6-5.3-11.8-9.8-18.5-13.4c6.2,14.1,11.5,29,11.9,44.6c0.8,16.9-6.3,33.5-17.5,46c-14.5,16.2-34.4,26.7-55,33
		c-11.6,3.6-23.9,5.2-36.1,5.1c-13.1,0-25.9-3.4-38-8.4c-10.3-4.4-20.5-10.5-27-19.9c-5.6-7.9-7.4-18.7-3.9-27.8
		c3.4-9.2,11.7-16.3,21.3-18.5c6.1-1.6,12.4-0.4,18.6,0.3c1.7,0.1,3.4,0.6,5,1.4c-8,4.6-15,11.7-17.9,20.7
		c-3.6,9.8-2.2,21.4,4.2,29.8c5.9,7.6,15.5,11,24.6,12.9c16.8,3.4,34.2-0.2,49.9-6.8c13.3-5.6,25.6-15.1,31.8-28.4
		c6.9-13.7,6.1-30,1.3-44.2c-1.9-5.4-4.3-10.8-7.9-15.3c-5.7-6.6-11.2-13.6-18.4-18.6c-24.9-17.9-56.7-22.6-81.6-40.6
		c-12.9-9.3-22.7-23.8-24-39.8c-1.1-11.8,3.6-23.2,10.1-32.8c9.7-14.3,21.7-27,29.7-42.5C202,48,205.4,35,206.4,21.9z"/>
	<path d="M181.5,227.4c11.6-8.3,26.9-10.3,40.7-7.8c14.6,2.1,28.8,9.9,36.5,22.9c5.6,9.6,9.5,21.4,6.1,32.4
		c-3.2,10-11.9,16.9-20.6,22.2c-5.7,3.2-11.4,7-18.1,8c4.3-4.4,7.4-10,8.4-16.1c2.2-12.7-3.2-26.2-13.1-34.2
		c-16-13.3-40.5-13.3-57.8-2.6C167.4,242.7,173.2,233.6,181.5,227.4z"/>
</g>
</svg>
