<svg xmlns="http://www.w3.org/2000/svg" viewBox="0 0 80 80">
    <path d="M69.93 8.61c-.53.01-1.39.85-1.72.81-.33-.04-3.03-1.82-3.03-1.82s-.56-1.36-1.21-1.31H15.86c-.66-.06-1.21 1.31-1.21 1.31s-2.7 1.77-3.03 1.82c-.33.04-1.19-.8-1.72-.81s-2.32 1.72-2.32 1.72v4.93s1.53 2.07 2.22 2.12c1.12-.09 2.36-2.56 2.83-.4v53.07c0 1.7 1.78 2.8 3.31 2.06l23.98-11.72 23.66 11.57c1.68.82 3.62-.4 3.62-2.26V16.97s.2-.93.71-.91c.5.03 1.43 1.35 2.12 1.31s2.22-2.12 2.22-2.12v-4.93c-.01 0-1.8-1.71-2.32-1.71zm-57.81 7.35h-.4V9.52h.4v6.44zm7.56 52.27l-.91.54V8.61h.91v59.62zm20.34-15.28c-3.34.1-5.2-4.4-5.02-5.84.14-1.36 4.64-4.63 4.91-4.82.27.19 4.77 3.46 4.91 4.82.16 1.4-1.49 5.72-4.8 5.84zm6.73-28.47c-1.25 3.67-4.1 6.5-3.65 10.92-.03 6.28-6.36 6.21-6.39 0 .71-6.63-6.71-10.9-3.62-17.49 4.43-9.97 16.9-3.02 13.66 6.57zm14.31 44.3l-.91-.56V8.61h.91v60.17zm7.05-52.82h-.4V9.52h.4v6.44z" fill="#000307"/>
</svg>
