<?xml version="1.0" encoding="utf-8"?>
<!-- Generator: Adobe Illustrator 24.1.1, SVG Export Plug-In . SVG Version: 6.00 Build 0)  -->
<svg version="1.1" id="图层_1" xmlns="http://www.w3.org/2000/svg" xmlns:xlink="http://www.w3.org/1999/xlink" x="0px" y="0px"
	 viewBox="0 0 432 432" style="enable-background:new 0 0 432 432;" xml:space="preserve">
<g>
	<path d="M106.5,57.3c77.5,0.4,150.8,0.6,230.1,0.2c3.1,0,5.9-1.6,7.5-4.2c6.1-10.4,5.4-30.8-7.5-31.4c-80.8-0.3-161.6,0-242.4-0.1
		c-4.9-0.4-9.4,3.1-9.3,8.1C84,49.7,83,57.2,106.5,57.3z"/>
	<path d="M347.8,379.9c-1.3-9.3-10.4-9.3-17.6-10.4c-14.8,0.1-4.2-59.5-27.4-81.6c-12.4-28.7-70.3-43.9-62.8-81.7
		c9.1-22.2,33.5-32.7,50.2-48.5l0,0c19.3-16.6,31-43,29.9-69.4c-3.3-13.4-21.8-5.9-31.8-7.7c-24.1,0.1-48.2,0.1-72.3,0.1
		c-24.1,0-48.2-0.1-72.3-0.1c-10.1,1.8-28.4-5.7-31.8,7.6c-1.1,26.4,10.6,52.8,29.9,69.4l0,0c16.8,15.8,41.1,26.3,50.2,48.5
		c1.5,7.3,0.4,13.8-2.2,19.7c-0.1,0.2-0.3,0.5-0.4,0.7c0.1,0,0.1,0,0.1-0.1c-11.5,24-50.4,38.4-60.3,61.3c-0.2,0.3-0.5,0.6-0.7,0.9
		c0.2-1.5,1.9-3,2.2-4.6c-1.3,1.5-2.2,3.3-3.1,5.1l0.4,0c-1.1,1.4-2.1,2.8-3,4.2c-0.8,0.9-1.5,1.6-1.7,2.8
		c-11.7,20.2-11.1,45.7-14.8,68.4c-10.1,12-27.7-2-24.2,25.9c-3.6,24.1,22.4,18.3,37.9,18.5c31.1,1.2,62.4,1.1,93.8,0.8
		c40.4,1.1,80.3-1.2,120.5-0.4C350.7,407.1,347.7,390.8,347.8,379.9z M290.1,369c-48.5,0.3-96.9,0.3-145.4,0
		c-16.1,1.2-6.1-18.8-3.5-27c15.5-14.5,28.2-24.4,37.2-31.1c9.3-5.9,18.2-11.5,24.1-17.1c7.8-7.9,6.9-67.2,4.9-99.3
		c-0.4-2.5-1.5-4.8-3.7-6.3c-75.2-55.2,10.1-39.8,41.7-41.3c18.4,2.8,22.4,12.4-16.8,41.3c-2.1,1.5-3.3,3.8-3.7,6.3
		c-2,32.1-2.9,91.4,4.9,99.3c20.8,16.5,37,24.4,61.2,48.2C293,349.6,303.1,367.2,290.1,369z"/>
</g>
</svg>
