<svg xmlns="http://www.w3.org/2000/svg" viewBox="0 0 1000 1000">
    <path d="M801.6 192.69c-12.83 73.91-12.8 121.86 51.46 170.71 24.14 15.01 54.2 19.06 74.98 40.24 11.51 10.63 21.08 23.83 21.19 40.1.17 37.35.25 74.7.01 112.04.07 47.96-51.95 67.02-88.61 83.88-21.65 11.42-38.16 29.67-51.58 49.85-21.87 32.17-14.88 72.74-8.95 108.45 12.64 56.64-50.34 86.46-91.04 110.12-10.13 5.83-20.66 10.99-31.17 16.12-20.93 6.92-44.46 5.22-65.91-.04-15.04-6.66-25.31-19.71-38.25-29.39-9.67-8.14-21.57-11.51-33.16-15.58-26.83-10.31-58.02-14.75-84.35-.54-20.42 11.52-41.24 22.71-57.76 39.69-18.86 14.96-53.51 10.44-75.91 6.69-21.16-9.09-41.18-22.24-60.25-35.03-33.04-23.45-78.78-53.95-62.65-100.64 17.17-52.91 2.15-104.13-42.97-137.55-25.36-19.31-58.8-25.62-82.02-47.71-30.97-24.93-21.84-67.39-22.99-102.6.1-23.65-4.55-48.51 3.58-71.24 5.23-11.17 11.68-21.72 22.17-28.81 15.36-9.35 29.68-21.81 47.1-27 40.44-13.83 77.7-62.22 81.33-104.73-.14-17.87-.17-35.88-6.14-53.27-21.38-63.48 59.53-97.14 103.42-122.99 22.8-14.41 48.65-29.73 75.41-15.05 16.22 7.52 29.8 18.66 43.62 29.63 10.45 7.28 22.11 13.08 32.76 20.18 8.84 5.43 18.01 8.41 28.84 7.54 15.4-1.47 31.7 3.35 46.8-1.37 49.05-13.76 84.93-83.14 141.06-56.9 37.66 19.32 73.46 41.99 105.37 69.88 15.1 13.29 25.89 23.57 23.69 45.18.31.06.61.1.92.14zm-575.26 309.6c5.91 356.43 536.16 356.93 542.55.29-5.93-356.42-536.12-356.94-542.55-.29z"/>
    <path d="M497.78 754.86c-331.94-5.46-332.01-499.33-.03-504.84 329.91 1.68 329.92 503.15.03 504.84zm-.03-438.93c-246 4.2-244.13 368.5-1.43 373.02 245.47-.04 245.55-371.89 1.43-373.02z"/>
</svg>
