<svg xmlns="http://www.w3.org/2000/svg" viewBox="0 0 1000 1000">
    <path d="M901.66 385.52c-11.48-31.28-27.7-61.34-45.51-89.26-12.95-21.15-22.28-42.33-47.95-40.36-10.02.77-19.38 5.71-24.96 14.07-34.42 52.14 54.53 207.43-24.56 218.14-38.84 12.67-59.56-9.95-93.41-12.49-69.32 4.88-179.2 50.27-68.25-31.76 144.86-79.83 68.84-283.57-97.6-277.74-175.16-2.42-243.08 205.71-87.17 284.33 28.79 26.09 45.85 44.25 9.77 45.87-187.86-78.81-246.97 108.21-210.94-185.85.76-6.69-.54-13.47-3.74-19.38-77.84-144.74-226.21 323.06-102.28 295.5 355.9 11.24 96.18 205.63 380.16 247.41 249.36-15.37 142.48-169.06 242.56-215.01 52.64-37.58 138.97-11.53 187.69-37.22 62.28-47.68-.62-133.29-13.81-196.25z"/>
</svg>
