<svg xmlns="http://www.w3.org/2000/svg" viewBox="0 0 80 80">
    <path d="M31.91 10.33c3.24.48 6.11.9 8.98 1.35 8.57 1.37 17.14 2.77 25.7 4.17 1.78.29 2.81 1.24 3.07 3.03.16 1.09.19 2.21.23 3.31.21 6.62.48 13.24.6 19.87.07 3.83-.08 7.67-.21 11.51-.03 1.02-.37 2.04-.65 3.04-.11.41-.39.84-.72 1.08-4.59 3.3-9.21 6.58-13.83 9.85-2.9 2.06-6.15 2.5-9.59 1.86-5.42-1-10.84-1.91-16.24-3.02s-10.74-2.4-16.12-3.59c-1.36-.3-2.12-1.19-2.47-2.45-.16-.56-.25-1.17-.25-1.77.02-4.55.06-9.09.11-13.63.02-1.37.06-1.37 1.43-1.1 1.5.3 2.99.6 4.48.93.79.18 1-.16.98-.88-.06-1.51-.71-2.49-2.22-2.94-1.53-.46-3.02-1.08-4.53-1.62-.88-.33-1.25-.93-1.16-1.91.45-4.93.86-9.86 1.32-14.79.07-.78.26-1.54.48-2.29.42-1.34 1.22-2.26 2.61-2.83 5.04-2.03 10.04-4.18 15.06-6.25 1.04-.43 2.15-.69 2.94-.93zm1.3 18.98c-.09-.07-.18-.12-.27-.19-.35.21-.73.39-1.05.65-1.2.99-2.4 2-3.57 3.03-3.14 2.75-6.29 5.47-9.39 8.26-.91.82-.99 2-.66 3.12.3 1.02 1.05 1.69 2.15 1.88 1.17.2 2.34.46 3.51.63 1.79.26 1.96.47 1.32 2.22-1.17 3.18-2.38 6.34-3.52 9.53-.15.39-.01.89-.01 1.33.41-.1.88-.09 1.2-.32 4.19-2.9 8.42-5.76 12.5-8.83 1.28-.97 2.24-2.45 3.11-3.86.82-1.33.38-1.93-1.19-2.08-1.86-.18-3.7-.33-5.56-.5-1.56-.15-1.82-.47-1.46-2 .89-3.81 1.8-7.6 2.69-11.41.1-.45.14-.96.2-1.46zm20.43 5.54h-.15v.45c-.14 3.28-.24 6.55-.42 9.82-.07 1.19-.72 1.88-1.71 1.79-3.3-.29-6.59-.68-9.87-1-.29-.03-.78.05-.89.24-.44.75-.77 1.58-1.13 2.36.7.28 1.37.74 2.08.83 3.63.44 7.25.81 10.88 1.16 1.99.19 3.34-.97 3.4-2.81.18-6.03.38-12.06.53-18.09.02-.8.29-1.2 1.02-1.49 2.57-.99 5.11-2.05 7.68-3.06.75-.3 1.53-.61 2.33-.74 1.93-.33 2.2-.73 1.49-2.56-.16-.42-.43-.78-.64-1.17-.36-.66-.91-.86-1.61-.6-4.09 1.5-8.19 2.99-12.26 4.54-.33.12-.7.63-.71.96-.04 3.12-.02 6.25-.02 9.37z"/>
</svg>
