<svg xmlns="http://www.w3.org/2000/svg" viewBox="0 0 80 80">
    <path d="M39.99 75.55c-4.51.34-8.86-.97-13.12-2.3-5.14-1.37-9.55-4.63-13.26-8.35-5-4.83-5.7-12.44-4.04-18.9 1.19-3.73 3.29-7.07 5.71-10.12 1.19-1.37 2.69-2.52 4.03-3.77 2.21-1.71 4.08-3.98 6.72-5.02.99-.44 1.88-1.37 3.06-.87 1.24.45 2.5.93 3.78 1.28 3.25.78 6.63.97 9.94.73 2.11-.08 4.21-.43 6.19-1.26.85-.28 1.62-1.05 2.56-.74 2.88.67 5.05 2.61 7.23 4.48 2.17 1.67 4.13 3.57 5.99 5.57.92.87 1.75 1.8 2.27 2.94 2.64 4.44 4.27 8.1 3.79 13.42-.08 2.29-.13 4.61-1.34 6.63-.9 1.67-1.54 3.5-2.91 4.87-2.36 2.62-4.92 5.17-8.26 6.52-3.3 2.11-7.11 3.03-10.89 3.88-2.46.55-4.9 1.31-7.45 1.05v-.04zm-.15-12.75c.84 0 1.36-.48 1.61-1.48.75-3.05 3.34-7.24 6.2-8.69 1.44-.74 2.75-1.75 4.41-2 .68-.11 1.23-.45 1.66-1.08 1.33-2.66-3.62-1.92-4.82-3.21-1.03-.72-2.15-1.28-3.05-2.21-2.18-2.22-3.85-5-4.6-8.04-.26-.97-1.85-1.28-2.36-.35-.77 1.49-1.49 3.01-2.25 4.51-.79 1.78-2.39 3.04-3.69 4.43-1.49 1.53-3.44 2.44-5.51 2.86-.49.16-1.02.33-1.43.63-.58.43-.46 1.61.13 1.83.75.29 1.52.57 2.3.82 2.23.62 4.14 1.86 5.78 3.48 1.03.79 1.57 2.01 2.26 3.06.73 1.23 1.51 2.42 1.76 3.89.13 1.02.79 1.53 1.6 1.55zm.95-39.75c-6.04-.04-10.69-1.23-14.14-6.37-1.44-1.64-2.91-3.29-4.29-5.01-.85-1.03-1.81-2.1-.5-3.21 2.99-2.85 7.32-3.69 11.28-4.29 6.14-.9 12.38-.55 18.37 1.12 2.25.43 4.31 1.52 6.08 2.95 1.93 1.73-.54 3.75-1.67 5.15-1.93 2.1-3.75 4.33-5.68 6.43-1.49 1.24-3.4 1.97-5.16 2.77-1.31.38-3.12.32-4.29.46zm-.91-10.39c4.06-.05 8.83-.1 12.52-2.37 2.93-3-8.17-4.12-9.84-4.18-4.55-.05-9.33 0-13.66 1.56-7.57 3.65 6.92 5.04 10.98 4.99z"/>
</svg>
