<svg xmlns="http://www.w3.org/2000/svg" viewBox="0 0 80 80">
    <path d="M50.85 36.63l-8.3-.23c.03-.03-.23-8.51-.23-8.88L29.64 41.36c-6.48 6.63-19.42 17.48-21.33 29.29 16.61-3.21 32.55-24.29 42.54-34.02zm9.81-6c.23.21 6.6.89 6.11 2.77 0 0 .23-2.54.23-3.69s-.69-6.69-.69-6.69c-1.04 1.62-4.5 6-5.65 7.61z"/>
    <path d="M60.08 41.12c.8-.67 3.86-5.06.92-5.77-3.46.36-5.26-2.79-5.77-5.42-.12-.58-3.11-1.61-3.11-1.61l-2.42-2.54c-.88-1.81-4.36-3.71-5.88-4.96-.38-.93-.09-4.94-2.08-4.04-1.36.5-4.12 1.76-5.07 2.88 7.61 7.32 6.43 5.56 6.92 15.91.38-.06 8.89.51 8.88-.12 1.23.84 5.78 6.6 7.61 5.67z"/>
    <path d="M68.84 5.84c-4.16 1.49-4.4 2.38-4.84 6.57 0 .35-.23.58-.46.81L51.08 23.37c-.42.44-1.53.15-2.08.23 1.63 2.09 3.86 4.65 6.57 5.19.46.12.35-.35.58-.69l9.8-12.57c.76-.98 3.18-.31 4.04-1.15 1.99-1.72 2.77-2.42 3-5.19.18-1.32-2.9-3.75-4.15-3.35zm-33.9 11.19c-3.82.17-12.16 1.71-15.22 2.65-.03 5.17-.62 19.53 1.38 24.56 3.26-3.3 12.64-13.5 15.91-17.07 1.41-2.53-5.06-3.68-4.27-7.03.13-1.04 1.05-2.19 2.2-3.11z"/>
    <path d="M20.07 45.28c-2.27-5.13-1.67-23.05-1.61-26.52 2.32-1.08 15.06-3.01 18.1-3.11 3.72-2.8 9.62-2.43 11.42.58.46.92-1.04 1.15-1.04 1.96.13.57 1.51 2.5 2.42 2.19-.1-.35 8.19-7.3 6.8-7.38-9.02-2.81-35.3-1.66-43.01 1.27-.08.81-1.49 33.2 1.73 35.86.22 1.08 4.93-4.9 5.19-4.85zm31.82-2.89c-2.88 3.4-13.43 15.13-18.45 19.03 1.61 1.61 4.15 3.81 5.42 5.07 4.47-2.31 16.36-12.34 19.26-19.37-2.42-.58-6.23-4.73-6.23-4.73z"/>
    <path d="M59.5 47.12c-2.2 6.99-17.58 19.48-20.76 20.76-.65-.37-3.72-3.17-6.23-5.65-2.19 1.84-4.04 3.57-4.04 3.57 1.16 1.33 8.82 6.43 10.49 7.26 10.14-2.76 27.1-21.87 27.67-31.25.02.01-4.36 4.85-7.13 5.31z"/>
</svg>
